%TF.GenerationSoftware,KiCad,Pcbnew,9.0.6-9.0.6~ubuntu22.04.1*%
%TF.CreationDate,2025-12-31T09:15:03+09:00*%
%TF.ProjectId,GN10Mainboard,474e3130-4d61-4696-9e62-6f6172642e6b,rev?*%
%TF.SameCoordinates,Original*%
%TF.FileFunction,Legend,Bot*%
%TF.FilePolarity,Positive*%
%FSLAX46Y46*%
G04 Gerber Fmt 4.6, Leading zero omitted, Abs format (unit mm)*
G04 Created by KiCad (PCBNEW 9.0.6-9.0.6~ubuntu22.04.1) date 2025-12-31 09:15:03*
%MOMM*%
%LPD*%
G01*
G04 APERTURE LIST*
%ADD10C,0.150000*%
G04 APERTURE END LIST*
D10*
X155794649Y-148879819D02*
X155794649Y-147879819D01*
X155794649Y-148832200D02*
X155889887Y-148879819D01*
X155889887Y-148879819D02*
X156080363Y-148879819D01*
X156080363Y-148879819D02*
X156175601Y-148832200D01*
X156175601Y-148832200D02*
X156223220Y-148784580D01*
X156223220Y-148784580D02*
X156270839Y-148689342D01*
X156270839Y-148689342D02*
X156270839Y-148403628D01*
X156270839Y-148403628D02*
X156223220Y-148308390D01*
X156223220Y-148308390D02*
X156175601Y-148260771D01*
X156175601Y-148260771D02*
X156080363Y-148213152D01*
X156080363Y-148213152D02*
X155889887Y-148213152D01*
X155889887Y-148213152D02*
X155794649Y-148260771D01*
X154937506Y-148832200D02*
X155032744Y-148879819D01*
X155032744Y-148879819D02*
X155223220Y-148879819D01*
X155223220Y-148879819D02*
X155318458Y-148832200D01*
X155318458Y-148832200D02*
X155366077Y-148736961D01*
X155366077Y-148736961D02*
X155366077Y-148356009D01*
X155366077Y-148356009D02*
X155318458Y-148260771D01*
X155318458Y-148260771D02*
X155223220Y-148213152D01*
X155223220Y-148213152D02*
X155032744Y-148213152D01*
X155032744Y-148213152D02*
X154937506Y-148260771D01*
X154937506Y-148260771D02*
X154889887Y-148356009D01*
X154889887Y-148356009D02*
X154889887Y-148451247D01*
X154889887Y-148451247D02*
X155366077Y-148546485D01*
X154508934Y-148832200D02*
X154413696Y-148879819D01*
X154413696Y-148879819D02*
X154223220Y-148879819D01*
X154223220Y-148879819D02*
X154127982Y-148832200D01*
X154127982Y-148832200D02*
X154080363Y-148736961D01*
X154080363Y-148736961D02*
X154080363Y-148689342D01*
X154080363Y-148689342D02*
X154127982Y-148594104D01*
X154127982Y-148594104D02*
X154223220Y-148546485D01*
X154223220Y-148546485D02*
X154366077Y-148546485D01*
X154366077Y-148546485D02*
X154461315Y-148498866D01*
X154461315Y-148498866D02*
X154508934Y-148403628D01*
X154508934Y-148403628D02*
X154508934Y-148356009D01*
X154508934Y-148356009D02*
X154461315Y-148260771D01*
X154461315Y-148260771D02*
X154366077Y-148213152D01*
X154366077Y-148213152D02*
X154223220Y-148213152D01*
X154223220Y-148213152D02*
X154127982Y-148260771D01*
X153651791Y-148879819D02*
X153651791Y-148213152D01*
X153651791Y-147879819D02*
X153699410Y-147927438D01*
X153699410Y-147927438D02*
X153651791Y-147975057D01*
X153651791Y-147975057D02*
X153604172Y-147927438D01*
X153604172Y-147927438D02*
X153651791Y-147879819D01*
X153651791Y-147879819D02*
X153651791Y-147975057D01*
X152747030Y-148213152D02*
X152747030Y-149022676D01*
X152747030Y-149022676D02*
X152794649Y-149117914D01*
X152794649Y-149117914D02*
X152842268Y-149165533D01*
X152842268Y-149165533D02*
X152937506Y-149213152D01*
X152937506Y-149213152D02*
X153080363Y-149213152D01*
X153080363Y-149213152D02*
X153175601Y-149165533D01*
X152747030Y-148832200D02*
X152842268Y-148879819D01*
X152842268Y-148879819D02*
X153032744Y-148879819D01*
X153032744Y-148879819D02*
X153127982Y-148832200D01*
X153127982Y-148832200D02*
X153175601Y-148784580D01*
X153175601Y-148784580D02*
X153223220Y-148689342D01*
X153223220Y-148689342D02*
X153223220Y-148403628D01*
X153223220Y-148403628D02*
X153175601Y-148308390D01*
X153175601Y-148308390D02*
X153127982Y-148260771D01*
X153127982Y-148260771D02*
X153032744Y-148213152D01*
X153032744Y-148213152D02*
X152842268Y-148213152D01*
X152842268Y-148213152D02*
X152747030Y-148260771D01*
X152270839Y-148213152D02*
X152270839Y-148879819D01*
X152270839Y-148308390D02*
X152223220Y-148260771D01*
X152223220Y-148260771D02*
X152127982Y-148213152D01*
X152127982Y-148213152D02*
X151985125Y-148213152D01*
X151985125Y-148213152D02*
X151889887Y-148260771D01*
X151889887Y-148260771D02*
X151842268Y-148356009D01*
X151842268Y-148356009D02*
X151842268Y-148879819D01*
X150985125Y-148832200D02*
X151080363Y-148879819D01*
X151080363Y-148879819D02*
X151270839Y-148879819D01*
X151270839Y-148879819D02*
X151366077Y-148832200D01*
X151366077Y-148832200D02*
X151413696Y-148736961D01*
X151413696Y-148736961D02*
X151413696Y-148356009D01*
X151413696Y-148356009D02*
X151366077Y-148260771D01*
X151366077Y-148260771D02*
X151270839Y-148213152D01*
X151270839Y-148213152D02*
X151080363Y-148213152D01*
X151080363Y-148213152D02*
X150985125Y-148260771D01*
X150985125Y-148260771D02*
X150937506Y-148356009D01*
X150937506Y-148356009D02*
X150937506Y-148451247D01*
X150937506Y-148451247D02*
X151413696Y-148546485D01*
X150080363Y-148879819D02*
X150080363Y-147879819D01*
X150080363Y-148832200D02*
X150175601Y-148879819D01*
X150175601Y-148879819D02*
X150366077Y-148879819D01*
X150366077Y-148879819D02*
X150461315Y-148832200D01*
X150461315Y-148832200D02*
X150508934Y-148784580D01*
X150508934Y-148784580D02*
X150556553Y-148689342D01*
X150556553Y-148689342D02*
X150556553Y-148403628D01*
X150556553Y-148403628D02*
X150508934Y-148308390D01*
X150508934Y-148308390D02*
X150461315Y-148260771D01*
X150461315Y-148260771D02*
X150366077Y-148213152D01*
X150366077Y-148213152D02*
X150175601Y-148213152D01*
X150175601Y-148213152D02*
X150080363Y-148260771D01*
X148842267Y-148879819D02*
X148842267Y-147879819D01*
X148842267Y-148260771D02*
X148747029Y-148213152D01*
X148747029Y-148213152D02*
X148556553Y-148213152D01*
X148556553Y-148213152D02*
X148461315Y-148260771D01*
X148461315Y-148260771D02*
X148413696Y-148308390D01*
X148413696Y-148308390D02*
X148366077Y-148403628D01*
X148366077Y-148403628D02*
X148366077Y-148689342D01*
X148366077Y-148689342D02*
X148413696Y-148784580D01*
X148413696Y-148784580D02*
X148461315Y-148832200D01*
X148461315Y-148832200D02*
X148556553Y-148879819D01*
X148556553Y-148879819D02*
X148747029Y-148879819D01*
X148747029Y-148879819D02*
X148842267Y-148832200D01*
X148032743Y-148213152D02*
X147794648Y-148879819D01*
X147556553Y-148213152D02*
X147794648Y-148879819D01*
X147794648Y-148879819D02*
X147889886Y-149117914D01*
X147889886Y-149117914D02*
X147937505Y-149165533D01*
X147937505Y-149165533D02*
X148032743Y-149213152D01*
X145985124Y-148879819D02*
X145985124Y-148356009D01*
X145985124Y-148356009D02*
X146032743Y-148260771D01*
X146032743Y-148260771D02*
X146127981Y-148213152D01*
X146127981Y-148213152D02*
X146318457Y-148213152D01*
X146318457Y-148213152D02*
X146413695Y-148260771D01*
X145985124Y-148832200D02*
X146080362Y-148879819D01*
X146080362Y-148879819D02*
X146318457Y-148879819D01*
X146318457Y-148879819D02*
X146413695Y-148832200D01*
X146413695Y-148832200D02*
X146461314Y-148736961D01*
X146461314Y-148736961D02*
X146461314Y-148641723D01*
X146461314Y-148641723D02*
X146413695Y-148546485D01*
X146413695Y-148546485D02*
X146318457Y-148498866D01*
X146318457Y-148498866D02*
X146080362Y-148498866D01*
X146080362Y-148498866D02*
X145985124Y-148451247D01*
X145508933Y-148879819D02*
X145508933Y-148213152D01*
X145508933Y-147879819D02*
X145556552Y-147927438D01*
X145556552Y-147927438D02*
X145508933Y-147975057D01*
X145508933Y-147975057D02*
X145461314Y-147927438D01*
X145461314Y-147927438D02*
X145508933Y-147879819D01*
X145508933Y-147879819D02*
X145508933Y-147975057D01*
X145032743Y-148879819D02*
X145032743Y-147879819D01*
X145032743Y-148260771D02*
X144937505Y-148213152D01*
X144937505Y-148213152D02*
X144747029Y-148213152D01*
X144747029Y-148213152D02*
X144651791Y-148260771D01*
X144651791Y-148260771D02*
X144604172Y-148308390D01*
X144604172Y-148308390D02*
X144556553Y-148403628D01*
X144556553Y-148403628D02*
X144556553Y-148689342D01*
X144556553Y-148689342D02*
X144604172Y-148784580D01*
X144604172Y-148784580D02*
X144651791Y-148832200D01*
X144651791Y-148832200D02*
X144747029Y-148879819D01*
X144747029Y-148879819D02*
X144937505Y-148879819D01*
X144937505Y-148879819D02*
X145032743Y-148832200D01*
X143699410Y-148879819D02*
X143699410Y-148356009D01*
X143699410Y-148356009D02*
X143747029Y-148260771D01*
X143747029Y-148260771D02*
X143842267Y-148213152D01*
X143842267Y-148213152D02*
X144032743Y-148213152D01*
X144032743Y-148213152D02*
X144127981Y-148260771D01*
X143699410Y-148832200D02*
X143794648Y-148879819D01*
X143794648Y-148879819D02*
X144032743Y-148879819D01*
X144032743Y-148879819D02*
X144127981Y-148832200D01*
X144127981Y-148832200D02*
X144175600Y-148736961D01*
X144175600Y-148736961D02*
X144175600Y-148641723D01*
X144175600Y-148641723D02*
X144127981Y-148546485D01*
X144127981Y-148546485D02*
X144032743Y-148498866D01*
X144032743Y-148498866D02*
X143794648Y-148498866D01*
X143794648Y-148498866D02*
X143699410Y-148451247D01*
X143223219Y-148498866D02*
X142461315Y-148498866D01*
X141556553Y-148213152D02*
X141556553Y-149022676D01*
X141556553Y-149022676D02*
X141604172Y-149117914D01*
X141604172Y-149117914D02*
X141651791Y-149165533D01*
X141651791Y-149165533D02*
X141747029Y-149213152D01*
X141747029Y-149213152D02*
X141889886Y-149213152D01*
X141889886Y-149213152D02*
X141985124Y-149165533D01*
X141556553Y-148832200D02*
X141651791Y-148879819D01*
X141651791Y-148879819D02*
X141842267Y-148879819D01*
X141842267Y-148879819D02*
X141937505Y-148832200D01*
X141937505Y-148832200D02*
X141985124Y-148784580D01*
X141985124Y-148784580D02*
X142032743Y-148689342D01*
X142032743Y-148689342D02*
X142032743Y-148403628D01*
X142032743Y-148403628D02*
X141985124Y-148308390D01*
X141985124Y-148308390D02*
X141937505Y-148260771D01*
X141937505Y-148260771D02*
X141842267Y-148213152D01*
X141842267Y-148213152D02*
X141651791Y-148213152D01*
X141651791Y-148213152D02*
X141556553Y-148260771D01*
X140699410Y-148832200D02*
X140794648Y-148879819D01*
X140794648Y-148879819D02*
X140985124Y-148879819D01*
X140985124Y-148879819D02*
X141080362Y-148832200D01*
X141080362Y-148832200D02*
X141127981Y-148736961D01*
X141127981Y-148736961D02*
X141127981Y-148356009D01*
X141127981Y-148356009D02*
X141080362Y-148260771D01*
X141080362Y-148260771D02*
X140985124Y-148213152D01*
X140985124Y-148213152D02*
X140794648Y-148213152D01*
X140794648Y-148213152D02*
X140699410Y-148260771D01*
X140699410Y-148260771D02*
X140651791Y-148356009D01*
X140651791Y-148356009D02*
X140651791Y-148451247D01*
X140651791Y-148451247D02*
X141127981Y-148546485D01*
X140223219Y-148213152D02*
X140223219Y-148879819D01*
X140223219Y-148308390D02*
X140175600Y-148260771D01*
X140175600Y-148260771D02*
X140080362Y-148213152D01*
X140080362Y-148213152D02*
X139937505Y-148213152D01*
X139937505Y-148213152D02*
X139842267Y-148260771D01*
X139842267Y-148260771D02*
X139794648Y-148356009D01*
X139794648Y-148356009D02*
X139794648Y-148879819D01*
X139461314Y-148213152D02*
X139080362Y-148213152D01*
X139318457Y-147879819D02*
X139318457Y-148736961D01*
X139318457Y-148736961D02*
X139270838Y-148832200D01*
X139270838Y-148832200D02*
X139175600Y-148879819D01*
X139175600Y-148879819D02*
X139080362Y-148879819D01*
X138604171Y-148879819D02*
X138699409Y-148832200D01*
X138699409Y-148832200D02*
X138747028Y-148784580D01*
X138747028Y-148784580D02*
X138794647Y-148689342D01*
X138794647Y-148689342D02*
X138794647Y-148403628D01*
X138794647Y-148403628D02*
X138747028Y-148308390D01*
X138747028Y-148308390D02*
X138699409Y-148260771D01*
X138699409Y-148260771D02*
X138604171Y-148213152D01*
X138604171Y-148213152D02*
X138461314Y-148213152D01*
X138461314Y-148213152D02*
X138366076Y-148260771D01*
X138366076Y-148260771D02*
X138318457Y-148308390D01*
X138318457Y-148308390D02*
X138270838Y-148403628D01*
X138270838Y-148403628D02*
X138270838Y-148689342D01*
X138270838Y-148689342D02*
X138318457Y-148784580D01*
X138318457Y-148784580D02*
X138366076Y-148832200D01*
X138366076Y-148832200D02*
X138461314Y-148879819D01*
X138461314Y-148879819D02*
X138604171Y-148879819D01*
M02*
