M48
; DRILL file {KiCad 9.0.6-9.0.6~ubuntu22.04.1} date 2025-12-31T09:15:11+0900
; FORMAT={-:-/ absolute / metric / decimal}
; #@! TF.CreationDate,2025-12-31T09:15:11+09:00
; #@! TF.GenerationSoftware,Kicad,Pcbnew,9.0.6-9.0.6~ubuntu22.04.1
; #@! TF.FileFunction,Plated,1,4,PTH
FMAT,2
METRIC
; #@! TA.AperFunction,Plated,PTH,ComponentDrill
T1C0.200
; #@! TA.AperFunction,Plated,PTH,ViaDrill
T2C0.300
; #@! TA.AperFunction,Plated,PTH,ViaDrill
T3C0.400
; #@! TA.AperFunction,Plated,PTH,ComponentDrill
T4C0.600
; #@! TA.AperFunction,Plated,PTH,ComponentDrill
T5C0.800
; #@! TA.AperFunction,Plated,PTH,ComponentDrill
T6C0.900
; #@! TA.AperFunction,Plated,PTH,ComponentDrill
T7C0.950
; #@! TA.AperFunction,Plated,PTH,ComponentDrill
T8C1.100
; #@! TA.AperFunction,Plated,PTH,ComponentDrill
T9C1.600
; #@! TA.AperFunction,Plated,PTH,ComponentDrill
T10C2.700
%
G90
G05
T1
X135.322Y-126.112
X135.322Y-127.412
X136.623Y-126.112
X136.623Y-127.412
X137.922Y-126.112
X137.922Y-127.412
T2
X131.0Y-112.0
X131.0Y-116.0
X131.0Y-120.0
X131.0Y-124.0
X131.0Y-128.0
X131.0Y-132.0
X131.0Y-136.0
X131.0Y-140.0
X133.0Y-134.0
X133.0Y-138.0
X133.4Y-126.3
X133.4Y-127.2
X133.4Y-128.2
X133.4Y-129.2
X133.4Y-130.1
X133.9Y-122.6
X134.0Y-112.0
X134.0Y-116.0
X134.0Y-120.0
X134.0Y-140.0
X134.6Y-122.6
X137.0Y-100.0
X137.0Y-105.0
X137.0Y-112.0
X137.0Y-136.0
X137.0Y-140.0
X137.9Y-137.7
X138.5Y-137.7
X138.6Y-122.4
X138.8Y-130.9
X138.8Y-131.8
X138.8Y-132.7
X138.8Y-133.6
X138.8Y-134.5
X138.8Y-135.5
X138.8Y-136.5
X139.0Y-91.0
X139.0Y-95.0
X139.1Y-137.7
X139.7Y-126.7
X139.7Y-127.3
X139.7Y-127.9
X139.7Y-137.7
X140.0Y-105.0
X140.0Y-115.0
X140.0Y-140.0
X140.0Y-142.0
X140.0Y-149.0
X140.3Y-137.7
X140.4Y-126.3
X140.4Y-127.0
X140.4Y-127.7
X140.9Y-137.7
X141.0Y-115.0
X141.5Y-137.7
X142.0Y-115.0
X142.1Y-116.5
X142.1Y-117.4
X142.1Y-118.2
X142.1Y-119.0
X142.1Y-119.8
X142.1Y-120.6
X142.1Y-121.3
X142.1Y-122.0
X142.1Y-122.7
X142.1Y-123.4
X142.1Y-126.6
X142.1Y-127.3
X142.1Y-128.0
X142.1Y-137.7
X142.7Y-137.7
X143.0Y-115.0
X143.0Y-140.0
X143.3Y-137.7
X144.0Y-105.0
X144.0Y-115.0
X144.0Y-117.0
X144.0Y-120.0
X146.0Y-91.0
X146.0Y-140.0
X148.0Y-98.7
X148.0Y-110.0
X148.0Y-114.0
X148.0Y-117.0
X148.0Y-120.0
X148.0Y-123.0
X148.0Y-149.0
X148.2Y-106.3
X149.0Y-128.0
X149.0Y-131.0
X149.0Y-134.0
X149.0Y-137.0
X149.0Y-140.0
X150.0Y-106.1
X150.0Y-123.0
X151.0Y-115.0
X151.0Y-119.0
X152.0Y-91.0
X153.0Y-110.0
X153.0Y-116.0
X155.0Y-107.0
X156.0Y-116.0
X156.0Y-120.0
X156.0Y-149.0
X157.0Y-145.0
X158.4Y-110.7
X159.0Y-115.0
X159.0Y-120.0
X159.0Y-123.0
X159.0Y-126.0
X159.0Y-129.0
X159.0Y-132.0
X160.0Y-91.0
X161.1Y-128.4
X162.0Y-107.0
X162.0Y-115.0
X162.0Y-120.0
X162.0Y-123.0
X162.0Y-136.0
X162.0Y-142.0
X162.3Y-132.8
X162.6Y-128.4
X163.4Y-135.3
X164.2Y-128.5
X165.0Y-123.0
X165.0Y-140.0
X165.0Y-149.0
X165.3Y-133.0
X165.5Y-110.7
X165.7Y-125.5
X166.0Y-115.0
X166.0Y-119.0
X166.0Y-136.0
X168.0Y-91.0
X168.0Y-110.0
X168.1Y-111.4
X168.3Y-109.1
X168.4Y-113.3
X169.0Y-115.0
X169.0Y-119.0
X169.0Y-127.0
X169.1Y-131.0
X170.0Y-107.0
X170.0Y-128.0
X170.0Y-140.0
X170.5Y-115.1
X170.9Y-109.0
X172.0Y-100.0
X172.0Y-105.0
X172.0Y-126.0
X173.0Y-114.0
X173.0Y-129.0
X173.0Y-134.0
X173.1Y-117.3
X173.7Y-121.9
X174.0Y-126.0
X174.0Y-149.0
X175.0Y-91.0
X175.0Y-134.0
X175.0Y-140.0
X175.477Y-108.026
X175.6Y-109.1
X176.0Y-145.0
X177.0Y-100.0
X177.3Y-107.7
X178.0Y-136.0
X178.2Y-107.7
X178.3Y-110.9
X178.3Y-112.0
X178.3Y-113.0
X178.3Y-118.8
X179.0Y-125.0
X179.9Y-133.5
X180.0Y-136.0
X180.0Y-140.0
X180.3Y-113.0
X180.8Y-118.7
X180.9Y-108.8
X180.9Y-110.8
X181.0Y-91.0
X181.0Y-100.0
X181.0Y-104.0
X181.0Y-112.0
X182.0Y-105.6
X182.0Y-116.0
X182.3Y-136.6
X182.9Y-103.5
X183.0Y-107.0
X183.0Y-125.0
X183.0Y-139.0
X183.0Y-142.0
X183.0Y-149.0
X183.9Y-106.7
X183.9Y-109.5
X183.9Y-112.1
X185.0Y-100.0
X185.0Y-105.0
X185.0Y-116.0
X185.0Y-138.0
X185.3Y-119.2
X185.3Y-121.4
X186.0Y-125.0
X186.0Y-136.0
X186.0Y-141.0
X186.1Y-111.5
X186.2Y-107.4
X186.2Y-109.3
X187.0Y-91.0
X187.0Y-106.0
X187.5Y-131.0
X187.6Y-132.5
X188.0Y-104.0
X188.0Y-107.8
X188.0Y-116.0
X188.0Y-141.0
X188.8Y-131.1
X188.9Y-132.5
X190.0Y-141.0
X190.3Y-113.9
X190.6Y-132.6
X191.0Y-102.0
X191.0Y-105.0
X191.0Y-113.0
X191.0Y-116.0
X191.0Y-120.0
X191.0Y-129.0
X192.0Y-91.0
X192.0Y-136.0
X192.0Y-138.0
X192.0Y-140.0
X192.0Y-149.0
X192.4Y-113.0
X193.2Y-99.9
X194.0Y-118.0
X194.0Y-133.0
X194.1Y-124.0
X194.1Y-127.7
X195.0Y-122.0
X195.0Y-126.0
X195.0Y-129.0
X196.0Y-136.0
X196.0Y-139.0
X197.0Y-91.0
X197.0Y-118.0
X197.0Y-130.0
X197.0Y-133.0
X198.0Y-99.9
X198.0Y-149.0
X199.1Y-127.8
X199.1Y-138.7
X199.2Y-124.7
X199.2Y-129.0
X199.3Y-132.3
X200.0Y-120.0
X200.4Y-128.425
X200.79Y-132.2
X201.3Y-125.5
X202.0Y-91.0
X203.0Y-120.0
X203.0Y-126.0
X203.2Y-124.8
X203.3Y-131.8
X206.0Y-120.0
X206.0Y-126.0
X208.7Y-99.6
X209.0Y-118.0
X209.0Y-120.0
X209.0Y-126.0
X209.0Y-138.0
X209.0Y-141.0
T3
X141.0Y-128.5
X141.1Y-123.3
X149.7Y-114.9
X153.5Y-114.8
X154.405Y-113.9
X154.6Y-110.0
X161.6Y-133.775
X165.6Y-131.0
X168.2Y-122.1
X168.377Y-130.098
X169.201Y-129.531
X170.687Y-126.913
X171.613Y-132.95
X172.1Y-116.1
X172.687Y-130.687
X172.7Y-133.1
X173.4Y-132.225
X174.225Y-128.125
X175.1Y-116.0
X175.275Y-113.251
X175.6Y-131.5
X175.934Y-112.499
X176.25Y-111.55
X176.944Y-110.83
X177.09Y-133.764
X177.6Y-137.9
X178.176Y-121.688
X178.45Y-122.65
X179.721Y-129.625
X179.96Y-127.275
X180.187Y-132.075
X180.6Y-128.725
X181.463Y-130.337
X183.2Y-132.22
X183.6Y-136.9
X184.2Y-133.4
X185.085Y-110.559
X185.825Y-128.833
X186.822Y-128.909
X187.0Y-108.3
X188.2Y-106.6
X188.2Y-108.9
X191.55Y-124.75
X196.9Y-122.1
X198.3Y-139.8
T5
X140.847Y-110.7
X140.853Y-99.6
X144.347Y-110.7
X144.353Y-99.6
X197.6Y-145.0
X199.4Y-145.0
T6
X194.797Y-104.11
X194.797Y-106.65
X194.797Y-109.19
X194.797Y-111.73
X197.337Y-105.38
X197.337Y-107.92
X197.337Y-110.46
X197.337Y-113.0
T7
X141.5Y-145.5
X144.0Y-145.5
X146.5Y-145.5
X149.0Y-145.5
X151.5Y-145.5
X152.0Y-93.5
X152.0Y-96.0
X152.0Y-98.5
X152.0Y-101.0
X154.0Y-145.5
X159.5Y-93.5
X159.5Y-96.0
X159.5Y-98.5
X159.5Y-101.0
X160.5Y-145.5
X163.0Y-145.5
X165.5Y-145.5
X167.0Y-93.5
X167.0Y-96.0
X167.0Y-98.5
X167.0Y-101.0
X168.0Y-145.5
X170.5Y-145.5
X173.0Y-145.5
X174.5Y-93.475
X177.0Y-93.475
X179.5Y-93.475
X179.5Y-145.5
X182.0Y-93.475
X182.0Y-145.5
X184.5Y-145.5
X187.0Y-145.5
X189.5Y-145.5
X192.0Y-145.5
T8
X207.748Y-101.93
X207.748Y-104.47
X207.748Y-112.64
X207.748Y-115.18
T9
X200.637Y-100.81
X200.637Y-116.3
T10
X133.7Y-102.4
X133.7Y-107.4
T4
G00X202.38Y-127.78
M15
G01X203.48Y-127.78
M16
G05
G00X202.38Y-136.42
M15
G01X203.48Y-136.42
M16
G05
G00X206.81Y-127.78
M15
G01X207.41Y-127.78
M16
G05
G00X206.81Y-136.42
M15
G01X207.41Y-136.42
M16
G05
M30
