%TF.GenerationSoftware,KiCad,Pcbnew,9.0.6-9.0.6~ubuntu22.04.1*%
%TF.CreationDate,2025-12-31T09:15:03+09:00*%
%TF.ProjectId,GN10Mainboard,474e3130-4d61-4696-9e62-6f6172642e6b,rev?*%
%TF.SameCoordinates,Original*%
%TF.FileFunction,Copper,L3,Inr*%
%TF.FilePolarity,Positive*%
%FSLAX46Y46*%
G04 Gerber Fmt 4.6, Leading zero omitted, Abs format (unit mm)*
G04 Created by KiCad (PCBNEW 9.0.6-9.0.6~ubuntu22.04.1) date 2025-12-31 09:15:03*
%MOMM*%
%LPD*%
G01*
G04 APERTURE LIST*
G04 Aperture macros list*
%AMRoundRect*
0 Rectangle with rounded corners*
0 $1 Rounding radius*
0 $2 $3 $4 $5 $6 $7 $8 $9 X,Y pos of 4 corners*
0 Add a 4 corners polygon primitive as box body*
4,1,4,$2,$3,$4,$5,$6,$7,$8,$9,$2,$3,0*
0 Add four circle primitives for the rounded corners*
1,1,$1+$1,$2,$3*
1,1,$1+$1,$4,$5*
1,1,$1+$1,$6,$7*
1,1,$1+$1,$8,$9*
0 Add four rect primitives between the rounded corners*
20,1,$1+$1,$2,$3,$4,$5,0*
20,1,$1+$1,$4,$5,$6,$7,0*
20,1,$1+$1,$6,$7,$8,$9,0*
20,1,$1+$1,$8,$9,$2,$3,0*%
G04 Aperture macros list end*
%TA.AperFunction,HeatsinkPad*%
%ADD10C,0.500000*%
%TD*%
%TA.AperFunction,ComponentPad*%
%ADD11RoundRect,0.250000X0.725000X-0.600000X0.725000X0.600000X-0.725000X0.600000X-0.725000X-0.600000X0*%
%TD*%
%TA.AperFunction,ComponentPad*%
%ADD12O,1.950000X1.700000*%
%TD*%
%TA.AperFunction,ComponentPad*%
%ADD13RoundRect,0.250000X-0.600000X-0.725000X0.600000X-0.725000X0.600000X0.725000X-0.600000X0.725000X0*%
%TD*%
%TA.AperFunction,ComponentPad*%
%ADD14O,1.700000X1.950000*%
%TD*%
%TA.AperFunction,ComponentPad*%
%ADD15R,1.900000X1.900000*%
%TD*%
%TA.AperFunction,ComponentPad*%
%ADD16C,1.900000*%
%TD*%
%TA.AperFunction,ComponentPad*%
%ADD17C,2.100000*%
%TD*%
%TA.AperFunction,ComponentPad*%
%ADD18C,2.600000*%
%TD*%
%TA.AperFunction,ComponentPad*%
%ADD19RoundRect,0.250000X0.550000X0.550000X-0.550000X0.550000X-0.550000X-0.550000X0.550000X-0.550000X0*%
%TD*%
%TA.AperFunction,ComponentPad*%
%ADD20C,1.600000*%
%TD*%
%TA.AperFunction,ComponentPad*%
%ADD21RoundRect,0.760000X-1.140000X1.140000X-1.140000X-1.140000X1.140000X-1.140000X1.140000X1.140000X0*%
%TD*%
%TA.AperFunction,ComponentPad*%
%ADD22C,3.800000*%
%TD*%
%TA.AperFunction,HeatsinkPad*%
%ADD23O,2.100000X1.000000*%
%TD*%
%TA.AperFunction,HeatsinkPad*%
%ADD24O,1.600000X1.000000*%
%TD*%
%TA.AperFunction,ComponentPad*%
%ADD25RoundRect,0.250000X-0.550000X-0.550000X0.550000X-0.550000X0.550000X0.550000X-0.550000X0.550000X0*%
%TD*%
%TA.AperFunction,ComponentPad*%
%ADD26C,1.100000*%
%TD*%
%TA.AperFunction,ViaPad*%
%ADD27C,0.600000*%
%TD*%
%TA.AperFunction,ViaPad*%
%ADD28C,0.500000*%
%TD*%
%TA.AperFunction,ViaPad*%
%ADD29C,0.800000*%
%TD*%
%TA.AperFunction,Conductor*%
%ADD30C,0.250000*%
%TD*%
G04 APERTURE END LIST*
D10*
%TO.N,GND*%
%TO.C,U1*%
X137922500Y-126112500D03*
X136622500Y-126112500D03*
X135322500Y-126112500D03*
X137922500Y-127412500D03*
X136622500Y-127412500D03*
X135322500Y-127412500D03*
%TD*%
D11*
%TO.N,GND*%
%TO.C,J8*%
X167000000Y-101000000D03*
D12*
%TO.N,CAN3_L*%
X167000000Y-98500000D03*
%TO.N,+5V*%
X167000000Y-96000000D03*
%TO.N,CAN3_H*%
X167000000Y-93500000D03*
%TD*%
D13*
%TO.N,TIM1_CH1*%
%TO.C,J5*%
X141500000Y-145500000D03*
D14*
%TO.N,+3.3V*%
X144000000Y-145500000D03*
%TO.N,TIM1_CH2*%
X146500000Y-145500000D03*
%TO.N,GND*%
X149000000Y-145500000D03*
%TO.N,unconnected-(J5-Pin_5-Pad5)*%
X151500000Y-145500000D03*
%TO.N,unconnected-(J5-Pin_6-Pad6)*%
X154000000Y-145500000D03*
%TD*%
D15*
%TO.N,Net-(J9-TD+)*%
%TO.C,J9*%
X197337500Y-113000000D03*
D16*
%TO.N,Net-(J9-TCT)*%
X194797500Y-111730000D03*
%TO.N,Net-(J9-TD-)*%
X197337500Y-110460000D03*
%TO.N,Net-(J9-RD+)*%
X194797500Y-109190000D03*
%TO.N,Net-(J9-RCT)*%
X197337500Y-107920000D03*
%TO.N,Net-(J9-RD-)*%
X194797500Y-106650000D03*
%TO.N,N/C*%
X197337500Y-105380000D03*
%TO.N,GNDS*%
X194797500Y-104110000D03*
D17*
%TO.N,+3.3V*%
X207747500Y-115180000D03*
%TO.N,Net-(J9-PadL2)*%
X207747500Y-112640000D03*
%TO.N,+3.3V*%
X207747500Y-104470000D03*
%TO.N,Net-(J9-PadL4)*%
X207747500Y-101930000D03*
D18*
%TO.N,GNDS*%
X200637500Y-116300000D03*
X200637500Y-100810000D03*
%TD*%
D19*
%TO.N,+5V*%
%TO.C,C44*%
X144352651Y-99600000D03*
D20*
%TO.N,GND*%
X140852651Y-99600000D03*
%TD*%
D21*
%TO.N,GND*%
%TO.C,J1*%
X133700000Y-102400000D03*
D22*
%TO.N,+BATT*%
X133700000Y-107400000D03*
%TD*%
D23*
%TO.N,unconnected-(J10-SHIELD-PadS1)_3*%
%TO.C,J10*%
X202930000Y-136420000D03*
D24*
%TO.N,unconnected-(J10-SHIELD-PadS1)_2*%
X207110000Y-136420000D03*
D23*
%TO.N,unconnected-(J10-SHIELD-PadS1)*%
X202930000Y-127780000D03*
D24*
%TO.N,unconnected-(J10-SHIELD-PadS1)_1*%
X207110000Y-127780000D03*
%TD*%
D25*
%TO.N,+BATT*%
%TO.C,C43*%
X140847349Y-110700000D03*
D20*
%TO.N,GND*%
X144347349Y-110700000D03*
%TD*%
D13*
%TO.N,+3.3V*%
%TO.C,J4*%
X174500000Y-93475000D03*
D14*
%TO.N,SYS_SWCLK*%
X177000000Y-93475000D03*
%TO.N,GND*%
X179500000Y-93475000D03*
%TO.N,SYS_SWDIO*%
X182000000Y-93475000D03*
%TD*%
D13*
%TO.N,TIM3_CH1*%
%TO.C,J14*%
X179500000Y-145500000D03*
D14*
%TO.N,+3.3V*%
X182000000Y-145500000D03*
%TO.N,TIM3_CH2*%
X184500000Y-145500000D03*
%TO.N,GND*%
X187000000Y-145500000D03*
%TO.N,unconnected-(J14-Pin_5-Pad5)*%
X189500000Y-145500000D03*
%TO.N,unconnected-(J14-Pin_6-Pad6)*%
X192000000Y-145500000D03*
%TD*%
D11*
%TO.N,GND*%
%TO.C,J7*%
X159500000Y-101000000D03*
D12*
%TO.N,CAN2_L*%
X159500000Y-98500000D03*
%TO.N,+5V*%
X159500000Y-96000000D03*
%TO.N,CAN2_H*%
X159500000Y-93500000D03*
%TD*%
D26*
%TO.N,*%
%TO.C,SW1*%
X199400000Y-145000000D03*
X197600000Y-145000000D03*
%TD*%
D13*
%TO.N,TIM2_CH1*%
%TO.C,J13*%
X160500000Y-145500000D03*
D14*
%TO.N,+3.3V*%
X163000000Y-145500000D03*
%TO.N,TIM2_CH2*%
X165500000Y-145500000D03*
%TO.N,GND*%
X168000000Y-145500000D03*
%TO.N,unconnected-(J13-Pin_5-Pad5)*%
X170500000Y-145500000D03*
%TO.N,unconnected-(J13-Pin_6-Pad6)*%
X173000000Y-145500000D03*
%TD*%
D11*
%TO.N,GND*%
%TO.C,J6*%
X152000000Y-101000000D03*
D12*
%TO.N,CAN1_L*%
X152000000Y-98500000D03*
%TO.N,+5V*%
X152000000Y-96000000D03*
%TO.N,CAN1_H*%
X152000000Y-93500000D03*
%TD*%
D27*
%TO.N,GND*%
X180300000Y-113000000D03*
X209000000Y-120000000D03*
X159000000Y-132000000D03*
X191000000Y-105000000D03*
X202000000Y-91000000D03*
X194000000Y-133000000D03*
X209000000Y-138000000D03*
X173700000Y-121900000D03*
X186000000Y-141000000D03*
X182000000Y-116000000D03*
X168000000Y-91000000D03*
X152000000Y-91000000D03*
X140900000Y-137700000D03*
X168400000Y-113300000D03*
X153000000Y-116000000D03*
X175000000Y-140000000D03*
X172000000Y-126000000D03*
X199200000Y-124700000D03*
X153000000Y-110000000D03*
X162000000Y-136000000D03*
X159000000Y-120000000D03*
X160000000Y-91000000D03*
X192000000Y-91000000D03*
X187000000Y-106000000D03*
X185300000Y-121400000D03*
X162000000Y-142000000D03*
X183000000Y-142000000D03*
X192000000Y-136000000D03*
X133400000Y-126300000D03*
X140400000Y-127000000D03*
X178300000Y-118800000D03*
X139700000Y-127300000D03*
X186200000Y-109300000D03*
X133400000Y-127200000D03*
X188900000Y-132500000D03*
X186200000Y-107400000D03*
X206000000Y-126000000D03*
X163400000Y-135300000D03*
X178300000Y-110900000D03*
X142100000Y-126600000D03*
X159000000Y-129000000D03*
X208700000Y-99600000D03*
X185000000Y-116000000D03*
X140400000Y-127700000D03*
X139700000Y-137700000D03*
X195000000Y-122000000D03*
X137000000Y-105000000D03*
X188000000Y-141000000D03*
X142100000Y-123400000D03*
X144000000Y-115000000D03*
X131000000Y-120000000D03*
X183000000Y-149000000D03*
X170000000Y-128000000D03*
X138500000Y-137700000D03*
X165000000Y-149000000D03*
X173000000Y-129000000D03*
X156000000Y-120000000D03*
X190000000Y-141000000D03*
X146000000Y-140000000D03*
X169000000Y-127000000D03*
X150000000Y-123000000D03*
X165000000Y-123000000D03*
X156000000Y-149000000D03*
X178300000Y-113000000D03*
X196000000Y-136000000D03*
X168100000Y-111400000D03*
X169100000Y-131000000D03*
X165500000Y-110700000D03*
X197000000Y-118000000D03*
X134000000Y-140000000D03*
X187500000Y-131000000D03*
X197000000Y-91000000D03*
X199300000Y-132300000D03*
X142100000Y-116500000D03*
X134000000Y-112000000D03*
X162300000Y-132800000D03*
D28*
X161100000Y-128400000D03*
D27*
X165300000Y-133000000D03*
X173100000Y-117300000D03*
X149000000Y-140000000D03*
X162000000Y-123000000D03*
X133000000Y-138000000D03*
X137000000Y-140000000D03*
X191000000Y-129000000D03*
X188000000Y-116000000D03*
X138600000Y-122400000D03*
X180900000Y-108800000D03*
X173000000Y-114000000D03*
X142100000Y-119800000D03*
X149000000Y-137000000D03*
X178000000Y-136000000D03*
X142100000Y-122000000D03*
X142100000Y-127300000D03*
X139700000Y-126700000D03*
X191000000Y-116000000D03*
X199200000Y-129000000D03*
X148000000Y-120000000D03*
X149000000Y-131000000D03*
X180000000Y-136000000D03*
X206000000Y-120000000D03*
X148000000Y-123000000D03*
X186000000Y-136000000D03*
X182300000Y-136600000D03*
X137900000Y-137700000D03*
X172000000Y-105000000D03*
X186000000Y-125000000D03*
X143300000Y-137700000D03*
X149000000Y-134000000D03*
X173000000Y-134000000D03*
X183000000Y-125000000D03*
X186100000Y-111500000D03*
X131000000Y-112000000D03*
X142700000Y-137700000D03*
X174000000Y-149000000D03*
X142100000Y-128000000D03*
X179000000Y-125000000D03*
X166000000Y-136000000D03*
X141000000Y-115000000D03*
X177300000Y-107700000D03*
X148000000Y-98700000D03*
X140400000Y-126300000D03*
X138800000Y-135500000D03*
X191000000Y-120000000D03*
X142100000Y-137700000D03*
X195000000Y-129000000D03*
X146000000Y-91000000D03*
X140000000Y-105000000D03*
X185300000Y-119200000D03*
X181000000Y-91000000D03*
X197000000Y-133000000D03*
X169000000Y-119000000D03*
X150000000Y-106100000D03*
X176000000Y-145000000D03*
X197000000Y-130000000D03*
X133400000Y-129200000D03*
X133000000Y-134000000D03*
X183000000Y-139000000D03*
X166000000Y-119000000D03*
X143000000Y-140000000D03*
X131000000Y-140000000D03*
X168300000Y-109100000D03*
X134000000Y-120000000D03*
X194000000Y-118000000D03*
X188000000Y-104000000D03*
X181000000Y-112000000D03*
X183000000Y-107000000D03*
X203000000Y-126000000D03*
X138800000Y-130900000D03*
X137000000Y-136000000D03*
X175000000Y-91000000D03*
X170500000Y-115100000D03*
X169000000Y-115000000D03*
X157000000Y-145000000D03*
X177000000Y-100000000D03*
X185000000Y-100000000D03*
X140000000Y-115000000D03*
X159000000Y-126000000D03*
X187600000Y-132500000D03*
X185000000Y-138000000D03*
X138800000Y-132700000D03*
X156000000Y-116000000D03*
X209000000Y-118000000D03*
X191000000Y-113000000D03*
X170900000Y-109000000D03*
X178300000Y-112000000D03*
X188800000Y-131100000D03*
X133900000Y-122600000D03*
X170000000Y-107000000D03*
X151000000Y-115000000D03*
X138800000Y-134500000D03*
X138800000Y-136500000D03*
X158400000Y-110700000D03*
X165000000Y-140000000D03*
X144000000Y-105000000D03*
X180800000Y-118700000D03*
X159000000Y-123000000D03*
X162000000Y-107000000D03*
X166000000Y-115000000D03*
X199100000Y-138700000D03*
X170000000Y-140000000D03*
X141500000Y-137700000D03*
X137000000Y-100000000D03*
X159000000Y-115000000D03*
X192400000Y-113000000D03*
X144000000Y-120000000D03*
X191000000Y-102000000D03*
X142100000Y-117400000D03*
X172000000Y-100000000D03*
X180000000Y-140000000D03*
X209000000Y-141000000D03*
X192000000Y-138000000D03*
X142000000Y-115000000D03*
X143000000Y-115000000D03*
X138800000Y-131800000D03*
X179900000Y-133500000D03*
X137000000Y-112000000D03*
X138800000Y-133600000D03*
X131000000Y-116000000D03*
X140000000Y-140000000D03*
X133400000Y-128200000D03*
X200000000Y-120000000D03*
X162000000Y-115000000D03*
X131000000Y-136000000D03*
X140000000Y-142000000D03*
X194100000Y-124000000D03*
X142100000Y-121300000D03*
X148200000Y-106300000D03*
X139100000Y-137700000D03*
X181000000Y-100000000D03*
X139000000Y-95000000D03*
X142100000Y-118200000D03*
X187000000Y-91000000D03*
X151000000Y-119000000D03*
X140000000Y-149000000D03*
X175000000Y-134000000D03*
X195000000Y-126000000D03*
X131000000Y-128000000D03*
X198000000Y-149000000D03*
X193200000Y-99900000D03*
X188000000Y-107800000D03*
X203000000Y-120000000D03*
X192000000Y-140000000D03*
X155000000Y-107000000D03*
X192000000Y-149000000D03*
X142100000Y-122700000D03*
X134600000Y-122600000D03*
X131000000Y-124000000D03*
X209000000Y-126000000D03*
X142100000Y-119000000D03*
X174000000Y-126000000D03*
X198000000Y-99900000D03*
X181000000Y-104000000D03*
D28*
X164200000Y-128500000D03*
D27*
X142100000Y-120600000D03*
X148000000Y-114000000D03*
X162000000Y-120000000D03*
X165700000Y-125500000D03*
X196000000Y-139000000D03*
X168000000Y-110000000D03*
X148000000Y-110000000D03*
X134000000Y-116000000D03*
D28*
X162600000Y-128400000D03*
D27*
X144000000Y-117000000D03*
X140300000Y-137700000D03*
X131000000Y-132000000D03*
X201300000Y-125500000D03*
X148000000Y-149000000D03*
X139700000Y-127900000D03*
X190600000Y-132600000D03*
X139000000Y-91000000D03*
X180900000Y-110800000D03*
X185000000Y-105000000D03*
X133400000Y-130100000D03*
X178200000Y-107700000D03*
X148000000Y-117000000D03*
X149000000Y-128000000D03*
%TO.N,+3.3V*%
X190300000Y-113900000D03*
X183900000Y-109500000D03*
D29*
X183600000Y-136900000D03*
X154405000Y-113900000D03*
X177600000Y-137900000D03*
X168200000Y-122100000D03*
D27*
X183900000Y-106700000D03*
D29*
X154600000Y-110000000D03*
D27*
X183900000Y-112100000D03*
D29*
X172100000Y-116100000D03*
%TO.N,STM32_RESET*%
X198300000Y-139800000D03*
X169200798Y-129530617D03*
%TO.N,Net-(D2-K)*%
X141000000Y-128500000D03*
X141100000Y-123300000D03*
%TO.N,Net-(U8-RXN)*%
X187000000Y-108300000D03*
X188200000Y-106600000D03*
%TO.N,Net-(U8-RXP)*%
X185084954Y-110558754D03*
X188200000Y-108900000D03*
%TO.N,SYS_SWDIO*%
X178450000Y-122650000D03*
%TO.N,SYS_SWCLK*%
X178176000Y-121688269D03*
%TO.N,TIM1_CH1*%
X168377077Y-130097617D03*
%TO.N,TIM1_CH2*%
X165600000Y-131000000D03*
X161600000Y-133775000D03*
D27*
%TO.N,USBD+*%
X199100000Y-127800000D03*
X203300000Y-131800000D03*
%TO.N,USBD-*%
X200789998Y-132200000D03*
X200400000Y-128425000D03*
D29*
%TO.N,W5500_RST*%
X172687347Y-130687347D03*
X175100000Y-116000000D03*
D27*
%TO.N,LNK*%
X175476899Y-108026000D03*
X182000000Y-105600000D03*
%TO.N,ACT*%
X182900000Y-103500000D03*
X175600000Y-109100000D03*
%TO.N,Net-(U11-CBUS2)*%
X203200000Y-124800000D03*
X194100000Y-127700000D03*
D29*
%TO.N,I2C3_SDA*%
X184200000Y-133400000D03*
X179720843Y-129625000D03*
%TO.N,I2C3_SCL*%
X181462653Y-130337347D03*
X183200000Y-132220000D03*
%TO.N,GYRO_RESET*%
X180187347Y-132075000D03*
X186822127Y-128909283D03*
%TO.N,CAN1_TX*%
X170687347Y-126912653D03*
X149700000Y-114900000D03*
%TO.N,USART1_TX*%
X180600000Y-128725000D03*
X191550000Y-124750000D03*
%TO.N,CAN1_RX*%
X153500000Y-114800000D03*
X174224694Y-128124694D03*
%TO.N,SPI1_MISO*%
X175933772Y-112498686D03*
X173400000Y-132225000D03*
%TO.N,GYRO_INT*%
X185825000Y-128833493D03*
X177090276Y-133763659D03*
%TO.N,USART1_RX*%
X196900000Y-122100000D03*
X179959697Y-127275001D03*
%TO.N,SPI1_MOSI*%
X175275000Y-113251028D03*
X171612653Y-132950000D03*
%TO.N,SPI1_SCK*%
X175600000Y-131500000D03*
X176250000Y-111550000D03*
%TO.N,SPI1_CS*%
X176943905Y-110829930D03*
X172700000Y-133100000D03*
%TD*%
D30*
%TO.N,SYS_SWDIO*%
X179600000Y-121500000D02*
X179600000Y-95875000D01*
X179600000Y-95875000D02*
X182000000Y-93475000D01*
X178450000Y-122650000D02*
X179600000Y-121500000D01*
%TO.N,SYS_SWCLK*%
X178176000Y-121688269D02*
X179100000Y-120764269D01*
X179100000Y-120764269D02*
X179100000Y-95575000D01*
X179100000Y-95575000D02*
X177000000Y-93475000D01*
%TO.N,USART1_TX*%
X183500000Y-126500000D02*
X181275000Y-128725000D01*
X191550000Y-124750000D02*
X189800000Y-126500000D01*
X181275000Y-128725000D02*
X180600000Y-128725000D01*
X189800000Y-126500000D02*
X183500000Y-126500000D01*
%TD*%
M02*
