%TF.GenerationSoftware,KiCad,Pcbnew,8.0.7*%
%TF.CreationDate,2025-02-04T22:27:15+09:00*%
%TF.ProjectId,GN10Mainboard,474e3130-4d61-4696-9e62-6f6172642e6b,rev?*%
%TF.SameCoordinates,Original*%
%TF.FileFunction,Copper,L2,Inr*%
%TF.FilePolarity,Positive*%
%FSLAX46Y46*%
G04 Gerber Fmt 4.6, Leading zero omitted, Abs format (unit mm)*
G04 Created by KiCad (PCBNEW 8.0.7) date 2025-02-04 22:27:15*
%MOMM*%
%LPD*%
G01*
G04 APERTURE LIST*
G04 Aperture macros list*
%AMRoundRect*
0 Rectangle with rounded corners*
0 $1 Rounding radius*
0 $2 $3 $4 $5 $6 $7 $8 $9 X,Y pos of 4 corners*
0 Add a 4 corners polygon primitive as box body*
4,1,4,$2,$3,$4,$5,$6,$7,$8,$9,$2,$3,0*
0 Add four circle primitives for the rounded corners*
1,1,$1+$1,$2,$3*
1,1,$1+$1,$4,$5*
1,1,$1+$1,$6,$7*
1,1,$1+$1,$8,$9*
0 Add four rect primitives between the rounded corners*
20,1,$1+$1,$2,$3,$4,$5,0*
20,1,$1+$1,$4,$5,$6,$7,0*
20,1,$1+$1,$6,$7,$8,$9,0*
20,1,$1+$1,$8,$9,$2,$3,0*%
G04 Aperture macros list end*
%TA.AperFunction,ComponentPad*%
%ADD10RoundRect,0.250000X0.725000X-0.600000X0.725000X0.600000X-0.725000X0.600000X-0.725000X-0.600000X0*%
%TD*%
%TA.AperFunction,ComponentPad*%
%ADD11O,1.950000X1.700000*%
%TD*%
%TA.AperFunction,ComponentPad*%
%ADD12R,1.600000X1.600000*%
%TD*%
%TA.AperFunction,ComponentPad*%
%ADD13C,1.600000*%
%TD*%
%TA.AperFunction,ComponentPad*%
%ADD14C,1.200000*%
%TD*%
%TA.AperFunction,ComponentPad*%
%ADD15R,1.700000X1.700000*%
%TD*%
%TA.AperFunction,ComponentPad*%
%ADD16O,1.700000X1.700000*%
%TD*%
%TA.AperFunction,ComponentPad*%
%ADD17O,2.100000X1.000000*%
%TD*%
%TA.AperFunction,ComponentPad*%
%ADD18O,1.600000X1.000000*%
%TD*%
%TA.AperFunction,ComponentPad*%
%ADD19RoundRect,0.760000X-1.140000X1.140000X-1.140000X-1.140000X1.140000X-1.140000X1.140000X1.140000X0*%
%TD*%
%TA.AperFunction,ComponentPad*%
%ADD20C,3.800000*%
%TD*%
%TA.AperFunction,ComponentPad*%
%ADD21RoundRect,0.250000X-0.600000X-0.725000X0.600000X-0.725000X0.600000X0.725000X-0.600000X0.725000X0*%
%TD*%
%TA.AperFunction,ComponentPad*%
%ADD22O,1.700000X1.950000*%
%TD*%
%TA.AperFunction,ViaPad*%
%ADD23C,0.600000*%
%TD*%
%TA.AperFunction,ViaPad*%
%ADD24C,0.800000*%
%TD*%
%TA.AperFunction,ViaPad*%
%ADD25C,2.000000*%
%TD*%
%TA.AperFunction,ViaPad*%
%ADD26C,2.500000*%
%TD*%
%TA.AperFunction,ViaPad*%
%ADD27C,1.000000*%
%TD*%
G04 APERTURE END LIST*
D10*
%TO.N,+3.3V*%
%TO.C,J8*%
X182180000Y-147019000D03*
D11*
%TO.N,SYS_SWCLK*%
X182180000Y-144519000D03*
%TO.N,GND*%
X182180000Y-142019000D03*
%TO.N,SYS_SWDIO*%
X182180000Y-139519000D03*
%TD*%
D12*
%TO.N,+5V*%
%TO.C,C29*%
X157051000Y-104954380D03*
D13*
%TO.N,GND*%
X157051000Y-102454380D03*
%TD*%
D14*
%TO.N,*%
%TO.C,SW3*%
X185245000Y-103645000D03*
X183445000Y-103645000D03*
%TD*%
D15*
%TO.N,BLE_UART_CTS*%
%TO.C,J10*%
X176403000Y-118618000D03*
D16*
%TO.N,BLE_UART_RTS*%
X176403000Y-121158000D03*
%TO.N,BLE_UART_TX*%
X176403000Y-123698000D03*
%TO.N,BLE_UART_RX*%
X176403000Y-126238000D03*
%TO.N,GND*%
X176403000Y-128778000D03*
%TD*%
D15*
%TO.N,+5V*%
%TO.C,J2*%
X132075000Y-140589000D03*
D16*
%TO.N,VBUS*%
X134615000Y-140589000D03*
%TD*%
D17*
%TO.N,unconnected-(J3-SHIELD-PadS1)_3*%
%TO.C,J3*%
X137115000Y-129030000D03*
D18*
%TO.N,unconnected-(J3-SHIELD-PadS1)_1*%
X132935000Y-129030000D03*
D17*
%TO.N,unconnected-(J3-SHIELD-PadS1)_2*%
X137115000Y-137670000D03*
D18*
%TO.N,unconnected-(J3-SHIELD-PadS1)*%
X132935000Y-137670000D03*
%TD*%
D12*
%TO.N,+5V*%
%TO.C,C32*%
X170767000Y-104954380D03*
D13*
%TO.N,GND*%
X170767000Y-102454380D03*
%TD*%
D10*
%TO.N,GND*%
%TO.C,J4*%
X163401000Y-110510000D03*
D11*
%TO.N,CAN1_L*%
X163401000Y-108010000D03*
%TO.N,+5V*%
X163401000Y-105510000D03*
%TO.N,CAN1_H*%
X163401000Y-103010000D03*
%TD*%
D14*
%TO.N,*%
%TO.C,SW1*%
X154257000Y-118250000D03*
X154257000Y-116450000D03*
%TD*%
%TO.N,LED_A_DRV*%
%TO.C,U5*%
X140895000Y-140285000D03*
%TO.N,LED_F_DRV*%
X140895000Y-142285000D03*
%TO.N,LED_G_DRV*%
X140895000Y-144285000D03*
%TO.N,LED_E_DRV*%
X140895000Y-146285000D03*
%TO.N,LED_D_DRV*%
X140895000Y-148285000D03*
%TO.N,LED_DP_DRV*%
X145775000Y-148285000D03*
%TO.N,+3.3V*%
X145775000Y-146285000D03*
%TO.N,LED_C_DRV*%
X145775000Y-144285000D03*
%TO.N,+3.3V*%
X145775000Y-142285000D03*
%TO.N,LED_B_DRV*%
X145775000Y-140285000D03*
%TD*%
D19*
%TO.N,GND*%
%TO.C,J1*%
X133683000Y-111432000D03*
D20*
%TO.N,+BATT*%
X133683000Y-116432000D03*
%TD*%
D10*
%TO.N,USART3_RX*%
%TO.C,J6*%
X168481000Y-147039000D03*
D11*
%TO.N,+3.3V*%
X168481000Y-144539000D03*
%TO.N,USART3_TX*%
X168481000Y-142039000D03*
%TO.N,GND*%
X168481000Y-139539000D03*
%TD*%
D10*
%TO.N,I2C4_SCL*%
%TO.C,J7*%
X175339000Y-147039000D03*
D11*
%TO.N,+3.3V*%
X175339000Y-144539000D03*
%TO.N,I2C4_SDA*%
X175339000Y-142039000D03*
%TO.N,GND*%
X175339000Y-139539000D03*
%TD*%
D21*
%TO.N,SPI3_MOSI*%
%TO.C,J9*%
X150106000Y-146063000D03*
D22*
%TO.N,+3.3V*%
X152606000Y-146063000D03*
%TO.N,SPI3_MISO*%
X155106000Y-146063000D03*
%TO.N,GND*%
X157606000Y-146063000D03*
%TO.N,SPI3_SCK*%
X160106000Y-146063000D03*
%TO.N,SPI3_CS*%
X162606000Y-146063000D03*
%TD*%
D10*
%TO.N,GND*%
%TO.C,J5*%
X177100000Y-110510000D03*
D11*
%TO.N,CAN2_L*%
X177100000Y-108010000D03*
%TO.N,+5V*%
X177100000Y-105510000D03*
%TO.N,CAN2_H*%
X177100000Y-103010000D03*
%TD*%
D23*
%TO.N,GND*%
X188877200Y-136030000D03*
X156162000Y-127597200D03*
X171452800Y-110782400D03*
X157889200Y-107632800D03*
X178361600Y-125819200D03*
X178310800Y-127546400D03*
X170233600Y-122415600D03*
X190452000Y-110122000D03*
X188166000Y-107582000D03*
X189436000Y-107582000D03*
X181054000Y-108090000D03*
X186261000Y-110122000D03*
X178387000Y-118250000D03*
X178381998Y-120028000D03*
X178381998Y-122009200D03*
X178387000Y-123965000D03*
X190452000Y-136919000D03*
X146002000Y-133871000D03*
X175088174Y-132720696D03*
X178895000Y-134252000D03*
X182451000Y-137808000D03*
X184356000Y-134252000D03*
X187023000Y-134252000D03*
X186388000Y-136030000D03*
X136985000Y-148730000D03*
X148034000Y-144285000D03*
X193500000Y-137300000D03*
X189690000Y-130950000D03*
X189690000Y-128410000D03*
X189690000Y-120790000D03*
X190604400Y-115405200D03*
X190604400Y-114516200D03*
X190452000Y-111646000D03*
X189055000Y-109995000D03*
X156111200Y-107302600D03*
X174704000Y-107328000D03*
X184508400Y-141110000D03*
X164086800Y-135776000D03*
X156822400Y-122034600D03*
X150726400Y-119723200D03*
X154638000Y-122060000D03*
X141811000Y-131026200D03*
X139575800Y-134226600D03*
X151386800Y-136741200D03*
X150675600Y-144386600D03*
X172824400Y-140449600D03*
X172468800Y-147155200D03*
X189690000Y-125870000D03*
X189690000Y-123330000D03*
X190960000Y-125870000D03*
X190909200Y-130950000D03*
X190960000Y-128410000D03*
X191010800Y-120739200D03*
X191010800Y-122060000D03*
X191061600Y-119520000D03*
X178260000Y-115760800D03*
X180139600Y-132016800D03*
X171204015Y-126375368D03*
X174653200Y-117945200D03*
X174551600Y-120434400D03*
X174602400Y-125565200D03*
X174551600Y-122974400D03*
X161242000Y-108344000D03*
X148796000Y-100470000D03*
X141430000Y-100470000D03*
X137112000Y-106820000D03*
X137112000Y-109106000D03*
X154130000Y-107836000D03*
X154130000Y-111392000D03*
X159718000Y-118758000D03*
X160734000Y-115202000D03*
X159972000Y-111646000D03*
X174450000Y-114694000D03*
X169116000Y-131966000D03*
X168100000Y-134125000D03*
X179530000Y-140475000D03*
X177625000Y-149365000D03*
X174450000Y-149365000D03*
X171275000Y-149365000D03*
X168100000Y-149365000D03*
X134935000Y-129832400D03*
X135486400Y-126581200D03*
X148415000Y-135141000D03*
X192357000Y-116218000D03*
X193246000Y-115837000D03*
X190706000Y-107709000D03*
X193246000Y-143650000D03*
X193500000Y-141745000D03*
X193500000Y-138824000D03*
X193500000Y-140348000D03*
X193246000Y-105550000D03*
X193246000Y-106820000D03*
X193246000Y-108090000D03*
X193246000Y-109360000D03*
X193246000Y-110630000D03*
X193246000Y-111900000D03*
X193246000Y-113170000D03*
X193246000Y-114059000D03*
X193246000Y-136157000D03*
X193246000Y-135014000D03*
X192230000Y-130950000D03*
X192230000Y-128410000D03*
X192230000Y-120790000D03*
X193500000Y-119520000D03*
X193500000Y-120790000D03*
X193500000Y-122060000D03*
X193500000Y-128410000D03*
X193500000Y-130950000D03*
X193500000Y-129680000D03*
X193500000Y-127140000D03*
X135080000Y-132220000D03*
X192230000Y-127140000D03*
X186705500Y-111582500D03*
X187023000Y-112789000D03*
X142192000Y-144412000D03*
X182451000Y-111773000D03*
X152098000Y-125489000D03*
X179530000Y-116980000D03*
X179530000Y-110249000D03*
X184610000Y-127140000D03*
X150320000Y-148730000D03*
X144478000Y-140094000D03*
X139177582Y-130122054D03*
X137620000Y-100470000D03*
X160480000Y-128410000D03*
X189690000Y-127140000D03*
X189690000Y-129680000D03*
X130863600Y-143421400D03*
X131270000Y-132220000D03*
X169573200Y-116014800D03*
X157940000Y-148730000D03*
X138890000Y-146190000D03*
X163020000Y-148730000D03*
X142877800Y-136893600D03*
X164925000Y-118631000D03*
X182451000Y-116218000D03*
X184610000Y-122060000D03*
X179530000Y-136030000D03*
X153495000Y-134252000D03*
X192230000Y-129680000D03*
X152250400Y-126886000D03*
X167338000Y-126251000D03*
X187150000Y-122060000D03*
X154130000Y-114440000D03*
X184610000Y-119520000D03*
X179530000Y-112408000D03*
X136172200Y-143497600D03*
X177040800Y-145885200D03*
X179530000Y-103010000D03*
X156111200Y-120536000D03*
X154003000Y-123584000D03*
X154130000Y-103010000D03*
X184356000Y-143396000D03*
X165560000Y-148730000D03*
X182070000Y-122060000D03*
X171910000Y-100470000D03*
X192230000Y-142380000D03*
X192230000Y-119520000D03*
X182070000Y-129680000D03*
X163020000Y-125870000D03*
X151971000Y-109868000D03*
X160480000Y-148730000D03*
X184610000Y-136030000D03*
X141226800Y-136792000D03*
X193246000Y-114948000D03*
X193246000Y-100419200D03*
X160480000Y-116980000D03*
X147780000Y-148730000D03*
X164747200Y-139535200D03*
X187023000Y-115964000D03*
X159819600Y-134404400D03*
X182070000Y-119520000D03*
X155400000Y-148730000D03*
X182070000Y-127140000D03*
X138890000Y-148730000D03*
X144351000Y-127775000D03*
X187150000Y-127140000D03*
X156035000Y-111265000D03*
X145240000Y-119520000D03*
X179530000Y-108090000D03*
X163020000Y-113170000D03*
X185499000Y-111265000D03*
X139398000Y-120840800D03*
X182324000Y-114313000D03*
X179530000Y-105550000D03*
X131270000Y-129680000D03*
X136350000Y-120790000D03*
X131270000Y-137300000D03*
X187023000Y-115329000D03*
X168100000Y-100470000D03*
X179530000Y-100470000D03*
X182324000Y-115583000D03*
X131270000Y-127140000D03*
X163020000Y-141110000D03*
X156212800Y-123685600D03*
D24*
X140668000Y-123838000D03*
D23*
X163020000Y-128410000D03*
X160480000Y-123330000D03*
X184610000Y-148730000D03*
X152352000Y-123965000D03*
X157584400Y-118707200D03*
X170640000Y-136030000D03*
X187150000Y-119520000D03*
X135080000Y-136030000D03*
X168100000Y-103010000D03*
X187150000Y-129680000D03*
X164290000Y-100470000D03*
D25*
X139893000Y-108723000D03*
D23*
X180952400Y-145682000D03*
X157683047Y-112862671D03*
X136350000Y-139840000D03*
X160480000Y-100470000D03*
X151590000Y-114440000D03*
X158041600Y-121298000D03*
X181968400Y-134404400D03*
X183594000Y-111265000D03*
X167338000Y-130569000D03*
X174450000Y-127140000D03*
X142192000Y-139840000D03*
X167947600Y-137452400D03*
X153266400Y-127978200D03*
X143970000Y-100470000D03*
X160480000Y-130950000D03*
X169217600Y-143243600D03*
X147653000Y-132982000D03*
X152860000Y-148730000D03*
D26*
X186182000Y-124320000D03*
D23*
X163020000Y-123330000D03*
X146510000Y-137300000D03*
X184610000Y-139332000D03*
X163020000Y-130950000D03*
X186743600Y-149339600D03*
X156670000Y-134353600D03*
X187150000Y-100470000D03*
X192230000Y-122060000D03*
X146510000Y-127140000D03*
X142700000Y-134760000D03*
X182070000Y-124600000D03*
X157940000Y-137300000D03*
X131270000Y-108090000D03*
X143970000Y-148730000D03*
X182324000Y-113043000D03*
X160480000Y-125870000D03*
X173180000Y-136030000D03*
X154130000Y-100470000D03*
X131270000Y-134760000D03*
X136350000Y-123330000D03*
X167338000Y-128537000D03*
X164747200Y-137503200D03*
X182070000Y-148730000D03*
X143970000Y-146190000D03*
X189690000Y-122060000D03*
X151590000Y-103010000D03*
X166830000Y-108090000D03*
X153876000Y-132474000D03*
X166677600Y-111849200D03*
X177345600Y-137350800D03*
X169268400Y-119875600D03*
X156314400Y-130442000D03*
X146510000Y-100470000D03*
X150320000Y-127902000D03*
X175720000Y-100470000D03*
X169370000Y-111900000D03*
X193347600Y-133845600D03*
X189690000Y-119520000D03*
X189944000Y-134506000D03*
X193347600Y-149390400D03*
X142700000Y-119520000D03*
X157940000Y-142380000D03*
X151590000Y-100470000D03*
X136350000Y-114440000D03*
X170182800Y-147206000D03*
X146764000Y-145478800D03*
X167846000Y-122415600D03*
X137620000Y-103010000D03*
X187023000Y-114059000D03*
X148288000Y-130442000D03*
X142700000Y-118250000D03*
X142700000Y-142380000D03*
X131270000Y-119520000D03*
X189690000Y-124600000D03*
D25*
%TO.N,+BATT*%
X139893000Y-113303000D03*
%TO.N,+5V*%
X141043000Y-105283000D03*
D27*
X141176000Y-103645000D03*
X142319000Y-127140000D03*
D23*
%TO.N,SYS_SWDIO*%
X167617400Y-123355400D03*
%TO.N,SYS_SWCLK*%
X166937186Y-123776485D03*
%TO.N,+3.3V*%
X158549600Y-119672400D03*
X187277000Y-109310000D03*
D24*
X153876000Y-121475800D03*
X164096200Y-136781000D03*
D23*
X154536400Y-136461800D03*
X143716000Y-136766600D03*
X147145000Y-133998000D03*
X164925000Y-119520000D03*
X191341000Y-108725000D03*
X174018200Y-109029800D03*
D24*
X155781000Y-132499400D03*
D23*
X160276800Y-109080600D03*
%TO.N,SPI3_SCK*%
X165822000Y-124954662D03*
%TO.N,DIP_3*%
X155718544Y-129203934D03*
X132692400Y-124650800D03*
%TO.N,DIP_4*%
X132692400Y-125946200D03*
X156416000Y-129595800D03*
%TO.N,DIP_2*%
X132717800Y-123355400D03*
X155008932Y-128834537D03*
%TO.N,DIP_1*%
X154277915Y-128500600D03*
X132692400Y-122187000D03*
%TO.N,SPI3_CS*%
X166360986Y-124361750D03*
%TO.N,Net-(U7-USBDM)*%
X139255002Y-133134400D03*
X145774106Y-131116858D03*
%TO.N,I2C4_SDA*%
X172408045Y-130782155D03*
%TO.N,Net-(U7-USBDP)*%
X136804998Y-133490000D03*
X146399106Y-130371039D03*
%TO.N,SPI3_MISO*%
X165469600Y-125732711D03*
%TO.N,I2C4_SCL*%
X171605000Y-130770418D03*
%TO.N,SPI3_MOSI*%
X165117200Y-126461812D03*
%TO.N,LED_B_DRV*%
X150696000Y-142356660D03*
%TO.N,LED_D_DRV*%
X150696000Y-140903941D03*
%TO.N,LED_DP_DRV*%
X150707985Y-137992615D03*
%TO.N,LED_F_DRV*%
X150704708Y-139507000D03*
D24*
%TO.N,BLE_UART_RX_LED*%
X192280800Y-134023400D03*
X186362600Y-138925600D03*
D23*
%TO.N,BLE_UART_RX*%
X181181000Y-116141800D03*
%TO.N,BLE_STATUS_LED*%
X192103000Y-115202000D03*
X188928000Y-116091000D03*
%TO.N,BLE_UART_MODE*%
X190680600Y-133617000D03*
X170489815Y-126735816D03*
%TO.N,BLE_UART_CTS*%
X177879000Y-129984800D03*
%TO.N,Net-(D13-K)*%
X151564600Y-132347000D03*
X145695062Y-136401000D03*
%TO.N,GND*%
X190960000Y-127140000D03*
X190909200Y-129680000D03*
X180927000Y-113551000D03*
X147780000Y-119520000D03*
X154003000Y-144818400D03*
X165560000Y-144920000D03*
%TD*%
%TA.AperFunction,Conductor*%
%TO.N,GND*%
G36*
X193866648Y-100014352D02*
G01*
X193881000Y-100049000D01*
X193881000Y-104951000D01*
X193866648Y-104985648D01*
X193832000Y-105000000D01*
X193832000Y-122853252D01*
X193817648Y-122887900D01*
X193783000Y-122902252D01*
X193750974Y-122889681D01*
X193750740Y-122889976D01*
X193749786Y-122889215D01*
X193749668Y-122889169D01*
X193749310Y-122888837D01*
X193749307Y-122888833D01*
X193748137Y-122887900D01*
X193541895Y-122723427D01*
X193541894Y-122723426D01*
X193312147Y-122590781D01*
X193065191Y-122493858D01*
X192806553Y-122434825D01*
X192806544Y-122434824D01*
X192542000Y-122415000D01*
X192277455Y-122434824D01*
X192277446Y-122434825D01*
X192018808Y-122493858D01*
X191771852Y-122590781D01*
X191542105Y-122723426D01*
X191542104Y-122723427D01*
X191334692Y-122888833D01*
X191154250Y-123083304D01*
X191154248Y-123083306D01*
X191004803Y-123302502D01*
X190889701Y-123541513D01*
X190889696Y-123541526D01*
X190841431Y-123698000D01*
X190811503Y-123795025D01*
X190771963Y-124057354D01*
X190771963Y-124322646D01*
X190811503Y-124584975D01*
X190831808Y-124650802D01*
X190889696Y-124838473D01*
X190889701Y-124838486D01*
X191004803Y-125077497D01*
X191137929Y-125272758D01*
X191154249Y-125296694D01*
X191334693Y-125491167D01*
X191337513Y-125493416D01*
X191542104Y-125656572D01*
X191542105Y-125656573D01*
X191771852Y-125789218D01*
X191771853Y-125789218D01*
X191771856Y-125789220D01*
X192018810Y-125886142D01*
X192277450Y-125945175D01*
X192542000Y-125965000D01*
X192806550Y-125945175D01*
X193065190Y-125886142D01*
X193312144Y-125789220D01*
X193541893Y-125656574D01*
X193749307Y-125491167D01*
X193749317Y-125491155D01*
X193749668Y-125490831D01*
X193749780Y-125490789D01*
X193750740Y-125490024D01*
X193750991Y-125490339D01*
X193784828Y-125477782D01*
X193818917Y-125493416D01*
X193832000Y-125526748D01*
X193832000Y-145000000D01*
X193866648Y-145014352D01*
X193881000Y-145049000D01*
X193881000Y-149951000D01*
X193866648Y-149985648D01*
X193832000Y-150000000D01*
X133000330Y-150000000D01*
X132999643Y-149999995D01*
X132834065Y-149997673D01*
X132829266Y-149997370D01*
X132499815Y-149960250D01*
X132494397Y-149959329D01*
X132171522Y-149885635D01*
X132166242Y-149884114D01*
X131853638Y-149774729D01*
X131848562Y-149772626D01*
X131550182Y-149628934D01*
X131545372Y-149626276D01*
X131264950Y-149450075D01*
X131260469Y-149446896D01*
X131001532Y-149240401D01*
X130997435Y-149236739D01*
X130763260Y-149002564D01*
X130759598Y-148998467D01*
X130553103Y-148739530D01*
X130549924Y-148735049D01*
X130373723Y-148454627D01*
X130371065Y-148449817D01*
X130323236Y-148350499D01*
X130227371Y-148151433D01*
X130225270Y-148146361D01*
X130211060Y-148105750D01*
X130115883Y-147833750D01*
X130114364Y-147828477D01*
X130090449Y-147723699D01*
X130040669Y-147505597D01*
X130039749Y-147500184D01*
X130011982Y-147253747D01*
X130002628Y-147170729D01*
X130002326Y-147165934D01*
X130001269Y-147090564D01*
X130000005Y-147000356D01*
X130000000Y-146999669D01*
X130000000Y-146378712D01*
X131649500Y-146378712D01*
X131649500Y-146621288D01*
X131681162Y-146861789D01*
X131681163Y-146861793D01*
X131681164Y-146861800D01*
X131743944Y-147096095D01*
X131743946Y-147096101D01*
X131836776Y-147320213D01*
X131958062Y-147530286D01*
X131958072Y-147530301D01*
X132105730Y-147722732D01*
X132105740Y-147722744D01*
X132277255Y-147894259D01*
X132277267Y-147894269D01*
X132469698Y-148041927D01*
X132469707Y-148041933D01*
X132469711Y-148041936D01*
X132679788Y-148163224D01*
X132903900Y-148256054D01*
X132903904Y-148256055D01*
X133138199Y-148318835D01*
X133138200Y-148318835D01*
X133138211Y-148318838D01*
X133378712Y-148350500D01*
X133378716Y-148350500D01*
X133621284Y-148350500D01*
X133621288Y-148350500D01*
X133861789Y-148318838D01*
X133988073Y-148285000D01*
X140089435Y-148285000D01*
X140109631Y-148464249D01*
X140109633Y-148464258D01*
X140169212Y-148634526D01*
X140265182Y-148787259D01*
X140265184Y-148787262D01*
X140392738Y-148914816D01*
X140392740Y-148914817D01*
X140545473Y-149010787D01*
X140545477Y-149010788D01*
X140545478Y-149010789D01*
X140715745Y-149070368D01*
X140895000Y-149090565D01*
X141074255Y-149070368D01*
X141244522Y-149010789D01*
X141244524Y-149010787D01*
X141244526Y-149010787D01*
X141300596Y-148975555D01*
X141397262Y-148914816D01*
X141524816Y-148787262D01*
X141585555Y-148690596D01*
X141620787Y-148634526D01*
X141620787Y-148634524D01*
X141620789Y-148634522D01*
X141680368Y-148464255D01*
X141700565Y-148285000D01*
X144969435Y-148285000D01*
X144989631Y-148464249D01*
X144989633Y-148464258D01*
X145049212Y-148634526D01*
X145145182Y-148787259D01*
X145145184Y-148787262D01*
X145272738Y-148914816D01*
X145272740Y-148914817D01*
X145425473Y-149010787D01*
X145425477Y-149010788D01*
X145425478Y-149010789D01*
X145595745Y-149070368D01*
X145775000Y-149090565D01*
X145954255Y-149070368D01*
X146124522Y-149010789D01*
X146124524Y-149010787D01*
X146124526Y-149010787D01*
X146180596Y-148975555D01*
X146277262Y-148914816D01*
X146404816Y-148787262D01*
X146465555Y-148690596D01*
X146500787Y-148634526D01*
X146500787Y-148634524D01*
X146500789Y-148634522D01*
X146560368Y-148464255D01*
X146580565Y-148285000D01*
X146560368Y-148105745D01*
X146500789Y-147935478D01*
X146500788Y-147935477D01*
X146500787Y-147935473D01*
X146404817Y-147782740D01*
X146404816Y-147782738D01*
X146277262Y-147655184D01*
X146277259Y-147655182D01*
X146124526Y-147559212D01*
X145954258Y-147499633D01*
X145954257Y-147499632D01*
X145954255Y-147499632D01*
X145954251Y-147499631D01*
X145954249Y-147499631D01*
X145775000Y-147479435D01*
X145595750Y-147499631D01*
X145595741Y-147499633D01*
X145425473Y-147559212D01*
X145272740Y-147655182D01*
X145272736Y-147655185D01*
X145145185Y-147782736D01*
X145145182Y-147782740D01*
X145049212Y-147935473D01*
X144989633Y-148105741D01*
X144989631Y-148105750D01*
X144969435Y-148285000D01*
X141700565Y-148285000D01*
X141680368Y-148105745D01*
X141620789Y-147935478D01*
X141620788Y-147935477D01*
X141620787Y-147935473D01*
X141524817Y-147782740D01*
X141524816Y-147782738D01*
X141397262Y-147655184D01*
X141397259Y-147655182D01*
X141244526Y-147559212D01*
X141074258Y-147499633D01*
X141074257Y-147499632D01*
X141074255Y-147499632D01*
X141074251Y-147499631D01*
X141074249Y-147499631D01*
X140895000Y-147479435D01*
X140715750Y-147499631D01*
X140715741Y-147499633D01*
X140545473Y-147559212D01*
X140392740Y-147655182D01*
X140392736Y-147655185D01*
X140265185Y-147782736D01*
X140265182Y-147782740D01*
X140169212Y-147935473D01*
X140109633Y-148105741D01*
X140109631Y-148105750D01*
X140089435Y-148285000D01*
X133988073Y-148285000D01*
X134096100Y-148256054D01*
X134320212Y-148163224D01*
X134530289Y-148041936D01*
X134530476Y-148041793D01*
X134579579Y-148004113D01*
X134722738Y-147894265D01*
X134894265Y-147722738D01*
X135019743Y-147559212D01*
X135041927Y-147530301D01*
X135041928Y-147530298D01*
X135041936Y-147530289D01*
X135163224Y-147320212D01*
X135256054Y-147096100D01*
X135318838Y-146861789D01*
X135350500Y-146621288D01*
X135350500Y-146378712D01*
X135338163Y-146285000D01*
X140089435Y-146285000D01*
X140109631Y-146464249D01*
X140109633Y-146464258D01*
X140169212Y-146634526D01*
X140265182Y-146787259D01*
X140265184Y-146787262D01*
X140392738Y-146914816D01*
X140392740Y-146914817D01*
X140545473Y-147010787D01*
X140545477Y-147010788D01*
X140545478Y-147010789D01*
X140715745Y-147070368D01*
X140895000Y-147090565D01*
X141074255Y-147070368D01*
X141244522Y-147010789D01*
X141244524Y-147010787D01*
X141244526Y-147010787D01*
X141300596Y-146975555D01*
X141397262Y-146914816D01*
X141524816Y-146787262D01*
X141588697Y-146685596D01*
X141620787Y-146634526D01*
X141620787Y-146634524D01*
X141620789Y-146634522D01*
X141680368Y-146464255D01*
X141700565Y-146285000D01*
X144969435Y-146285000D01*
X144989631Y-146464249D01*
X144989633Y-146464258D01*
X145049212Y-146634526D01*
X145145182Y-146787259D01*
X145145184Y-146787262D01*
X145272738Y-146914816D01*
X145272740Y-146914817D01*
X145425473Y-147010787D01*
X145425477Y-147010788D01*
X145425478Y-147010789D01*
X145595745Y-147070368D01*
X145775000Y-147090565D01*
X145954255Y-147070368D01*
X146124522Y-147010789D01*
X146124524Y-147010787D01*
X146124526Y-147010787D01*
X146180596Y-146975555D01*
X146277262Y-146914816D01*
X146404816Y-146787262D01*
X146468697Y-146685596D01*
X146500787Y-146634526D01*
X146500787Y-146634524D01*
X146500789Y-146634522D01*
X146560368Y-146464255D01*
X146580565Y-146285000D01*
X146560368Y-146105745D01*
X146500789Y-145935478D01*
X146500788Y-145935477D01*
X146500787Y-145935473D01*
X146404817Y-145782740D01*
X146404816Y-145782738D01*
X146277262Y-145655184D01*
X146239700Y-145631582D01*
X146124526Y-145559212D01*
X145954258Y-145499633D01*
X145954257Y-145499632D01*
X145954255Y-145499632D01*
X145954251Y-145499631D01*
X145954249Y-145499631D01*
X145775000Y-145479435D01*
X145595750Y-145499631D01*
X145595741Y-145499633D01*
X145425473Y-145559212D01*
X145272740Y-145655182D01*
X145272736Y-145655185D01*
X145145185Y-145782736D01*
X145145182Y-145782740D01*
X145049212Y-145935473D01*
X144989633Y-146105741D01*
X144989631Y-146105750D01*
X144969435Y-146285000D01*
X141700565Y-146285000D01*
X141680368Y-146105745D01*
X141620789Y-145935478D01*
X141620788Y-145935477D01*
X141620787Y-145935473D01*
X141524817Y-145782740D01*
X141524816Y-145782738D01*
X141397262Y-145655184D01*
X141359700Y-145631582D01*
X141244526Y-145559212D01*
X141074258Y-145499633D01*
X141074257Y-145499632D01*
X141074255Y-145499632D01*
X141074251Y-145499631D01*
X141074249Y-145499631D01*
X140895000Y-145479435D01*
X140715750Y-145499631D01*
X140715741Y-145499633D01*
X140545473Y-145559212D01*
X140392740Y-145655182D01*
X140392736Y-145655185D01*
X140265185Y-145782736D01*
X140265182Y-145782740D01*
X140169212Y-145935473D01*
X140109633Y-146105741D01*
X140109631Y-146105750D01*
X140089435Y-146285000D01*
X135338163Y-146285000D01*
X135318838Y-146138211D01*
X135315441Y-146125535D01*
X135256055Y-145903904D01*
X135256053Y-145903898D01*
X135218402Y-145812999D01*
X135163224Y-145679788D01*
X135156826Y-145668707D01*
X135041937Y-145469713D01*
X135041927Y-145469698D01*
X134899224Y-145283724D01*
X149055500Y-145283724D01*
X149055500Y-146842275D01*
X149058353Y-146872698D01*
X149058353Y-146872699D01*
X149103204Y-147000876D01*
X149103208Y-147000885D01*
X149183849Y-147110150D01*
X149293114Y-147190791D01*
X149293117Y-147190792D01*
X149293118Y-147190793D01*
X149293120Y-147190793D01*
X149293123Y-147190795D01*
X149421301Y-147235646D01*
X149451734Y-147238500D01*
X149451744Y-147238500D01*
X150760256Y-147238500D01*
X150760266Y-147238500D01*
X150790699Y-147235646D01*
X150918882Y-147190793D01*
X150944933Y-147171567D01*
X151028150Y-147110150D01*
X151108791Y-147000885D01*
X151108791Y-147000884D01*
X151108793Y-147000882D01*
X151153646Y-146872699D01*
X151156500Y-146842266D01*
X151156500Y-145834535D01*
X151555500Y-145834535D01*
X151555500Y-146291465D01*
X151572855Y-146378715D01*
X151595869Y-146494417D01*
X151595871Y-146494423D01*
X151653902Y-146634522D01*
X151675059Y-146685598D01*
X151790023Y-146857655D01*
X151936345Y-147003977D01*
X152108402Y-147118941D01*
X152299580Y-147198130D01*
X152502535Y-147238500D01*
X152502538Y-147238500D01*
X152709462Y-147238500D01*
X152709465Y-147238500D01*
X152912420Y-147198130D01*
X153103598Y-147118941D01*
X153275655Y-147003977D01*
X153421977Y-146857655D01*
X153536941Y-146685598D01*
X153616130Y-146494420D01*
X153656500Y-146291465D01*
X153656500Y-145834535D01*
X154055500Y-145834535D01*
X154055500Y-146291465D01*
X154072855Y-146378715D01*
X154095869Y-146494417D01*
X154095871Y-146494423D01*
X154153902Y-146634522D01*
X154175059Y-146685598D01*
X154290023Y-146857655D01*
X154436345Y-147003977D01*
X154608402Y-147118941D01*
X154799580Y-147198130D01*
X155002535Y-147238500D01*
X155002538Y-147238500D01*
X155209462Y-147238500D01*
X155209465Y-147238500D01*
X155412420Y-147198130D01*
X155603598Y-147118941D01*
X155775655Y-147003977D01*
X155921977Y-146857655D01*
X156036941Y-146685598D01*
X156116130Y-146494420D01*
X156156500Y-146291465D01*
X156156500Y-145834535D01*
X156152216Y-145812999D01*
X156461462Y-145812999D01*
X156461463Y-145813000D01*
X157201854Y-145813000D01*
X157163370Y-145879657D01*
X157131000Y-146000465D01*
X157131000Y-146125535D01*
X157163370Y-146246343D01*
X157201854Y-146313000D01*
X156461463Y-146313000D01*
X156484316Y-146457289D01*
X156484317Y-146457292D01*
X156540252Y-146629445D01*
X156622432Y-146790730D01*
X156728830Y-146937176D01*
X156728834Y-146937181D01*
X156856819Y-147065166D01*
X156856823Y-147065169D01*
X157003269Y-147171567D01*
X157164554Y-147253747D01*
X157336708Y-147309682D01*
X157336712Y-147309683D01*
X157356000Y-147312738D01*
X157356000Y-146467145D01*
X157422657Y-146505630D01*
X157543465Y-146538000D01*
X157668535Y-146538000D01*
X157789343Y-146505630D01*
X157856000Y-146467145D01*
X157856000Y-147312737D01*
X157875287Y-147309683D01*
X157875291Y-147309682D01*
X158047445Y-147253747D01*
X158208730Y-147171567D01*
X158355176Y-147065169D01*
X158355181Y-147065166D01*
X158483166Y-146937181D01*
X158483169Y-146937176D01*
X158589567Y-146790730D01*
X158671747Y-146629445D01*
X158727682Y-146457292D01*
X158727683Y-146457289D01*
X158750537Y-146313000D01*
X158010146Y-146313000D01*
X158048630Y-146246343D01*
X158081000Y-146125535D01*
X158081000Y-146000465D01*
X158048630Y-145879657D01*
X158022579Y-145834535D01*
X159055500Y-145834535D01*
X159055500Y-146291465D01*
X159072855Y-146378715D01*
X159095869Y-146494417D01*
X159095871Y-146494423D01*
X159153902Y-146634522D01*
X159175059Y-146685598D01*
X159290023Y-146857655D01*
X159436345Y-147003977D01*
X159608402Y-147118941D01*
X159799580Y-147198130D01*
X160002535Y-147238500D01*
X160002538Y-147238500D01*
X160209462Y-147238500D01*
X160209465Y-147238500D01*
X160412420Y-147198130D01*
X160603598Y-147118941D01*
X160775655Y-147003977D01*
X160921977Y-146857655D01*
X161036941Y-146685598D01*
X161116130Y-146494420D01*
X161156500Y-146291465D01*
X161156500Y-145834535D01*
X161555500Y-145834535D01*
X161555500Y-146291465D01*
X161572855Y-146378715D01*
X161595869Y-146494417D01*
X161595871Y-146494423D01*
X161653902Y-146634522D01*
X161675059Y-146685598D01*
X161790023Y-146857655D01*
X161936345Y-147003977D01*
X162108402Y-147118941D01*
X162299580Y-147198130D01*
X162502535Y-147238500D01*
X162502538Y-147238500D01*
X162709462Y-147238500D01*
X162709465Y-147238500D01*
X162912420Y-147198130D01*
X163103598Y-147118941D01*
X163275655Y-147003977D01*
X163421977Y-146857655D01*
X163536941Y-146685598D01*
X163616130Y-146494420D01*
X163637950Y-146384724D01*
X167305500Y-146384724D01*
X167305500Y-147693275D01*
X167308353Y-147723698D01*
X167308353Y-147723699D01*
X167353204Y-147851876D01*
X167353208Y-147851885D01*
X167433849Y-147961150D01*
X167543114Y-148041791D01*
X167543117Y-148041792D01*
X167543118Y-148041793D01*
X167543120Y-148041793D01*
X167543123Y-148041795D01*
X167622300Y-148069500D01*
X167671301Y-148086646D01*
X167701734Y-148089500D01*
X167701744Y-148089500D01*
X169260256Y-148089500D01*
X169260266Y-148089500D01*
X169290699Y-148086646D01*
X169418882Y-148041793D01*
X169445979Y-148021795D01*
X169528150Y-147961150D01*
X169608791Y-147851885D01*
X169608791Y-147851884D01*
X169608793Y-147851882D01*
X169653646Y-147723699D01*
X169656500Y-147693266D01*
X169656500Y-146384734D01*
X169656499Y-146384724D01*
X174163500Y-146384724D01*
X174163500Y-147693275D01*
X174166353Y-147723698D01*
X174166353Y-147723699D01*
X174211204Y-147851876D01*
X174211208Y-147851885D01*
X174291849Y-147961150D01*
X174401114Y-148041791D01*
X174401117Y-148041792D01*
X174401118Y-148041793D01*
X174401120Y-148041793D01*
X174401123Y-148041795D01*
X174480300Y-148069500D01*
X174529301Y-148086646D01*
X174559734Y-148089500D01*
X174559744Y-148089500D01*
X176118256Y-148089500D01*
X176118266Y-148089500D01*
X176148699Y-148086646D01*
X176276882Y-148041793D01*
X176303979Y-148021795D01*
X176386150Y-147961150D01*
X176466791Y-147851885D01*
X176466791Y-147851884D01*
X176466793Y-147851882D01*
X176511646Y-147723699D01*
X176514500Y-147693266D01*
X176514500Y-146384734D01*
X176512623Y-146364724D01*
X181004500Y-146364724D01*
X181004500Y-147673275D01*
X181007353Y-147703698D01*
X181007353Y-147703699D01*
X181052204Y-147831876D01*
X181052208Y-147831885D01*
X181132849Y-147941150D01*
X181242114Y-148021791D01*
X181242117Y-148021792D01*
X181242118Y-148021793D01*
X181242120Y-148021793D01*
X181242123Y-148021795D01*
X181299686Y-148041937D01*
X181370301Y-148066646D01*
X181400734Y-148069500D01*
X181400744Y-148069500D01*
X182959256Y-148069500D01*
X182959266Y-148069500D01*
X182989699Y-148066646D01*
X183117882Y-148021793D01*
X183227150Y-147941150D01*
X183293030Y-147851885D01*
X183307791Y-147831885D01*
X183307791Y-147831884D01*
X183307793Y-147831882D01*
X183352646Y-147703699D01*
X183355500Y-147673266D01*
X183355500Y-146378712D01*
X188149500Y-146378712D01*
X188149500Y-146621288D01*
X188181162Y-146861789D01*
X188181163Y-146861793D01*
X188181164Y-146861800D01*
X188243944Y-147096095D01*
X188243946Y-147096101D01*
X188336776Y-147320213D01*
X188458062Y-147530286D01*
X188458072Y-147530301D01*
X188605730Y-147722732D01*
X188605740Y-147722744D01*
X188777255Y-147894259D01*
X188777267Y-147894269D01*
X188969698Y-148041927D01*
X188969707Y-148041933D01*
X188969711Y-148041936D01*
X189179788Y-148163224D01*
X189403900Y-148256054D01*
X189403904Y-148256055D01*
X189638199Y-148318835D01*
X189638200Y-148318835D01*
X189638211Y-148318838D01*
X189878712Y-148350500D01*
X189878716Y-148350500D01*
X190121284Y-148350500D01*
X190121288Y-148350500D01*
X190361789Y-148318838D01*
X190596100Y-148256054D01*
X190820212Y-148163224D01*
X191030289Y-148041936D01*
X191030476Y-148041793D01*
X191079579Y-148004113D01*
X191222738Y-147894265D01*
X191394265Y-147722738D01*
X191519743Y-147559212D01*
X191541927Y-147530301D01*
X191541928Y-147530298D01*
X191541936Y-147530289D01*
X191663224Y-147320212D01*
X191756054Y-147096100D01*
X191818838Y-146861789D01*
X191850500Y-146621288D01*
X191850500Y-146378712D01*
X191818838Y-146138211D01*
X191815441Y-146125535D01*
X191756055Y-145903904D01*
X191756053Y-145903898D01*
X191718402Y-145812999D01*
X191663224Y-145679788D01*
X191656826Y-145668707D01*
X191541937Y-145469713D01*
X191541927Y-145469698D01*
X191394269Y-145277267D01*
X191394259Y-145277255D01*
X191222744Y-145105740D01*
X191222732Y-145105730D01*
X191030301Y-144958072D01*
X191030286Y-144958062D01*
X190820212Y-144836776D01*
X190820213Y-144836776D01*
X190596101Y-144743946D01*
X190596095Y-144743944D01*
X190361800Y-144681164D01*
X190361793Y-144681163D01*
X190361789Y-144681162D01*
X190121288Y-144649500D01*
X189878712Y-144649500D01*
X189638211Y-144681162D01*
X189638207Y-144681162D01*
X189638199Y-144681164D01*
X189403904Y-144743944D01*
X189403898Y-144743946D01*
X189179786Y-144836776D01*
X188969713Y-144958062D01*
X188969698Y-144958072D01*
X188777267Y-145105730D01*
X188777255Y-145105740D01*
X188605740Y-145277255D01*
X188605730Y-145277267D01*
X188458072Y-145469698D01*
X188458062Y-145469713D01*
X188336776Y-145679786D01*
X188243946Y-145903898D01*
X188243944Y-145903904D01*
X188181164Y-146138199D01*
X188181162Y-146138207D01*
X188181162Y-146138211D01*
X188149500Y-146378712D01*
X183355500Y-146378712D01*
X183355500Y-146364734D01*
X183352646Y-146334301D01*
X183345192Y-146313000D01*
X183307795Y-146206123D01*
X183307791Y-146206114D01*
X183227150Y-146096849D01*
X183117885Y-146016208D01*
X183117876Y-146016204D01*
X182989698Y-145971353D01*
X182959275Y-145968500D01*
X182959266Y-145968500D01*
X181400734Y-145968500D01*
X181400724Y-145968500D01*
X181370301Y-145971353D01*
X181370300Y-145971353D01*
X181242123Y-146016204D01*
X181242114Y-146016208D01*
X181132849Y-146096849D01*
X181052208Y-146206114D01*
X181052204Y-146206123D01*
X181007353Y-146334300D01*
X181007353Y-146334301D01*
X181004500Y-146364724D01*
X176512623Y-146364724D01*
X176511646Y-146354301D01*
X176504647Y-146334300D01*
X176466795Y-146226123D01*
X176466791Y-146226114D01*
X176386150Y-146116849D01*
X176276885Y-146036208D01*
X176276876Y-146036204D01*
X176148698Y-145991353D01*
X176118275Y-145988500D01*
X176118266Y-145988500D01*
X174559734Y-145988500D01*
X174559724Y-145988500D01*
X174529301Y-145991353D01*
X174529300Y-145991353D01*
X174401123Y-146036204D01*
X174401114Y-146036208D01*
X174291849Y-146116849D01*
X174211208Y-146226114D01*
X174211204Y-146226123D01*
X174166353Y-146354300D01*
X174166353Y-146354301D01*
X174163500Y-146384724D01*
X169656499Y-146384724D01*
X169653646Y-146354301D01*
X169646647Y-146334300D01*
X169608795Y-146226123D01*
X169608791Y-146226114D01*
X169528150Y-146116849D01*
X169418885Y-146036208D01*
X169418876Y-146036204D01*
X169290698Y-145991353D01*
X169260275Y-145988500D01*
X169260266Y-145988500D01*
X167701734Y-145988500D01*
X167701724Y-145988500D01*
X167671301Y-145991353D01*
X167671300Y-145991353D01*
X167543123Y-146036204D01*
X167543114Y-146036208D01*
X167433849Y-146116849D01*
X167353208Y-146226114D01*
X167353204Y-146226123D01*
X167308353Y-146354300D01*
X167308353Y-146354301D01*
X167305500Y-146384724D01*
X163637950Y-146384724D01*
X163656500Y-146291465D01*
X163656500Y-145834535D01*
X163616130Y-145631580D01*
X163536941Y-145440402D01*
X163421977Y-145268345D01*
X163275655Y-145122023D01*
X163228574Y-145090565D01*
X163184073Y-145060830D01*
X163103598Y-145007059D01*
X163103596Y-145007058D01*
X162912423Y-144927871D01*
X162912417Y-144927869D01*
X162830572Y-144911589D01*
X162709465Y-144887500D01*
X162502535Y-144887500D01*
X162401520Y-144907592D01*
X162299582Y-144927869D01*
X162299576Y-144927871D01*
X162108403Y-145007058D01*
X161936345Y-145122022D01*
X161790022Y-145268345D01*
X161675058Y-145440403D01*
X161595871Y-145631576D01*
X161595869Y-145631582D01*
X161588485Y-145668707D01*
X161555500Y-145834535D01*
X161156500Y-145834535D01*
X161116130Y-145631580D01*
X161036941Y-145440402D01*
X160921977Y-145268345D01*
X160775655Y-145122023D01*
X160728574Y-145090565D01*
X160684073Y-145060830D01*
X160603598Y-145007059D01*
X160603596Y-145007058D01*
X160412423Y-144927871D01*
X160412417Y-144927869D01*
X160330572Y-144911589D01*
X160209465Y-144887500D01*
X160002535Y-144887500D01*
X159901520Y-144907592D01*
X159799582Y-144927869D01*
X159799576Y-144927871D01*
X159608403Y-145007058D01*
X159436345Y-145122022D01*
X159290022Y-145268345D01*
X159175058Y-145440403D01*
X159095871Y-145631576D01*
X159095869Y-145631582D01*
X159088485Y-145668707D01*
X159055500Y-145834535D01*
X158022579Y-145834535D01*
X158010146Y-145813000D01*
X158750537Y-145813000D01*
X158750537Y-145812999D01*
X158727683Y-145668710D01*
X158727682Y-145668707D01*
X158671747Y-145496554D01*
X158589567Y-145335269D01*
X158483169Y-145188823D01*
X158483166Y-145188819D01*
X158355181Y-145060834D01*
X158355176Y-145060830D01*
X158208730Y-144954432D01*
X158047445Y-144872252D01*
X157875292Y-144816317D01*
X157875290Y-144816316D01*
X157856000Y-144813260D01*
X157856000Y-145658854D01*
X157789343Y-145620370D01*
X157668535Y-145588000D01*
X157543465Y-145588000D01*
X157422657Y-145620370D01*
X157356000Y-145658854D01*
X157356000Y-144813260D01*
X157336709Y-144816316D01*
X157336707Y-144816317D01*
X157164554Y-144872252D01*
X157003269Y-144954432D01*
X156856823Y-145060830D01*
X156728830Y-145188823D01*
X156622432Y-145335269D01*
X156540252Y-145496554D01*
X156484317Y-145668707D01*
X156484316Y-145668710D01*
X156461462Y-145812999D01*
X156152216Y-145812999D01*
X156116130Y-145631580D01*
X156036941Y-145440402D01*
X155921977Y-145268345D01*
X155775655Y-145122023D01*
X155728574Y-145090565D01*
X155684073Y-145060830D01*
X155603598Y-145007059D01*
X155603596Y-145007058D01*
X155412423Y-144927871D01*
X155412417Y-144927869D01*
X155330572Y-144911589D01*
X155209465Y-144887500D01*
X155002535Y-144887500D01*
X154901520Y-144907592D01*
X154799582Y-144927869D01*
X154799576Y-144927871D01*
X154608403Y-145007058D01*
X154436345Y-145122022D01*
X154290022Y-145268345D01*
X154175058Y-145440403D01*
X154095871Y-145631576D01*
X154095869Y-145631582D01*
X154088485Y-145668707D01*
X154055500Y-145834535D01*
X153656500Y-145834535D01*
X153616130Y-145631580D01*
X153536941Y-145440402D01*
X153421977Y-145268345D01*
X153275655Y-145122023D01*
X153228574Y-145090565D01*
X153184073Y-145060830D01*
X153103598Y-145007059D01*
X153103596Y-145007058D01*
X152912423Y-144927871D01*
X152912417Y-144927869D01*
X152830572Y-144911589D01*
X152709465Y-144887500D01*
X152502535Y-144887500D01*
X152401520Y-144907592D01*
X152299582Y-144927869D01*
X152299576Y-144927871D01*
X152108403Y-145007058D01*
X151936345Y-145122022D01*
X151790022Y-145268345D01*
X151675058Y-145440403D01*
X151595871Y-145631576D01*
X151595869Y-145631582D01*
X151588485Y-145668707D01*
X151555500Y-145834535D01*
X151156500Y-145834535D01*
X151156500Y-145283734D01*
X151153646Y-145253301D01*
X151138023Y-145208654D01*
X151108795Y-145125123D01*
X151108791Y-145125114D01*
X151028150Y-145015849D01*
X150918885Y-144935208D01*
X150918876Y-144935204D01*
X150790698Y-144890353D01*
X150760275Y-144887500D01*
X150760266Y-144887500D01*
X149451734Y-144887500D01*
X149451724Y-144887500D01*
X149421301Y-144890353D01*
X149421300Y-144890353D01*
X149293123Y-144935204D01*
X149293114Y-144935208D01*
X149183849Y-145015849D01*
X149103208Y-145125114D01*
X149103204Y-145125123D01*
X149058353Y-145253300D01*
X149058353Y-145253301D01*
X149055500Y-145283724D01*
X134899224Y-145283724D01*
X134894269Y-145277267D01*
X134894259Y-145277255D01*
X134722744Y-145105740D01*
X134722732Y-145105730D01*
X134530301Y-144958072D01*
X134530286Y-144958062D01*
X134320212Y-144836776D01*
X134320213Y-144836776D01*
X134096101Y-144743946D01*
X134096095Y-144743944D01*
X133861800Y-144681164D01*
X133861793Y-144681163D01*
X133861789Y-144681162D01*
X133621288Y-144649500D01*
X133378712Y-144649500D01*
X133138211Y-144681162D01*
X133138207Y-144681162D01*
X133138199Y-144681164D01*
X132903904Y-144743944D01*
X132903898Y-144743946D01*
X132679786Y-144836776D01*
X132469713Y-144958062D01*
X132469698Y-144958072D01*
X132277267Y-145105730D01*
X132277255Y-145105740D01*
X132105740Y-145277255D01*
X132105730Y-145277267D01*
X131958072Y-145469698D01*
X131958062Y-145469713D01*
X131836776Y-145679786D01*
X131743946Y-145903898D01*
X131743944Y-145903904D01*
X131681164Y-146138199D01*
X131681162Y-146138207D01*
X131681162Y-146138211D01*
X131649500Y-146378712D01*
X130000000Y-146378712D01*
X130000000Y-144285000D01*
X140089435Y-144285000D01*
X140109631Y-144464249D01*
X140109633Y-144464258D01*
X140169212Y-144634526D01*
X140265182Y-144787259D01*
X140265184Y-144787262D01*
X140392738Y-144914816D01*
X140392740Y-144914817D01*
X140545473Y-145010787D01*
X140545477Y-145010788D01*
X140545478Y-145010789D01*
X140715745Y-145070368D01*
X140895000Y-145090565D01*
X141074255Y-145070368D01*
X141244522Y-145010789D01*
X141244524Y-145010787D01*
X141244526Y-145010787D01*
X141300596Y-144975555D01*
X141397262Y-144914816D01*
X141524816Y-144787262D01*
X141611378Y-144649500D01*
X141620787Y-144634526D01*
X141620787Y-144634524D01*
X141620789Y-144634522D01*
X141680368Y-144464255D01*
X141700565Y-144285000D01*
X144969435Y-144285000D01*
X144989631Y-144464249D01*
X144989633Y-144464258D01*
X145049212Y-144634526D01*
X145145182Y-144787259D01*
X145145184Y-144787262D01*
X145272738Y-144914816D01*
X145272740Y-144914817D01*
X145425473Y-145010787D01*
X145425477Y-145010788D01*
X145425478Y-145010789D01*
X145595745Y-145070368D01*
X145775000Y-145090565D01*
X145954255Y-145070368D01*
X146124522Y-145010789D01*
X146124524Y-145010787D01*
X146124526Y-145010787D01*
X146180596Y-144975555D01*
X146277262Y-144914816D01*
X146404816Y-144787262D01*
X146491378Y-144649500D01*
X146500787Y-144634526D01*
X146500787Y-144634524D01*
X146500789Y-144634522D01*
X146560368Y-144464255D01*
X146563604Y-144435535D01*
X167305500Y-144435535D01*
X167305500Y-144642465D01*
X167313198Y-144681164D01*
X167345869Y-144845417D01*
X167345871Y-144845423D01*
X167425058Y-145036596D01*
X167526659Y-145188655D01*
X167540023Y-145208655D01*
X167686345Y-145354977D01*
X167858402Y-145469941D01*
X168049580Y-145549130D01*
X168252535Y-145589500D01*
X168252538Y-145589500D01*
X168709462Y-145589500D01*
X168709465Y-145589500D01*
X168912420Y-145549130D01*
X169103598Y-145469941D01*
X169275655Y-145354977D01*
X169421977Y-145208655D01*
X169536941Y-145036598D01*
X169616130Y-144845420D01*
X169656500Y-144642465D01*
X169656500Y-144435535D01*
X174163500Y-144435535D01*
X174163500Y-144642465D01*
X174171198Y-144681164D01*
X174203869Y-144845417D01*
X174203871Y-144845423D01*
X174283058Y-145036596D01*
X174384659Y-145188655D01*
X174398023Y-145208655D01*
X174544345Y-145354977D01*
X174716402Y-145469941D01*
X174907580Y-145549130D01*
X175110535Y-145589500D01*
X175110538Y-145589500D01*
X175567462Y-145589500D01*
X175567465Y-145589500D01*
X175770420Y-145549130D01*
X175961598Y-145469941D01*
X176133655Y-145354977D01*
X176279977Y-145208655D01*
X176394941Y-145036598D01*
X176474130Y-144845420D01*
X176514500Y-144642465D01*
X176514500Y-144435535D01*
X176510522Y-144415535D01*
X181004500Y-144415535D01*
X181004500Y-144622465D01*
X181016176Y-144681164D01*
X181044869Y-144825417D01*
X181044871Y-144825423D01*
X181123749Y-145015849D01*
X181124059Y-145016598D01*
X181159987Y-145070368D01*
X181196572Y-145125123D01*
X181239023Y-145188655D01*
X181385345Y-145334977D01*
X181557402Y-145449941D01*
X181748580Y-145529130D01*
X181951535Y-145569500D01*
X181951538Y-145569500D01*
X182408462Y-145569500D01*
X182408465Y-145569500D01*
X182611420Y-145529130D01*
X182802598Y-145449941D01*
X182974655Y-145334977D01*
X183120977Y-145188655D01*
X183235941Y-145016598D01*
X183315130Y-144825420D01*
X183355500Y-144622465D01*
X183355500Y-144415535D01*
X183315130Y-144212580D01*
X183235941Y-144021402D01*
X183120977Y-143849345D01*
X182974655Y-143703023D01*
X182802598Y-143588059D01*
X182732956Y-143559212D01*
X182611423Y-143508871D01*
X182611417Y-143508869D01*
X182509012Y-143488500D01*
X182408465Y-143468500D01*
X181951535Y-143468500D01*
X181850988Y-143488500D01*
X181748582Y-143508869D01*
X181748576Y-143508871D01*
X181557403Y-143588058D01*
X181385345Y-143703022D01*
X181239022Y-143849345D01*
X181124058Y-144021403D01*
X181044871Y-144212576D01*
X181044869Y-144212582D01*
X181040891Y-144232582D01*
X181004500Y-144415535D01*
X176510522Y-144415535D01*
X176474130Y-144232580D01*
X176394941Y-144041402D01*
X176279977Y-143869345D01*
X176133655Y-143723023D01*
X175961598Y-143608059D01*
X175843672Y-143559212D01*
X175770423Y-143528871D01*
X175770417Y-143528869D01*
X175688572Y-143512589D01*
X175567465Y-143488500D01*
X175110535Y-143488500D01*
X175009520Y-143508592D01*
X174907582Y-143528869D01*
X174907576Y-143528871D01*
X174716403Y-143608058D01*
X174544345Y-143723022D01*
X174398022Y-143869345D01*
X174283058Y-144041403D01*
X174203871Y-144232576D01*
X174203869Y-144232582D01*
X174193443Y-144285000D01*
X174163500Y-144435535D01*
X169656500Y-144435535D01*
X169616130Y-144232580D01*
X169536941Y-144041402D01*
X169421977Y-143869345D01*
X169275655Y-143723023D01*
X169103598Y-143608059D01*
X168985672Y-143559212D01*
X168912423Y-143528871D01*
X168912417Y-143528869D01*
X168830572Y-143512589D01*
X168709465Y-143488500D01*
X168252535Y-143488500D01*
X168151520Y-143508592D01*
X168049582Y-143528869D01*
X168049576Y-143528871D01*
X167858403Y-143608058D01*
X167686345Y-143723022D01*
X167540022Y-143869345D01*
X167425058Y-144041403D01*
X167345871Y-144232576D01*
X167345869Y-144232582D01*
X167335443Y-144285000D01*
X167305500Y-144435535D01*
X146563604Y-144435535D01*
X146580565Y-144285000D01*
X146560368Y-144105745D01*
X146500789Y-143935478D01*
X146500788Y-143935477D01*
X146500787Y-143935473D01*
X146404817Y-143782740D01*
X146404816Y-143782738D01*
X146277262Y-143655184D01*
X146277259Y-143655182D01*
X146124526Y-143559212D01*
X145954258Y-143499633D01*
X145954257Y-143499632D01*
X145954255Y-143499632D01*
X145954251Y-143499631D01*
X145954249Y-143499631D01*
X145775000Y-143479435D01*
X145595750Y-143499631D01*
X145595741Y-143499633D01*
X145425473Y-143559212D01*
X145272740Y-143655182D01*
X145272736Y-143655185D01*
X145145185Y-143782736D01*
X145145182Y-143782740D01*
X145049212Y-143935473D01*
X144989633Y-144105741D01*
X144989631Y-144105750D01*
X144969435Y-144285000D01*
X141700565Y-144285000D01*
X141680368Y-144105745D01*
X141620789Y-143935478D01*
X141620788Y-143935477D01*
X141620787Y-143935473D01*
X141524817Y-143782740D01*
X141524816Y-143782738D01*
X141397262Y-143655184D01*
X141397259Y-143655182D01*
X141244526Y-143559212D01*
X141074258Y-143499633D01*
X141074257Y-143499632D01*
X141074255Y-143499632D01*
X141074251Y-143499631D01*
X141074249Y-143499631D01*
X140895000Y-143479435D01*
X140715750Y-143499631D01*
X140715741Y-143499633D01*
X140545473Y-143559212D01*
X140392740Y-143655182D01*
X140392736Y-143655185D01*
X140265185Y-143782736D01*
X140265182Y-143782740D01*
X140169212Y-143935473D01*
X140109633Y-144105741D01*
X140109631Y-144105750D01*
X140089435Y-144285000D01*
X130000000Y-144285000D01*
X130000000Y-142285000D01*
X140089435Y-142285000D01*
X140109631Y-142464249D01*
X140109633Y-142464258D01*
X140169212Y-142634526D01*
X140265182Y-142787259D01*
X140265184Y-142787262D01*
X140392738Y-142914816D01*
X140392740Y-142914817D01*
X140545473Y-143010787D01*
X140545477Y-143010788D01*
X140545478Y-143010789D01*
X140715745Y-143070368D01*
X140895000Y-143090565D01*
X141074255Y-143070368D01*
X141244522Y-143010789D01*
X141244524Y-143010787D01*
X141244526Y-143010787D01*
X141309531Y-142969941D01*
X141397262Y-142914816D01*
X141524816Y-142787262D01*
X141585555Y-142690596D01*
X141620787Y-142634526D01*
X141620787Y-142634524D01*
X141620789Y-142634522D01*
X141680368Y-142464255D01*
X141700565Y-142285000D01*
X144969435Y-142285000D01*
X144989631Y-142464249D01*
X144989633Y-142464258D01*
X145049212Y-142634526D01*
X145145182Y-142787259D01*
X145145184Y-142787262D01*
X145272738Y-142914816D01*
X145272740Y-142914817D01*
X145425473Y-143010787D01*
X145425477Y-143010788D01*
X145425478Y-143010789D01*
X145595745Y-143070368D01*
X145775000Y-143090565D01*
X145954255Y-143070368D01*
X146124522Y-143010789D01*
X146124524Y-143010787D01*
X146124526Y-143010787D01*
X146189531Y-142969941D01*
X146277262Y-142914816D01*
X146404816Y-142787262D01*
X146465555Y-142690596D01*
X146500787Y-142634526D01*
X146500787Y-142634524D01*
X146500789Y-142634522D01*
X146560368Y-142464255D01*
X146572491Y-142356657D01*
X150190353Y-142356657D01*
X150190353Y-142356662D01*
X150210833Y-142499114D01*
X150227951Y-142536596D01*
X150270623Y-142630033D01*
X150270624Y-142630034D01*
X150270625Y-142630036D01*
X150274516Y-142634526D01*
X150364872Y-142738803D01*
X150485947Y-142816613D01*
X150562785Y-142839174D01*
X150624034Y-142857159D01*
X150624037Y-142857159D01*
X150624039Y-142857160D01*
X150624040Y-142857160D01*
X150767960Y-142857160D01*
X150767961Y-142857160D01*
X150767963Y-142857159D01*
X150767965Y-142857159D01*
X150790795Y-142850455D01*
X150906053Y-142816613D01*
X151027128Y-142738803D01*
X151121377Y-142630033D01*
X151181165Y-142499117D01*
X151181165Y-142499115D01*
X151181166Y-142499114D01*
X151201647Y-142356662D01*
X151201647Y-142356657D01*
X151181166Y-142214205D01*
X151175749Y-142202343D01*
X151121377Y-142083287D01*
X151027128Y-141974517D01*
X150966471Y-141935535D01*
X167305500Y-141935535D01*
X167305500Y-142142465D01*
X167319770Y-142214205D01*
X167345869Y-142345417D01*
X167345871Y-142345423D01*
X167409534Y-142499117D01*
X167425059Y-142536598D01*
X167540023Y-142708655D01*
X167686345Y-142854977D01*
X167858402Y-142969941D01*
X168049580Y-143049130D01*
X168252535Y-143089500D01*
X168252538Y-143089500D01*
X168709462Y-143089500D01*
X168709465Y-143089500D01*
X168912420Y-143049130D01*
X169103598Y-142969941D01*
X169275655Y-142854977D01*
X169421977Y-142708655D01*
X169536941Y-142536598D01*
X169616130Y-142345420D01*
X169656500Y-142142465D01*
X169656500Y-141935535D01*
X174163500Y-141935535D01*
X174163500Y-142142465D01*
X174177770Y-142214205D01*
X174203869Y-142345417D01*
X174203871Y-142345423D01*
X174267534Y-142499117D01*
X174283059Y-142536598D01*
X174398023Y-142708655D01*
X174544345Y-142854977D01*
X174716402Y-142969941D01*
X174907580Y-143049130D01*
X175110535Y-143089500D01*
X175110538Y-143089500D01*
X175567462Y-143089500D01*
X175567465Y-143089500D01*
X175770420Y-143049130D01*
X175961598Y-142969941D01*
X176133655Y-142854977D01*
X176279977Y-142708655D01*
X176394941Y-142536598D01*
X176474130Y-142345420D01*
X176514500Y-142142465D01*
X176514500Y-141935535D01*
X176481374Y-141769000D01*
X180930261Y-141769000D01*
X181775854Y-141769000D01*
X181737370Y-141835657D01*
X181705000Y-141956465D01*
X181705000Y-142081535D01*
X181737370Y-142202343D01*
X181775854Y-142269000D01*
X180930261Y-142269000D01*
X180933316Y-142288290D01*
X180933317Y-142288292D01*
X180989252Y-142460445D01*
X181071432Y-142621730D01*
X181177830Y-142768176D01*
X181177834Y-142768181D01*
X181305819Y-142896166D01*
X181305823Y-142896169D01*
X181452269Y-143002567D01*
X181613554Y-143084747D01*
X181785707Y-143140682D01*
X181785710Y-143140683D01*
X181930000Y-143163535D01*
X181930000Y-142423145D01*
X181996657Y-142461630D01*
X182117465Y-142494000D01*
X182242535Y-142494000D01*
X182363343Y-142461630D01*
X182430000Y-142423145D01*
X182430000Y-143163534D01*
X182574289Y-143140683D01*
X182574292Y-143140682D01*
X182746445Y-143084747D01*
X182907730Y-143002567D01*
X183054176Y-142896169D01*
X183054181Y-142896166D01*
X183182166Y-142768181D01*
X183182169Y-142768176D01*
X183288567Y-142621730D01*
X183370747Y-142460445D01*
X183426682Y-142288292D01*
X183426683Y-142288290D01*
X183429739Y-142269000D01*
X182584146Y-142269000D01*
X182622630Y-142202343D01*
X182655000Y-142081535D01*
X182655000Y-141956465D01*
X182622630Y-141835657D01*
X182584146Y-141769000D01*
X183429739Y-141769000D01*
X183426683Y-141749709D01*
X183426682Y-141749707D01*
X183370747Y-141577554D01*
X183288567Y-141416269D01*
X183182169Y-141269823D01*
X183182166Y-141269819D01*
X183054181Y-141141834D01*
X183054176Y-141141830D01*
X182907730Y-141035432D01*
X182746445Y-140953252D01*
X182574292Y-140897317D01*
X182574289Y-140897316D01*
X182430000Y-140874462D01*
X182430000Y-141614854D01*
X182363343Y-141576370D01*
X182242535Y-141544000D01*
X182117465Y-141544000D01*
X181996657Y-141576370D01*
X181930000Y-141614854D01*
X181930000Y-140874462D01*
X181929999Y-140874462D01*
X181785710Y-140897316D01*
X181785707Y-140897317D01*
X181613554Y-140953252D01*
X181452269Y-141035432D01*
X181305823Y-141141830D01*
X181177830Y-141269823D01*
X181071432Y-141416269D01*
X180989252Y-141577554D01*
X180933317Y-141749707D01*
X180933316Y-141749709D01*
X180930261Y-141769000D01*
X176481374Y-141769000D01*
X176474130Y-141732580D01*
X176394941Y-141541402D01*
X176279977Y-141369345D01*
X176133655Y-141223023D01*
X176062456Y-141175450D01*
X176012140Y-141141830D01*
X175961598Y-141108059D01*
X175919362Y-141090564D01*
X175770423Y-141028871D01*
X175770417Y-141028869D01*
X175679510Y-141010787D01*
X175567465Y-140988500D01*
X175110535Y-140988500D01*
X175009520Y-141008592D01*
X174907582Y-141028869D01*
X174907576Y-141028871D01*
X174716403Y-141108058D01*
X174544345Y-141223022D01*
X174398022Y-141369345D01*
X174283058Y-141541403D01*
X174203871Y-141732576D01*
X174203869Y-141732582D01*
X174183592Y-141834520D01*
X174163500Y-141935535D01*
X169656500Y-141935535D01*
X169616130Y-141732580D01*
X169536941Y-141541402D01*
X169421977Y-141369345D01*
X169275655Y-141223023D01*
X169204456Y-141175450D01*
X169154140Y-141141830D01*
X169103598Y-141108059D01*
X169061362Y-141090564D01*
X168912423Y-141028871D01*
X168912417Y-141028869D01*
X168821510Y-141010787D01*
X168709465Y-140988500D01*
X168252535Y-140988500D01*
X168151520Y-141008592D01*
X168049582Y-141028869D01*
X168049576Y-141028871D01*
X167858403Y-141108058D01*
X167686345Y-141223022D01*
X167540022Y-141369345D01*
X167425058Y-141541403D01*
X167345871Y-141732576D01*
X167345869Y-141732582D01*
X167325592Y-141834520D01*
X167305500Y-141935535D01*
X150966471Y-141935535D01*
X150906053Y-141896707D01*
X150906050Y-141896706D01*
X150767965Y-141856160D01*
X150767961Y-141856160D01*
X150624039Y-141856160D01*
X150624034Y-141856160D01*
X150485949Y-141896706D01*
X150364871Y-141974517D01*
X150270625Y-142083283D01*
X150270624Y-142083285D01*
X150210833Y-142214205D01*
X150190353Y-142356657D01*
X146572491Y-142356657D01*
X146580565Y-142285000D01*
X146560368Y-142105745D01*
X146500789Y-141935478D01*
X146500788Y-141935477D01*
X146500787Y-141935473D01*
X146404817Y-141782740D01*
X146404816Y-141782738D01*
X146277262Y-141655184D01*
X146260391Y-141644583D01*
X146124526Y-141559212D01*
X145954258Y-141499633D01*
X145954257Y-141499632D01*
X145954255Y-141499632D01*
X145954251Y-141499631D01*
X145954249Y-141499631D01*
X145775000Y-141479435D01*
X145595750Y-141499631D01*
X145595741Y-141499633D01*
X145425473Y-141559212D01*
X145272740Y-141655182D01*
X145272736Y-141655185D01*
X145145185Y-141782736D01*
X145145182Y-141782740D01*
X145049212Y-141935473D01*
X144989633Y-142105741D01*
X144989631Y-142105750D01*
X144969435Y-142285000D01*
X141700565Y-142285000D01*
X141680368Y-142105745D01*
X141620789Y-141935478D01*
X141620788Y-141935477D01*
X141620787Y-141935473D01*
X141524817Y-141782740D01*
X141524816Y-141782738D01*
X141397262Y-141655184D01*
X141380391Y-141644583D01*
X141244526Y-141559212D01*
X141074258Y-141499633D01*
X141074257Y-141499632D01*
X141074255Y-141499632D01*
X141074251Y-141499631D01*
X141074249Y-141499631D01*
X140895000Y-141479435D01*
X140715750Y-141499631D01*
X140715741Y-141499633D01*
X140545473Y-141559212D01*
X140392740Y-141655182D01*
X140392736Y-141655185D01*
X140265185Y-141782736D01*
X140265182Y-141782740D01*
X140169212Y-141935473D01*
X140109633Y-142105741D01*
X140109631Y-142105750D01*
X140089435Y-142285000D01*
X130000000Y-142285000D01*
X130000000Y-139719252D01*
X131024500Y-139719252D01*
X131024500Y-141458748D01*
X131036133Y-141517231D01*
X131053882Y-141543795D01*
X131080447Y-141583552D01*
X131107012Y-141601301D01*
X131146769Y-141627867D01*
X131205252Y-141639500D01*
X131205255Y-141639500D01*
X132944745Y-141639500D01*
X132944748Y-141639500D01*
X133003231Y-141627867D01*
X133069552Y-141583552D01*
X133113867Y-141517231D01*
X133125500Y-141458748D01*
X133125500Y-140589000D01*
X133559417Y-140589000D01*
X133579700Y-140794934D01*
X133639768Y-140992954D01*
X133737315Y-141175450D01*
X133868590Y-141335410D01*
X134028550Y-141466685D01*
X134211046Y-141564232D01*
X134409066Y-141624300D01*
X134615000Y-141644583D01*
X134820934Y-141624300D01*
X135018954Y-141564232D01*
X135201450Y-141466685D01*
X135361410Y-141335410D01*
X135492685Y-141175450D01*
X135590232Y-140992954D01*
X135650300Y-140794934D01*
X135670583Y-140589000D01*
X135650300Y-140383066D01*
X135620552Y-140285000D01*
X140089435Y-140285000D01*
X140109631Y-140464249D01*
X140109633Y-140464258D01*
X140169212Y-140634526D01*
X140265182Y-140787259D01*
X140265184Y-140787262D01*
X140392738Y-140914816D01*
X140392740Y-140914817D01*
X140545473Y-141010787D01*
X140545477Y-141010788D01*
X140545478Y-141010789D01*
X140715745Y-141070368D01*
X140895000Y-141090565D01*
X141074255Y-141070368D01*
X141244522Y-141010789D01*
X141244524Y-141010787D01*
X141244526Y-141010787D01*
X141300596Y-140975555D01*
X141397262Y-140914816D01*
X141524816Y-140787262D01*
X141604352Y-140660682D01*
X141620787Y-140634526D01*
X141620787Y-140634524D01*
X141620789Y-140634522D01*
X141680368Y-140464255D01*
X141700565Y-140285000D01*
X144969435Y-140285000D01*
X144989631Y-140464249D01*
X144989633Y-140464258D01*
X145049212Y-140634526D01*
X145145182Y-140787259D01*
X145145184Y-140787262D01*
X145272738Y-140914816D01*
X145272740Y-140914817D01*
X145425473Y-141010787D01*
X145425477Y-141010788D01*
X145425478Y-141010789D01*
X145595745Y-141070368D01*
X145775000Y-141090565D01*
X145954255Y-141070368D01*
X146124522Y-141010789D01*
X146124524Y-141010787D01*
X146124526Y-141010787D01*
X146180596Y-140975555D01*
X146277262Y-140914816D01*
X146288140Y-140903938D01*
X150190353Y-140903938D01*
X150190353Y-140903943D01*
X150210833Y-141046395D01*
X150238994Y-141108058D01*
X150270623Y-141177314D01*
X150270624Y-141177315D01*
X150270625Y-141177317D01*
X150350778Y-141269819D01*
X150364872Y-141286084D01*
X150485947Y-141363894D01*
X150562785Y-141386455D01*
X150624034Y-141404440D01*
X150624037Y-141404440D01*
X150624039Y-141404441D01*
X150624040Y-141404441D01*
X150767960Y-141404441D01*
X150767961Y-141404441D01*
X150767963Y-141404440D01*
X150767965Y-141404440D01*
X150790795Y-141397736D01*
X150906053Y-141363894D01*
X151027128Y-141286084D01*
X151121377Y-141177314D01*
X151181165Y-141046398D01*
X151181165Y-141046396D01*
X151181166Y-141046395D01*
X151201647Y-140903943D01*
X151201647Y-140903938D01*
X151181166Y-140761486D01*
X151145566Y-140683535D01*
X151121377Y-140630568D01*
X151099003Y-140604747D01*
X151027128Y-140521798D01*
X150906053Y-140443988D01*
X150906050Y-140443987D01*
X150767965Y-140403441D01*
X150767961Y-140403441D01*
X150624039Y-140403441D01*
X150624034Y-140403441D01*
X150485949Y-140443987D01*
X150364871Y-140521798D01*
X150270625Y-140630564D01*
X150270624Y-140630566D01*
X150210833Y-140761486D01*
X150190353Y-140903938D01*
X146288140Y-140903938D01*
X146404816Y-140787262D01*
X146484352Y-140660682D01*
X146500787Y-140634526D01*
X146500787Y-140634524D01*
X146500789Y-140634522D01*
X146560368Y-140464255D01*
X146580565Y-140285000D01*
X146560368Y-140105745D01*
X146500789Y-139935478D01*
X146500788Y-139935477D01*
X146500787Y-139935473D01*
X146420871Y-139808290D01*
X146404816Y-139782738D01*
X146277262Y-139655184D01*
X146268143Y-139649454D01*
X146124526Y-139559212D01*
X145975303Y-139506997D01*
X150199061Y-139506997D01*
X150199061Y-139507002D01*
X150219541Y-139649454D01*
X150224709Y-139660769D01*
X150279331Y-139780373D01*
X150279332Y-139780374D01*
X150279333Y-139780376D01*
X150322902Y-139830657D01*
X150373580Y-139889143D01*
X150494655Y-139966953D01*
X150571493Y-139989514D01*
X150632742Y-140007499D01*
X150632745Y-140007499D01*
X150632747Y-140007500D01*
X150632748Y-140007500D01*
X150776668Y-140007500D01*
X150776669Y-140007500D01*
X150776671Y-140007499D01*
X150776673Y-140007499D01*
X150799503Y-140000795D01*
X150914761Y-139966953D01*
X151035836Y-139889143D01*
X151130085Y-139780373D01*
X151189873Y-139649457D01*
X151189873Y-139649455D01*
X151189874Y-139649454D01*
X151210355Y-139507002D01*
X151210355Y-139506997D01*
X151189874Y-139364545D01*
X151155373Y-139289000D01*
X167231261Y-139289000D01*
X168076854Y-139289000D01*
X168038370Y-139355657D01*
X168006000Y-139476465D01*
X168006000Y-139601535D01*
X168038370Y-139722343D01*
X168076854Y-139789000D01*
X167231261Y-139789000D01*
X167234316Y-139808290D01*
X167234317Y-139808292D01*
X167290252Y-139980445D01*
X167372432Y-140141730D01*
X167478830Y-140288176D01*
X167478834Y-140288181D01*
X167606819Y-140416166D01*
X167606823Y-140416169D01*
X167753269Y-140522567D01*
X167914554Y-140604747D01*
X168086707Y-140660682D01*
X168086710Y-140660683D01*
X168231000Y-140683535D01*
X168231000Y-139943145D01*
X168297657Y-139981630D01*
X168418465Y-140014000D01*
X168543535Y-140014000D01*
X168664343Y-139981630D01*
X168731000Y-139943145D01*
X168731000Y-140683534D01*
X168875289Y-140660683D01*
X168875292Y-140660682D01*
X169047445Y-140604747D01*
X169208730Y-140522567D01*
X169355176Y-140416169D01*
X169355181Y-140416166D01*
X169483166Y-140288181D01*
X169483169Y-140288176D01*
X169589567Y-140141730D01*
X169671747Y-139980445D01*
X169727682Y-139808292D01*
X169727683Y-139808290D01*
X169730739Y-139789000D01*
X168885146Y-139789000D01*
X168923630Y-139722343D01*
X168956000Y-139601535D01*
X168956000Y-139476465D01*
X168923630Y-139355657D01*
X168885146Y-139289000D01*
X169730739Y-139289000D01*
X174089261Y-139289000D01*
X174934854Y-139289000D01*
X174896370Y-139355657D01*
X174864000Y-139476465D01*
X174864000Y-139601535D01*
X174896370Y-139722343D01*
X174934854Y-139789000D01*
X174089261Y-139789000D01*
X174092316Y-139808290D01*
X174092317Y-139808292D01*
X174148252Y-139980445D01*
X174230432Y-140141730D01*
X174336830Y-140288176D01*
X174336834Y-140288181D01*
X174464819Y-140416166D01*
X174464823Y-140416169D01*
X174611269Y-140522567D01*
X174772554Y-140604747D01*
X174944707Y-140660682D01*
X174944710Y-140660683D01*
X175089000Y-140683535D01*
X175089000Y-139943145D01*
X175155657Y-139981630D01*
X175276465Y-140014000D01*
X175401535Y-140014000D01*
X175522343Y-139981630D01*
X175589000Y-139943145D01*
X175589000Y-140683534D01*
X175733289Y-140660683D01*
X175733292Y-140660682D01*
X175905445Y-140604747D01*
X176066730Y-140522567D01*
X176213176Y-140416169D01*
X176213181Y-140416166D01*
X176341166Y-140288181D01*
X176341169Y-140288176D01*
X176447567Y-140141730D01*
X176529747Y-139980445D01*
X176585682Y-139808292D01*
X176585683Y-139808290D01*
X176588739Y-139789000D01*
X175743146Y-139789000D01*
X175781630Y-139722343D01*
X175814000Y-139601535D01*
X175814000Y-139476465D01*
X175797674Y-139415535D01*
X181004500Y-139415535D01*
X181004500Y-139622465D01*
X181023752Y-139719252D01*
X181044869Y-139825417D01*
X181044871Y-139825423D01*
X181124058Y-140016596D01*
X181236611Y-140185046D01*
X181239023Y-140188655D01*
X181385345Y-140334977D01*
X181557402Y-140449941D01*
X181748580Y-140529130D01*
X181951535Y-140569500D01*
X181951538Y-140569500D01*
X182408462Y-140569500D01*
X182408465Y-140569500D01*
X182611420Y-140529130D01*
X182802598Y-140449941D01*
X182974655Y-140334977D01*
X183120977Y-140188655D01*
X183235941Y-140016598D01*
X183315130Y-139825420D01*
X183355500Y-139622465D01*
X183355500Y-139415535D01*
X183315130Y-139212580D01*
X183235941Y-139021402D01*
X183171929Y-138925600D01*
X185756918Y-138925600D01*
X185777555Y-139082361D01*
X185838061Y-139228436D01*
X185838064Y-139228441D01*
X185934318Y-139353882D01*
X186059759Y-139450136D01*
X186059761Y-139450136D01*
X186059763Y-139450138D01*
X186130493Y-139479435D01*
X186205838Y-139510644D01*
X186362600Y-139531282D01*
X186519362Y-139510644D01*
X186665441Y-139450136D01*
X186790882Y-139353882D01*
X186887136Y-139228441D01*
X186947644Y-139082362D01*
X186968282Y-138925600D01*
X186947644Y-138768838D01*
X186887138Y-138622763D01*
X186887135Y-138622758D01*
X186790882Y-138497318D01*
X186790881Y-138497317D01*
X186665441Y-138401064D01*
X186665436Y-138401061D01*
X186519361Y-138340555D01*
X186362600Y-138319918D01*
X186205838Y-138340555D01*
X186059763Y-138401061D01*
X186059758Y-138401064D01*
X185934318Y-138497317D01*
X185934317Y-138497318D01*
X185838064Y-138622758D01*
X185838061Y-138622763D01*
X185777555Y-138768838D01*
X185756918Y-138925600D01*
X183171929Y-138925600D01*
X183120977Y-138849345D01*
X182974655Y-138703023D01*
X182802598Y-138588059D01*
X182723830Y-138555432D01*
X182611423Y-138508871D01*
X182611417Y-138508869D01*
X182529572Y-138492589D01*
X182408465Y-138468500D01*
X181951535Y-138468500D01*
X181850520Y-138488592D01*
X181748582Y-138508869D01*
X181748576Y-138508871D01*
X181557403Y-138588058D01*
X181385345Y-138703022D01*
X181239022Y-138849345D01*
X181124058Y-139021403D01*
X181044871Y-139212576D01*
X181044869Y-139212582D01*
X181037955Y-139247343D01*
X181004500Y-139415535D01*
X175797674Y-139415535D01*
X175781630Y-139355657D01*
X175743146Y-139289000D01*
X176588739Y-139289000D01*
X176585683Y-139269709D01*
X176585682Y-139269707D01*
X176529747Y-139097554D01*
X176447567Y-138936269D01*
X176341169Y-138789823D01*
X176341166Y-138789819D01*
X176213181Y-138661834D01*
X176213176Y-138661830D01*
X176066730Y-138555432D01*
X175905445Y-138473252D01*
X175733292Y-138417317D01*
X175733289Y-138417316D01*
X175589000Y-138394462D01*
X175589000Y-139134854D01*
X175522343Y-139096370D01*
X175401535Y-139064000D01*
X175276465Y-139064000D01*
X175155657Y-139096370D01*
X175089000Y-139134854D01*
X175089000Y-138394462D01*
X175088999Y-138394462D01*
X174944710Y-138417316D01*
X174944707Y-138417317D01*
X174772554Y-138473252D01*
X174611269Y-138555432D01*
X174464823Y-138661830D01*
X174336830Y-138789823D01*
X174230432Y-138936269D01*
X174148252Y-139097554D01*
X174092317Y-139269707D01*
X174092316Y-139269709D01*
X174089261Y-139289000D01*
X169730739Y-139289000D01*
X169727683Y-139269709D01*
X169727682Y-139269707D01*
X169671747Y-139097554D01*
X169589567Y-138936269D01*
X169483169Y-138789823D01*
X169483166Y-138789819D01*
X169355181Y-138661834D01*
X169355176Y-138661830D01*
X169208730Y-138555432D01*
X169047445Y-138473252D01*
X168875292Y-138417317D01*
X168875289Y-138417316D01*
X168731000Y-138394462D01*
X168731000Y-139134854D01*
X168664343Y-139096370D01*
X168543535Y-139064000D01*
X168418465Y-139064000D01*
X168297657Y-139096370D01*
X168231000Y-139134854D01*
X168231000Y-138394462D01*
X168230999Y-138394462D01*
X168086710Y-138417316D01*
X168086707Y-138417317D01*
X167914554Y-138473252D01*
X167753269Y-138555432D01*
X167606823Y-138661830D01*
X167478830Y-138789823D01*
X167372432Y-138936269D01*
X167290252Y-139097554D01*
X167234317Y-139269707D01*
X167234316Y-139269709D01*
X167231261Y-139289000D01*
X151155373Y-139289000D01*
X151146562Y-139269707D01*
X151130085Y-139233627D01*
X151125591Y-139228441D01*
X151035836Y-139124857D01*
X150914761Y-139047047D01*
X150914758Y-139047046D01*
X150776673Y-139006500D01*
X150776669Y-139006500D01*
X150632747Y-139006500D01*
X150632742Y-139006500D01*
X150494657Y-139047046D01*
X150373579Y-139124857D01*
X150279333Y-139233623D01*
X150279332Y-139233625D01*
X150219541Y-139364545D01*
X150199061Y-139506997D01*
X145975303Y-139506997D01*
X145954258Y-139499633D01*
X145954257Y-139499632D01*
X145954255Y-139499632D01*
X145954251Y-139499631D01*
X145954249Y-139499631D01*
X145775000Y-139479435D01*
X145595750Y-139499631D01*
X145595741Y-139499633D01*
X145425473Y-139559212D01*
X145272740Y-139655182D01*
X145272736Y-139655185D01*
X145145185Y-139782736D01*
X145145182Y-139782740D01*
X145049212Y-139935473D01*
X144989633Y-140105741D01*
X144989631Y-140105750D01*
X144969435Y-140285000D01*
X141700565Y-140285000D01*
X141680368Y-140105745D01*
X141620789Y-139935478D01*
X141620788Y-139935477D01*
X141620787Y-139935473D01*
X141540871Y-139808290D01*
X141524816Y-139782738D01*
X141397262Y-139655184D01*
X141388143Y-139649454D01*
X141244526Y-139559212D01*
X141074258Y-139499633D01*
X141074257Y-139499632D01*
X141074255Y-139499632D01*
X141074251Y-139499631D01*
X141074249Y-139499631D01*
X140895000Y-139479435D01*
X140715750Y-139499631D01*
X140715741Y-139499633D01*
X140545473Y-139559212D01*
X140392740Y-139655182D01*
X140392736Y-139655185D01*
X140265185Y-139782736D01*
X140265182Y-139782740D01*
X140169212Y-139935473D01*
X140109633Y-140105741D01*
X140109631Y-140105750D01*
X140089435Y-140285000D01*
X135620552Y-140285000D01*
X135590232Y-140185046D01*
X135492685Y-140002550D01*
X135361410Y-139842590D01*
X135201450Y-139711315D01*
X135018954Y-139613768D01*
X134820934Y-139553700D01*
X134615000Y-139533417D01*
X134409065Y-139553700D01*
X134409064Y-139553700D01*
X134211043Y-139613769D01*
X134028548Y-139711316D01*
X133868590Y-139842590D01*
X133737316Y-140002548D01*
X133639769Y-140185043D01*
X133579700Y-140383064D01*
X133579700Y-140383065D01*
X133576440Y-140416169D01*
X133559417Y-140589000D01*
X133125500Y-140589000D01*
X133125500Y-139719252D01*
X133113867Y-139660769D01*
X133082462Y-139613769D01*
X133069552Y-139594447D01*
X133016818Y-139559212D01*
X133003231Y-139550133D01*
X132944748Y-139538500D01*
X131205252Y-139538500D01*
X131146769Y-139550133D01*
X131080447Y-139594447D01*
X131039866Y-139655182D01*
X131036133Y-139660769D01*
X131024500Y-139719252D01*
X130000000Y-139719252D01*
X130000000Y-137601001D01*
X131934500Y-137601001D01*
X131934500Y-137738998D01*
X131961417Y-137874318D01*
X131961420Y-137874329D01*
X132014223Y-138001807D01*
X132014225Y-138001811D01*
X132045137Y-138048074D01*
X132090883Y-138116539D01*
X132188460Y-138214116D01*
X132234102Y-138244613D01*
X132303189Y-138290775D01*
X132430672Y-138343580D01*
X132430678Y-138343581D01*
X132430681Y-138343582D01*
X132566001Y-138370499D01*
X132566007Y-138370500D01*
X133303993Y-138370500D01*
X133439328Y-138343580D01*
X133566811Y-138290775D01*
X133681542Y-138214114D01*
X133779114Y-138116542D01*
X133855775Y-138001811D01*
X133908580Y-137874328D01*
X133935500Y-137738993D01*
X133935500Y-137601007D01*
X133935499Y-137601001D01*
X135864500Y-137601001D01*
X135864500Y-137738998D01*
X135891417Y-137874318D01*
X135891420Y-137874329D01*
X135944223Y-138001807D01*
X135944225Y-138001811D01*
X135975137Y-138048074D01*
X136020883Y-138116539D01*
X136118460Y-138214116D01*
X136164102Y-138244613D01*
X136233189Y-138290775D01*
X136360672Y-138343580D01*
X136360678Y-138343581D01*
X136360681Y-138343582D01*
X136496001Y-138370499D01*
X136496007Y-138370500D01*
X137733993Y-138370500D01*
X137869328Y-138343580D01*
X137996811Y-138290775D01*
X138111542Y-138214114D01*
X138209114Y-138116542D01*
X138285775Y-138001811D01*
X138289585Y-137992612D01*
X150202338Y-137992612D01*
X150202338Y-137992617D01*
X150222818Y-138135069D01*
X150254920Y-138205361D01*
X150282608Y-138265988D01*
X150282609Y-138265989D01*
X150282610Y-138265991D01*
X150373167Y-138370500D01*
X150376857Y-138374758D01*
X150497932Y-138452568D01*
X150568376Y-138473252D01*
X150636019Y-138493114D01*
X150636022Y-138493114D01*
X150636024Y-138493115D01*
X150636025Y-138493115D01*
X150779945Y-138493115D01*
X150779946Y-138493115D01*
X150779948Y-138493114D01*
X150779950Y-138493114D01*
X150802780Y-138486410D01*
X150918038Y-138452568D01*
X151039113Y-138374758D01*
X151133362Y-138265988D01*
X151193150Y-138135072D01*
X151193150Y-138135070D01*
X151193151Y-138135069D01*
X151213632Y-137992617D01*
X151213632Y-137992612D01*
X151193151Y-137850160D01*
X151188736Y-137840494D01*
X151133362Y-137719242D01*
X151039113Y-137610472D01*
X150918038Y-137532662D01*
X150918035Y-137532661D01*
X150779950Y-137492115D01*
X150779946Y-137492115D01*
X150636024Y-137492115D01*
X150636019Y-137492115D01*
X150497934Y-137532661D01*
X150376856Y-137610472D01*
X150282610Y-137719238D01*
X150282609Y-137719240D01*
X150222818Y-137850160D01*
X150202338Y-137992612D01*
X138289585Y-137992612D01*
X138338580Y-137874328D01*
X138365500Y-137738993D01*
X138365500Y-137601007D01*
X138338580Y-137465672D01*
X138285775Y-137338189D01*
X138238274Y-137267099D01*
X138209116Y-137223460D01*
X138111539Y-137125883D01*
X138043074Y-137080137D01*
X137996811Y-137049225D01*
X137996808Y-137049223D01*
X137996807Y-137049223D01*
X137869329Y-136996420D01*
X137869318Y-136996417D01*
X137733998Y-136969500D01*
X137733993Y-136969500D01*
X136496007Y-136969500D01*
X136496001Y-136969500D01*
X136360681Y-136996417D01*
X136360670Y-136996420D01*
X136233192Y-137049223D01*
X136118460Y-137125883D01*
X136020883Y-137223460D01*
X135944223Y-137338192D01*
X135891420Y-137465670D01*
X135891417Y-137465681D01*
X135864500Y-137601001D01*
X133935499Y-137601001D01*
X133908580Y-137465672D01*
X133855775Y-137338189D01*
X133808274Y-137267099D01*
X133779116Y-137223460D01*
X133681539Y-137125883D01*
X133613074Y-137080137D01*
X133566811Y-137049225D01*
X133566808Y-137049223D01*
X133566807Y-137049223D01*
X133439329Y-136996420D01*
X133439318Y-136996417D01*
X133303998Y-136969500D01*
X133303993Y-136969500D01*
X132566007Y-136969500D01*
X132566001Y-136969500D01*
X132430681Y-136996417D01*
X132430670Y-136996420D01*
X132303192Y-137049223D01*
X132188460Y-137125883D01*
X132090883Y-137223460D01*
X132014223Y-137338192D01*
X131961420Y-137465670D01*
X131961417Y-137465681D01*
X131934500Y-137601001D01*
X130000000Y-137601001D01*
X130000000Y-136164230D01*
X136009500Y-136164230D01*
X136009500Y-136315769D01*
X136048718Y-136462133D01*
X136048719Y-136462137D01*
X136095670Y-136543457D01*
X136124485Y-136593365D01*
X136231635Y-136700515D01*
X136279666Y-136728246D01*
X136362862Y-136776280D01*
X136362864Y-136776280D01*
X136362865Y-136776281D01*
X136388475Y-136783143D01*
X136509230Y-136815499D01*
X136509231Y-136815500D01*
X136509234Y-136815500D01*
X136660769Y-136815500D01*
X136660769Y-136815499D01*
X136807135Y-136776281D01*
X136823908Y-136766597D01*
X143210353Y-136766597D01*
X143210353Y-136766602D01*
X143230833Y-136909054D01*
X143258439Y-136969500D01*
X143290623Y-137039973D01*
X143290624Y-137039974D01*
X143290625Y-137039976D01*
X143365064Y-137125883D01*
X143384872Y-137148743D01*
X143505947Y-137226553D01*
X143582785Y-137249114D01*
X143644034Y-137267099D01*
X143644037Y-137267099D01*
X143644039Y-137267100D01*
X143644040Y-137267100D01*
X143787960Y-137267100D01*
X143787961Y-137267100D01*
X143787963Y-137267099D01*
X143787965Y-137267099D01*
X143810795Y-137260395D01*
X143926053Y-137226553D01*
X144047128Y-137148743D01*
X144141377Y-137039973D01*
X144201165Y-136909057D01*
X144201165Y-136909055D01*
X144201166Y-136909054D01*
X144221647Y-136766602D01*
X144221647Y-136766597D01*
X144201166Y-136624145D01*
X144187109Y-136593365D01*
X144141377Y-136493227D01*
X144114147Y-136461802D01*
X144061460Y-136400997D01*
X145189415Y-136400997D01*
X145189415Y-136401002D01*
X145209895Y-136543454D01*
X145232689Y-136593365D01*
X145269685Y-136674373D01*
X145269686Y-136674374D01*
X145269687Y-136674376D01*
X145349601Y-136766602D01*
X145363934Y-136783143D01*
X145485009Y-136860953D01*
X145561847Y-136883514D01*
X145623096Y-136901499D01*
X145623099Y-136901499D01*
X145623101Y-136901500D01*
X145623102Y-136901500D01*
X145767022Y-136901500D01*
X145767023Y-136901500D01*
X145767025Y-136901499D01*
X145767027Y-136901499D01*
X145789857Y-136894795D01*
X145905115Y-136860953D01*
X146026190Y-136783143D01*
X146120439Y-136674373D01*
X146180227Y-136543457D01*
X146180227Y-136543455D01*
X146180228Y-136543454D01*
X146191968Y-136461797D01*
X154030753Y-136461797D01*
X154030753Y-136461802D01*
X154051233Y-136604254D01*
X154060360Y-136624238D01*
X154111023Y-136735173D01*
X154111024Y-136735174D01*
X154111025Y-136735176D01*
X154138254Y-136766600D01*
X154205272Y-136843943D01*
X154326347Y-136921753D01*
X154403185Y-136944314D01*
X154464434Y-136962299D01*
X154464437Y-136962299D01*
X154464439Y-136962300D01*
X154464440Y-136962300D01*
X154608360Y-136962300D01*
X154608361Y-136962300D01*
X154608363Y-136962299D01*
X154608365Y-136962299D01*
X154631195Y-136955595D01*
X154746453Y-136921753D01*
X154867528Y-136843943D01*
X154922068Y-136781000D01*
X163490518Y-136781000D01*
X163511155Y-136937761D01*
X163571661Y-137083836D01*
X163571664Y-137083841D01*
X163667918Y-137209282D01*
X163793359Y-137305536D01*
X163793361Y-137305536D01*
X163793363Y-137305538D01*
X163872190Y-137338189D01*
X163939438Y-137366044D01*
X164096200Y-137386682D01*
X164252962Y-137366044D01*
X164399041Y-137305536D01*
X164524482Y-137209282D01*
X164620736Y-137083841D01*
X164681244Y-136937762D01*
X164701882Y-136781000D01*
X164681244Y-136624238D01*
X164668456Y-136593365D01*
X164620738Y-136478163D01*
X164620735Y-136478158D01*
X164561531Y-136401002D01*
X164524482Y-136352718D01*
X164480989Y-136319345D01*
X164399041Y-136256464D01*
X164399036Y-136256461D01*
X164252961Y-136195955D01*
X164096200Y-136175318D01*
X163939438Y-136195955D01*
X163793363Y-136256461D01*
X163793358Y-136256464D01*
X163667918Y-136352717D01*
X163667917Y-136352718D01*
X163571664Y-136478158D01*
X163571661Y-136478163D01*
X163511155Y-136624238D01*
X163490518Y-136781000D01*
X154922068Y-136781000D01*
X154961777Y-136735173D01*
X155021565Y-136604257D01*
X155021565Y-136604255D01*
X155021566Y-136604254D01*
X155042047Y-136461802D01*
X155042047Y-136461797D01*
X155021566Y-136319345D01*
X154993798Y-136258543D01*
X154961777Y-136188427D01*
X154940811Y-136164231D01*
X154867528Y-136079657D01*
X154746453Y-136001847D01*
X154746450Y-136001846D01*
X154608365Y-135961300D01*
X154608361Y-135961300D01*
X154464439Y-135961300D01*
X154464434Y-135961300D01*
X154326349Y-136001846D01*
X154326347Y-136001846D01*
X154326347Y-136001847D01*
X154301421Y-136017866D01*
X154205271Y-136079657D01*
X154111025Y-136188423D01*
X154111024Y-136188425D01*
X154051233Y-136319345D01*
X154030753Y-136461797D01*
X146191968Y-136461797D01*
X146200709Y-136401002D01*
X146200709Y-136400997D01*
X146180228Y-136258545D01*
X146151644Y-136195956D01*
X146120439Y-136127627D01*
X146026190Y-136018857D01*
X145905115Y-135941047D01*
X145905112Y-135941046D01*
X145767027Y-135900500D01*
X145767023Y-135900500D01*
X145623101Y-135900500D01*
X145623096Y-135900500D01*
X145485011Y-135941046D01*
X145363933Y-136018857D01*
X145269687Y-136127623D01*
X145269686Y-136127625D01*
X145209895Y-136258545D01*
X145189415Y-136400997D01*
X144061460Y-136400997D01*
X144047128Y-136384457D01*
X143926053Y-136306647D01*
X143926050Y-136306646D01*
X143787965Y-136266100D01*
X143787961Y-136266100D01*
X143644039Y-136266100D01*
X143644034Y-136266100D01*
X143505949Y-136306646D01*
X143505947Y-136306646D01*
X143505947Y-136306647D01*
X143468722Y-136330569D01*
X143384871Y-136384457D01*
X143290625Y-136493223D01*
X143290624Y-136493225D01*
X143230833Y-136624145D01*
X143210353Y-136766597D01*
X136823908Y-136766597D01*
X136938365Y-136700515D01*
X137045515Y-136593365D01*
X137112027Y-136478163D01*
X137121280Y-136462137D01*
X137121280Y-136462136D01*
X137121281Y-136462135D01*
X137160499Y-136315769D01*
X137160500Y-136315769D01*
X137160500Y-136164231D01*
X137160499Y-136164230D01*
X137121281Y-136017866D01*
X137121280Y-136017862D01*
X137045514Y-135886634D01*
X136938365Y-135779485D01*
X136807137Y-135703719D01*
X136807133Y-135703718D01*
X136660769Y-135664500D01*
X136660766Y-135664500D01*
X136509234Y-135664500D01*
X136509231Y-135664500D01*
X136362866Y-135703718D01*
X136362862Y-135703719D01*
X136231634Y-135779485D01*
X136231634Y-135779486D01*
X136124486Y-135886634D01*
X136124485Y-135886634D01*
X136048719Y-136017862D01*
X136048718Y-136017866D01*
X136009500Y-136164230D01*
X130000000Y-136164230D01*
X130000000Y-133997997D01*
X146639353Y-133997997D01*
X146639353Y-133998002D01*
X146659833Y-134140454D01*
X146677967Y-134180161D01*
X146719623Y-134271373D01*
X146719624Y-134271374D01*
X146719625Y-134271376D01*
X146767166Y-134326241D01*
X146813872Y-134380143D01*
X146934947Y-134457953D01*
X147011785Y-134480514D01*
X147073034Y-134498499D01*
X147073037Y-134498499D01*
X147073039Y-134498500D01*
X147073040Y-134498500D01*
X147216960Y-134498500D01*
X147216961Y-134498500D01*
X147216963Y-134498499D01*
X147216965Y-134498499D01*
X147239795Y-134491795D01*
X147355053Y-134457953D01*
X147476128Y-134380143D01*
X147570377Y-134271373D01*
X147630165Y-134140457D01*
X147630165Y-134140455D01*
X147630166Y-134140454D01*
X147650647Y-133998002D01*
X147650647Y-133997997D01*
X147630166Y-133855545D01*
X147588072Y-133763374D01*
X147570377Y-133724627D01*
X147566852Y-133720559D01*
X147477116Y-133616997D01*
X190174953Y-133616997D01*
X190174953Y-133617002D01*
X190195433Y-133759454D01*
X190227535Y-133829746D01*
X190255223Y-133890373D01*
X190255224Y-133890374D01*
X190255225Y-133890376D01*
X190348483Y-133998002D01*
X190349472Y-133999143D01*
X190470547Y-134076953D01*
X190547385Y-134099514D01*
X190608634Y-134117499D01*
X190608637Y-134117499D01*
X190608639Y-134117500D01*
X190608640Y-134117500D01*
X190752560Y-134117500D01*
X190752561Y-134117500D01*
X190752563Y-134117499D01*
X190752565Y-134117499D01*
X190775395Y-134110795D01*
X190890653Y-134076953D01*
X190973983Y-134023400D01*
X191675118Y-134023400D01*
X191695755Y-134180161D01*
X191756261Y-134326236D01*
X191756264Y-134326241D01*
X191797623Y-134380142D01*
X191852518Y-134451682D01*
X191977959Y-134547936D01*
X191977961Y-134547936D01*
X191977963Y-134547938D01*
X192124038Y-134608444D01*
X192280800Y-134629082D01*
X192437562Y-134608444D01*
X192583641Y-134547936D01*
X192709082Y-134451682D01*
X192805336Y-134326241D01*
X192865844Y-134180162D01*
X192886482Y-134023400D01*
X192865844Y-133866638D01*
X192861248Y-133855543D01*
X192805338Y-133720563D01*
X192805335Y-133720558D01*
X192709082Y-133595118D01*
X192709081Y-133595117D01*
X192583641Y-133498864D01*
X192583636Y-133498861D01*
X192437561Y-133438355D01*
X192280800Y-133417718D01*
X192124038Y-133438355D01*
X191977963Y-133498861D01*
X191977958Y-133498864D01*
X191852518Y-133595117D01*
X191852517Y-133595118D01*
X191756264Y-133720558D01*
X191756261Y-133720563D01*
X191695755Y-133866638D01*
X191675118Y-134023400D01*
X190973983Y-134023400D01*
X191011728Y-133999143D01*
X191105977Y-133890373D01*
X191165765Y-133759457D01*
X191165765Y-133759455D01*
X191165766Y-133759454D01*
X191186247Y-133617002D01*
X191186247Y-133616997D01*
X191165766Y-133474545D01*
X191149238Y-133438355D01*
X191105977Y-133343627D01*
X191048118Y-133276854D01*
X191011728Y-133234857D01*
X190890653Y-133157047D01*
X190890650Y-133157046D01*
X190752565Y-133116500D01*
X190752561Y-133116500D01*
X190608639Y-133116500D01*
X190608634Y-133116500D01*
X190470549Y-133157046D01*
X190349471Y-133234857D01*
X190255225Y-133343623D01*
X190255224Y-133343625D01*
X190195433Y-133474545D01*
X190174953Y-133616997D01*
X147477116Y-133616997D01*
X147476128Y-133615857D01*
X147443857Y-133595118D01*
X147355053Y-133538047D01*
X147355050Y-133538046D01*
X147216965Y-133497500D01*
X147216961Y-133497500D01*
X147073039Y-133497500D01*
X147073034Y-133497500D01*
X146934949Y-133538046D01*
X146813871Y-133615857D01*
X146719625Y-133724623D01*
X146719624Y-133724625D01*
X146659833Y-133855545D01*
X146639353Y-133997997D01*
X130000000Y-133997997D01*
X130000000Y-133489997D01*
X136299351Y-133489997D01*
X136299351Y-133490002D01*
X136319831Y-133632454D01*
X136351933Y-133702746D01*
X136379621Y-133763373D01*
X136379622Y-133763374D01*
X136379623Y-133763376D01*
X136459486Y-133855543D01*
X136473870Y-133872143D01*
X136594945Y-133949953D01*
X136671783Y-133972514D01*
X136733032Y-133990499D01*
X136733035Y-133990499D01*
X136733037Y-133990500D01*
X136733038Y-133990500D01*
X136876958Y-133990500D01*
X136876959Y-133990500D01*
X136876961Y-133990499D01*
X136876963Y-133990499D01*
X136899793Y-133983795D01*
X137015051Y-133949953D01*
X137136126Y-133872143D01*
X137230375Y-133763373D01*
X137290163Y-133632457D01*
X137290163Y-133632455D01*
X137290164Y-133632454D01*
X137310645Y-133490002D01*
X137310645Y-133489997D01*
X137290164Y-133347545D01*
X137238700Y-133234857D01*
X137230375Y-133216627D01*
X137159125Y-133134400D01*
X137159122Y-133134397D01*
X138749355Y-133134397D01*
X138749355Y-133134402D01*
X138769835Y-133276854D01*
X138800328Y-133343623D01*
X138829625Y-133407773D01*
X138829626Y-133407774D01*
X138829627Y-133407776D01*
X138908555Y-133498864D01*
X138923874Y-133516543D01*
X139044949Y-133594353D01*
X139118186Y-133615857D01*
X139183036Y-133634899D01*
X139183039Y-133634899D01*
X139183041Y-133634900D01*
X139183042Y-133634900D01*
X139326962Y-133634900D01*
X139326963Y-133634900D01*
X139326965Y-133634899D01*
X139326967Y-133634899D01*
X139349797Y-133628195D01*
X139465055Y-133594353D01*
X139586130Y-133516543D01*
X139680379Y-133407773D01*
X139740167Y-133276857D01*
X139740167Y-133276855D01*
X139740168Y-133276854D01*
X139760649Y-133134402D01*
X139760649Y-133134397D01*
X139740168Y-132991945D01*
X139735753Y-132982279D01*
X139680379Y-132861027D01*
X139586130Y-132752257D01*
X139465055Y-132674447D01*
X139465052Y-132674446D01*
X139326967Y-132633900D01*
X139326963Y-132633900D01*
X139183041Y-132633900D01*
X139183036Y-132633900D01*
X139044951Y-132674446D01*
X138923873Y-132752257D01*
X138829627Y-132861023D01*
X138829626Y-132861025D01*
X138769835Y-132991945D01*
X138749355Y-133134397D01*
X137159122Y-133134397D01*
X137136126Y-133107857D01*
X137131806Y-133105081D01*
X137015051Y-133030047D01*
X137015048Y-133030046D01*
X136876963Y-132989500D01*
X136876959Y-132989500D01*
X136733037Y-132989500D01*
X136733032Y-132989500D01*
X136594947Y-133030046D01*
X136473869Y-133107857D01*
X136379623Y-133216623D01*
X136379622Y-133216625D01*
X136319831Y-133347545D01*
X136299351Y-133489997D01*
X130000000Y-133489997D01*
X130000000Y-132346997D01*
X151058953Y-132346997D01*
X151058953Y-132347002D01*
X151079433Y-132489454D01*
X151111535Y-132559746D01*
X151139223Y-132620373D01*
X151139224Y-132620374D01*
X151139225Y-132620376D01*
X151150944Y-132633900D01*
X151233472Y-132729143D01*
X151354547Y-132806953D01*
X151431385Y-132829514D01*
X151492634Y-132847499D01*
X151492637Y-132847499D01*
X151492639Y-132847500D01*
X151492640Y-132847500D01*
X151636560Y-132847500D01*
X151636561Y-132847500D01*
X151636563Y-132847499D01*
X151636565Y-132847499D01*
X151659395Y-132840795D01*
X151774653Y-132806953D01*
X151895728Y-132729143D01*
X151989977Y-132620373D01*
X152045224Y-132499400D01*
X155175318Y-132499400D01*
X155195955Y-132656161D01*
X155256461Y-132802236D01*
X155256464Y-132802241D01*
X155352718Y-132927682D01*
X155478159Y-133023936D01*
X155478161Y-133023936D01*
X155478163Y-133023938D01*
X155624238Y-133084444D01*
X155781000Y-133105082D01*
X155937762Y-133084444D01*
X156083841Y-133023936D01*
X156209282Y-132927682D01*
X156305536Y-132802241D01*
X156366044Y-132656162D01*
X156386682Y-132499400D01*
X156366044Y-132342638D01*
X156305536Y-132196559D01*
X156209282Y-132071118D01*
X156083841Y-131974864D01*
X156083836Y-131974861D01*
X155937761Y-131914355D01*
X155781000Y-131893718D01*
X155624238Y-131914355D01*
X155478163Y-131974861D01*
X155478158Y-131974864D01*
X155352718Y-132071117D01*
X155352717Y-132071118D01*
X155256464Y-132196558D01*
X155256461Y-132196563D01*
X155195955Y-132342638D01*
X155175318Y-132499400D01*
X152045224Y-132499400D01*
X152049765Y-132489457D01*
X152049765Y-132489455D01*
X152049766Y-132489454D01*
X152070247Y-132347002D01*
X152070247Y-132346997D01*
X152049766Y-132204545D01*
X152045351Y-132194879D01*
X151989977Y-132073627D01*
X151987802Y-132071117D01*
X151895728Y-131964857D01*
X151774653Y-131887047D01*
X151774650Y-131887046D01*
X151636565Y-131846500D01*
X151636561Y-131846500D01*
X151492639Y-131846500D01*
X151492634Y-131846500D01*
X151354549Y-131887046D01*
X151233471Y-131964857D01*
X151139225Y-132073623D01*
X151139224Y-132073625D01*
X151079433Y-132204545D01*
X151058953Y-132346997D01*
X130000000Y-132346997D01*
X130000000Y-131116855D01*
X145268459Y-131116855D01*
X145268459Y-131116860D01*
X145288939Y-131259312D01*
X145299600Y-131282655D01*
X145348729Y-131390231D01*
X145348730Y-131390232D01*
X145348731Y-131390234D01*
X145442977Y-131499000D01*
X145442978Y-131499001D01*
X145564053Y-131576811D01*
X145640891Y-131599372D01*
X145702140Y-131617357D01*
X145702143Y-131617357D01*
X145702145Y-131617358D01*
X145702146Y-131617358D01*
X145846066Y-131617358D01*
X145846067Y-131617358D01*
X145846069Y-131617357D01*
X145846071Y-131617357D01*
X145868901Y-131610653D01*
X145984159Y-131576811D01*
X146105234Y-131499001D01*
X146199483Y-131390231D01*
X146259271Y-131259315D01*
X146259271Y-131259313D01*
X146259272Y-131259312D01*
X146279753Y-131116860D01*
X146279753Y-131116855D01*
X146259272Y-130974403D01*
X146256923Y-130969259D01*
X146239080Y-130930191D01*
X146237742Y-130892714D01*
X146263297Y-130865265D01*
X146297457Y-130862822D01*
X146327145Y-130871539D01*
X146327146Y-130871539D01*
X146471066Y-130871539D01*
X146471067Y-130871539D01*
X146471069Y-130871538D01*
X146471071Y-130871538D01*
X146500755Y-130862822D01*
X146609159Y-130830992D01*
X146703419Y-130770415D01*
X171099353Y-130770415D01*
X171099353Y-130770420D01*
X171119833Y-130912872D01*
X171147933Y-130974401D01*
X171179623Y-131043791D01*
X171179624Y-131043792D01*
X171179625Y-131043794D01*
X171273871Y-131152560D01*
X171273872Y-131152561D01*
X171394947Y-131230371D01*
X171471785Y-131252932D01*
X171533034Y-131270917D01*
X171533037Y-131270917D01*
X171533039Y-131270918D01*
X171533040Y-131270918D01*
X171676960Y-131270918D01*
X171676961Y-131270918D01*
X171676963Y-131270917D01*
X171676965Y-131270917D01*
X171699795Y-131264213D01*
X171815053Y-131230371D01*
X171936128Y-131152561D01*
X171964405Y-131119926D01*
X171997940Y-131103139D01*
X172033524Y-131114981D01*
X172038466Y-131119923D01*
X172076917Y-131164298D01*
X172197992Y-131242108D01*
X172274830Y-131264669D01*
X172336079Y-131282654D01*
X172336082Y-131282654D01*
X172336084Y-131282655D01*
X172336085Y-131282655D01*
X172480005Y-131282655D01*
X172480006Y-131282655D01*
X172480008Y-131282654D01*
X172480010Y-131282654D01*
X172519982Y-131270917D01*
X172618098Y-131242108D01*
X172739173Y-131164298D01*
X172833422Y-131055528D01*
X172893210Y-130924612D01*
X172893210Y-130924610D01*
X172893211Y-130924609D01*
X172913692Y-130782157D01*
X172913692Y-130782152D01*
X172893211Y-130639700D01*
X172872880Y-130595182D01*
X172833422Y-130508782D01*
X172823250Y-130497043D01*
X172739173Y-130400012D01*
X172714617Y-130384231D01*
X172618098Y-130322202D01*
X172618095Y-130322201D01*
X172480010Y-130281655D01*
X172480006Y-130281655D01*
X172336084Y-130281655D01*
X172336079Y-130281655D01*
X172197994Y-130322201D01*
X172076916Y-130400012D01*
X172048638Y-130432646D01*
X172015102Y-130449432D01*
X171979518Y-130437588D01*
X171974575Y-130432645D01*
X171936128Y-130388275D01*
X171909308Y-130371039D01*
X171815053Y-130310465D01*
X171815050Y-130310464D01*
X171676965Y-130269918D01*
X171676961Y-130269918D01*
X171533039Y-130269918D01*
X171533034Y-130269918D01*
X171394949Y-130310464D01*
X171394947Y-130310464D01*
X171394947Y-130310465D01*
X171376684Y-130322202D01*
X171273871Y-130388275D01*
X171179625Y-130497041D01*
X171179624Y-130497043D01*
X171119833Y-130627963D01*
X171099353Y-130770415D01*
X146703419Y-130770415D01*
X146730234Y-130753182D01*
X146824483Y-130644412D01*
X146884271Y-130513496D01*
X146884271Y-130513494D01*
X146884272Y-130513493D01*
X146904753Y-130371041D01*
X146904753Y-130371036D01*
X146884272Y-130228584D01*
X146879857Y-130218918D01*
X146824483Y-130097666D01*
X146823299Y-130096300D01*
X146730234Y-129988896D01*
X146713189Y-129977942D01*
X146609159Y-129911086D01*
X146609156Y-129911085D01*
X146471071Y-129870539D01*
X146471067Y-129870539D01*
X146327145Y-129870539D01*
X146327140Y-129870539D01*
X146189055Y-129911085D01*
X146067977Y-129988896D01*
X145973731Y-130097662D01*
X145973730Y-130097664D01*
X145913939Y-130228584D01*
X145893459Y-130371036D01*
X145893459Y-130371041D01*
X145913939Y-130513493D01*
X145934130Y-130557703D01*
X145935469Y-130595182D01*
X145909914Y-130622631D01*
X145875753Y-130625074D01*
X145846071Y-130616358D01*
X145846067Y-130616358D01*
X145702145Y-130616358D01*
X145702140Y-130616358D01*
X145564055Y-130656904D01*
X145564053Y-130656904D01*
X145564053Y-130656905D01*
X145526828Y-130680827D01*
X145442977Y-130734715D01*
X145348731Y-130843481D01*
X145348730Y-130843483D01*
X145288939Y-130974403D01*
X145268459Y-131116855D01*
X130000000Y-131116855D01*
X130000000Y-130384230D01*
X136009500Y-130384230D01*
X136009500Y-130535769D01*
X136048718Y-130682133D01*
X136048719Y-130682137D01*
X136106464Y-130782152D01*
X136124485Y-130813365D01*
X136231635Y-130920515D01*
X136248398Y-130930193D01*
X136362862Y-130996280D01*
X136362864Y-130996280D01*
X136362865Y-130996281D01*
X136478303Y-131027212D01*
X136509230Y-131035499D01*
X136509231Y-131035500D01*
X136509234Y-131035500D01*
X136660769Y-131035500D01*
X136660769Y-131035499D01*
X136807135Y-130996281D01*
X136938365Y-130920515D01*
X137045515Y-130813365D01*
X137121281Y-130682135D01*
X137160499Y-130535769D01*
X137160500Y-130535769D01*
X137160500Y-130384231D01*
X137160499Y-130384230D01*
X137143879Y-130322202D01*
X137121281Y-130237865D01*
X137121280Y-130237864D01*
X137121280Y-130237862D01*
X137045514Y-130106634D01*
X136938365Y-129999485D01*
X136807137Y-129923719D01*
X136807133Y-129923718D01*
X136660769Y-129884500D01*
X136660766Y-129884500D01*
X136509234Y-129884500D01*
X136509231Y-129884500D01*
X136362866Y-129923718D01*
X136362862Y-129923719D01*
X136231634Y-129999485D01*
X136231634Y-129999486D01*
X136124486Y-130106634D01*
X136124485Y-130106634D01*
X136048719Y-130237862D01*
X136048718Y-130237866D01*
X136009500Y-130384230D01*
X130000000Y-130384230D01*
X130000000Y-128961001D01*
X131934500Y-128961001D01*
X131934500Y-129098998D01*
X131961417Y-129234318D01*
X131961420Y-129234329D01*
X132014223Y-129361807D01*
X132014225Y-129361811D01*
X132045137Y-129408074D01*
X132090883Y-129476539D01*
X132188460Y-129574116D01*
X132234102Y-129604613D01*
X132303189Y-129650775D01*
X132430672Y-129703580D01*
X132430678Y-129703581D01*
X132430681Y-129703582D01*
X132566001Y-129730499D01*
X132566007Y-129730500D01*
X133303993Y-129730500D01*
X133439328Y-129703580D01*
X133566811Y-129650775D01*
X133681542Y-129574114D01*
X133779114Y-129476542D01*
X133855775Y-129361811D01*
X133908580Y-129234328D01*
X133935500Y-129098993D01*
X133935500Y-128961007D01*
X133935499Y-128961001D01*
X135864500Y-128961001D01*
X135864500Y-129098998D01*
X135891417Y-129234318D01*
X135891420Y-129234329D01*
X135944223Y-129361807D01*
X135944225Y-129361811D01*
X135975137Y-129408074D01*
X136020883Y-129476539D01*
X136118460Y-129574116D01*
X136164102Y-129604613D01*
X136233189Y-129650775D01*
X136360672Y-129703580D01*
X136360678Y-129703581D01*
X136360681Y-129703582D01*
X136496001Y-129730499D01*
X136496007Y-129730500D01*
X137733993Y-129730500D01*
X137869328Y-129703580D01*
X137996811Y-129650775D01*
X138111542Y-129574114D01*
X138209114Y-129476542D01*
X138285775Y-129361811D01*
X138338580Y-129234328D01*
X138365500Y-129098993D01*
X138365500Y-128961007D01*
X138359444Y-128930561D01*
X138338582Y-128825681D01*
X138338579Y-128825670D01*
X138320114Y-128781091D01*
X138285775Y-128698189D01*
X138233531Y-128620000D01*
X138209116Y-128583460D01*
X138126253Y-128500597D01*
X153772268Y-128500597D01*
X153772268Y-128500602D01*
X153792748Y-128643054D01*
X153820324Y-128703435D01*
X153852538Y-128773973D01*
X153852539Y-128773974D01*
X153852540Y-128773976D01*
X153893972Y-128821791D01*
X153946787Y-128882743D01*
X154067862Y-128960553D01*
X154123856Y-128976994D01*
X154205949Y-129001099D01*
X154205952Y-129001099D01*
X154205954Y-129001100D01*
X154205955Y-129001100D01*
X154349875Y-129001100D01*
X154349876Y-129001100D01*
X154349878Y-129001099D01*
X154349880Y-129001099D01*
X154431974Y-128976994D01*
X154472175Y-128965190D01*
X154509462Y-128969199D01*
X154530551Y-128991849D01*
X154534776Y-129001100D01*
X154583555Y-129107910D01*
X154583556Y-129107911D01*
X154583557Y-129107913D01*
X154677803Y-129216679D01*
X154677804Y-129216680D01*
X154798879Y-129294490D01*
X154875717Y-129317051D01*
X154936966Y-129335036D01*
X154936969Y-129335036D01*
X154936971Y-129335037D01*
X154936972Y-129335037D01*
X155080892Y-129335037D01*
X155080893Y-129335037D01*
X155080895Y-129335036D01*
X155080897Y-129335036D01*
X155096963Y-129330318D01*
X155171379Y-129308468D01*
X155208665Y-129312476D01*
X155232197Y-129341678D01*
X155232776Y-129344341D01*
X155233378Y-129346389D01*
X155233379Y-129346391D01*
X155293167Y-129477307D01*
X155293168Y-129477308D01*
X155293169Y-129477310D01*
X155361414Y-129556069D01*
X155387416Y-129586077D01*
X155508491Y-129663887D01*
X155570857Y-129682199D01*
X155646578Y-129704433D01*
X155646581Y-129704433D01*
X155646583Y-129704434D01*
X155646584Y-129704434D01*
X155790500Y-129704434D01*
X155790505Y-129704434D01*
X155866228Y-129682199D01*
X155903514Y-129686207D01*
X155927046Y-129715409D01*
X155928531Y-129722239D01*
X155930835Y-129738257D01*
X155990623Y-129869173D01*
X155990624Y-129869174D01*
X155990625Y-129869176D01*
X156037886Y-129923718D01*
X156084872Y-129977943D01*
X156205947Y-130055753D01*
X156282785Y-130078314D01*
X156344034Y-130096299D01*
X156344037Y-130096299D01*
X156344039Y-130096300D01*
X156344040Y-130096300D01*
X156487960Y-130096300D01*
X156487961Y-130096300D01*
X156487963Y-130096299D01*
X156487965Y-130096299D01*
X156510795Y-130089595D01*
X156626053Y-130055753D01*
X156736463Y-129984797D01*
X177373353Y-129984797D01*
X177373353Y-129984802D01*
X177393833Y-130127254D01*
X177425935Y-130197546D01*
X177453623Y-130258173D01*
X177453624Y-130258174D01*
X177453625Y-130258176D01*
X177473970Y-130281655D01*
X177547872Y-130366943D01*
X177668947Y-130444753D01*
X177745785Y-130467314D01*
X177807034Y-130485299D01*
X177807037Y-130485299D01*
X177807039Y-130485300D01*
X177807040Y-130485300D01*
X177950960Y-130485300D01*
X177950961Y-130485300D01*
X177950963Y-130485299D01*
X177950965Y-130485299D01*
X177973795Y-130478595D01*
X178089053Y-130444753D01*
X178210128Y-130366943D01*
X178304377Y-130258173D01*
X178364165Y-130127257D01*
X178364165Y-130127255D01*
X178364166Y-130127254D01*
X178384647Y-129984802D01*
X178384647Y-129984797D01*
X178364166Y-129842345D01*
X178350239Y-129811849D01*
X178304377Y-129711427D01*
X178297579Y-129703582D01*
X178210128Y-129602657D01*
X178199458Y-129595800D01*
X178089053Y-129524847D01*
X178089050Y-129524846D01*
X177950965Y-129484300D01*
X177950961Y-129484300D01*
X177807039Y-129484300D01*
X177807034Y-129484300D01*
X177668949Y-129524846D01*
X177547871Y-129602657D01*
X177453625Y-129711423D01*
X177453624Y-129711425D01*
X177453623Y-129711426D01*
X177453623Y-129711427D01*
X177449708Y-129719999D01*
X177393833Y-129842345D01*
X177373353Y-129984797D01*
X156736463Y-129984797D01*
X156747128Y-129977943D01*
X156841377Y-129869173D01*
X156901165Y-129738257D01*
X156901165Y-129738255D01*
X156901166Y-129738254D01*
X156921647Y-129595802D01*
X156921647Y-129595797D01*
X156901166Y-129453345D01*
X156870406Y-129385992D01*
X156841377Y-129322427D01*
X156832754Y-129312476D01*
X156747128Y-129213657D01*
X156626053Y-129135847D01*
X156617941Y-129133465D01*
X156487965Y-129095300D01*
X156487961Y-129095300D01*
X156344039Y-129095300D01*
X156344034Y-129095300D01*
X156268317Y-129117533D01*
X156231029Y-129113524D01*
X156207497Y-129084323D01*
X156206012Y-129077501D01*
X156203709Y-129061477D01*
X156143921Y-128930561D01*
X156113107Y-128895000D01*
X156049672Y-128821791D01*
X155986341Y-128781091D01*
X155928597Y-128743981D01*
X155928594Y-128743980D01*
X155790509Y-128703434D01*
X155790505Y-128703434D01*
X155646583Y-128703434D01*
X155646582Y-128703434D01*
X155646576Y-128703435D01*
X155556097Y-128730001D01*
X155518809Y-128725992D01*
X155495278Y-128696790D01*
X155494702Y-128694139D01*
X155494098Y-128692082D01*
X155489683Y-128682416D01*
X155434309Y-128561164D01*
X155405572Y-128528000D01*
X155405571Y-128527999D01*
X175278487Y-128527999D01*
X175278488Y-128528000D01*
X175969988Y-128528000D01*
X175937075Y-128585007D01*
X175903000Y-128712174D01*
X175903000Y-128843826D01*
X175937075Y-128970993D01*
X175969988Y-129028000D01*
X175278487Y-129028000D01*
X175326062Y-129195206D01*
X175326065Y-129195213D01*
X175421059Y-129385988D01*
X175421062Y-129385992D01*
X175549496Y-129556066D01*
X175549499Y-129556069D01*
X175706996Y-129699648D01*
X175888208Y-129811849D01*
X176086938Y-129888838D01*
X176153000Y-129901185D01*
X176153000Y-129211012D01*
X176210007Y-129243925D01*
X176337174Y-129278000D01*
X176468826Y-129278000D01*
X176595993Y-129243925D01*
X176653000Y-129211012D01*
X176653000Y-129901185D01*
X176719061Y-129888838D01*
X176917791Y-129811849D01*
X177099003Y-129699648D01*
X177256500Y-129556069D01*
X177256503Y-129556066D01*
X177384937Y-129385992D01*
X177384940Y-129385988D01*
X177479934Y-129195213D01*
X177479937Y-129195206D01*
X177487109Y-129170000D01*
X183912000Y-129170000D01*
X183930740Y-129312349D01*
X183985683Y-129444995D01*
X183985686Y-129445000D01*
X184070909Y-129556066D01*
X184073091Y-129558909D01*
X184187000Y-129646314D01*
X184187002Y-129646314D01*
X184187004Y-129646316D01*
X184283311Y-129686207D01*
X184319650Y-129701259D01*
X184462000Y-129720000D01*
X184604350Y-129701259D01*
X184737000Y-129646314D01*
X184850909Y-129558909D01*
X184938314Y-129445000D01*
X184993259Y-129312350D01*
X185012000Y-129170000D01*
X184993259Y-129027650D01*
X184969048Y-128969199D01*
X184938316Y-128895004D01*
X184938313Y-128894999D01*
X184850909Y-128781091D01*
X184850908Y-128781090D01*
X184737000Y-128693686D01*
X184736995Y-128693683D01*
X184604349Y-128638740D01*
X184462000Y-128620000D01*
X184319650Y-128638740D01*
X184187004Y-128693683D01*
X184186999Y-128693686D01*
X184073091Y-128781090D01*
X184073090Y-128781091D01*
X183985686Y-128894999D01*
X183985683Y-128895004D01*
X183930740Y-129027650D01*
X183912000Y-129170000D01*
X177487109Y-129170000D01*
X177527512Y-129028000D01*
X176836012Y-129028000D01*
X176868925Y-128970993D01*
X176903000Y-128843826D01*
X176903000Y-128712174D01*
X176868925Y-128585007D01*
X176836012Y-128528000D01*
X177527512Y-128528000D01*
X177527512Y-128527999D01*
X177479937Y-128360793D01*
X177479934Y-128360786D01*
X177384940Y-128170011D01*
X177384937Y-128170007D01*
X177256503Y-127999933D01*
X177256500Y-127999930D01*
X177099003Y-127856351D01*
X176917791Y-127744150D01*
X176719065Y-127667164D01*
X176719057Y-127667162D01*
X176653000Y-127654813D01*
X176653000Y-128344988D01*
X176595993Y-128312075D01*
X176468826Y-128278000D01*
X176337174Y-128278000D01*
X176210007Y-128312075D01*
X176153000Y-128344988D01*
X176153000Y-127654813D01*
X176086942Y-127667162D01*
X176086934Y-127667164D01*
X175888208Y-127744150D01*
X175706996Y-127856351D01*
X175549499Y-127999930D01*
X175549496Y-127999933D01*
X175421062Y-128170007D01*
X175421059Y-128170011D01*
X175326065Y-128360786D01*
X175326062Y-128360793D01*
X175278487Y-128527999D01*
X155405571Y-128527999D01*
X155340060Y-128452394D01*
X155218985Y-128374584D01*
X155218982Y-128374583D01*
X155080897Y-128334037D01*
X155080893Y-128334037D01*
X154936971Y-128334037D01*
X154936966Y-128334037D01*
X154814672Y-128369946D01*
X154777384Y-128365937D01*
X154756295Y-128343287D01*
X154742041Y-128312075D01*
X154703292Y-128227227D01*
X154653714Y-128170011D01*
X154609043Y-128118457D01*
X154487968Y-128040647D01*
X154487965Y-128040646D01*
X154349880Y-128000100D01*
X154349876Y-128000100D01*
X154205954Y-128000100D01*
X154205949Y-128000100D01*
X154067864Y-128040646D01*
X153946786Y-128118457D01*
X153852540Y-128227223D01*
X153852539Y-128227225D01*
X153792748Y-128358145D01*
X153772268Y-128500597D01*
X138126253Y-128500597D01*
X138111539Y-128485883D01*
X138043074Y-128440137D01*
X137996811Y-128409225D01*
X137996808Y-128409223D01*
X137996807Y-128409223D01*
X137869329Y-128356420D01*
X137869318Y-128356417D01*
X137733998Y-128329500D01*
X137733993Y-128329500D01*
X136496007Y-128329500D01*
X136496001Y-128329500D01*
X136360681Y-128356417D01*
X136360670Y-128356420D01*
X136233192Y-128409223D01*
X136118460Y-128485883D01*
X136020883Y-128583460D01*
X135944223Y-128698192D01*
X135891420Y-128825670D01*
X135891417Y-128825681D01*
X135864500Y-128961001D01*
X133935499Y-128961001D01*
X133929444Y-128930561D01*
X133908582Y-128825681D01*
X133908579Y-128825670D01*
X133890114Y-128781091D01*
X133855775Y-128698189D01*
X133803531Y-128620000D01*
X133779116Y-128583460D01*
X133681539Y-128485883D01*
X133613074Y-128440137D01*
X133566811Y-128409225D01*
X133566808Y-128409223D01*
X133566807Y-128409223D01*
X133439329Y-128356420D01*
X133439318Y-128356417D01*
X133303998Y-128329500D01*
X133303993Y-128329500D01*
X132566007Y-128329500D01*
X132566001Y-128329500D01*
X132430681Y-128356417D01*
X132430670Y-128356420D01*
X132303192Y-128409223D01*
X132188460Y-128485883D01*
X132090883Y-128583460D01*
X132014223Y-128698192D01*
X131961420Y-128825670D01*
X131961417Y-128825681D01*
X131934500Y-128961001D01*
X130000000Y-128961001D01*
X130000000Y-127140000D01*
X141613355Y-127140000D01*
X141633860Y-127308872D01*
X141633861Y-127308874D01*
X141694181Y-127467929D01*
X141694182Y-127467931D01*
X141790816Y-127607928D01*
X141790817Y-127607929D01*
X141918148Y-127720734D01*
X142068775Y-127799790D01*
X142233944Y-127840500D01*
X142404056Y-127840500D01*
X142569225Y-127799790D01*
X142719852Y-127720734D01*
X142847183Y-127607929D01*
X142943818Y-127467930D01*
X143004140Y-127308872D01*
X143024645Y-127140000D01*
X143004140Y-126971128D01*
X142943818Y-126812070D01*
X142890748Y-126735186D01*
X142847183Y-126672071D01*
X142813190Y-126641956D01*
X142719852Y-126559266D01*
X142719844Y-126559262D01*
X142719843Y-126559261D01*
X142569224Y-126480209D01*
X142494570Y-126461809D01*
X164611553Y-126461809D01*
X164611553Y-126461814D01*
X164632033Y-126604266D01*
X164649245Y-126641954D01*
X164691823Y-126735185D01*
X164691824Y-126735186D01*
X164691825Y-126735188D01*
X164769171Y-126824450D01*
X164786072Y-126843955D01*
X164907147Y-126921765D01*
X164983985Y-126944326D01*
X165045234Y-126962311D01*
X165045237Y-126962311D01*
X165045239Y-126962312D01*
X165045240Y-126962312D01*
X165189160Y-126962312D01*
X165189161Y-126962312D01*
X165189163Y-126962311D01*
X165189165Y-126962311D01*
X165211995Y-126955607D01*
X165327253Y-126921765D01*
X165448328Y-126843955D01*
X165542033Y-126735813D01*
X169984168Y-126735813D01*
X169984168Y-126735818D01*
X170004648Y-126878270D01*
X170024512Y-126921765D01*
X170064438Y-127009189D01*
X170064439Y-127009190D01*
X170064440Y-127009192D01*
X170158686Y-127117958D01*
X170158687Y-127117959D01*
X170279762Y-127195769D01*
X170356600Y-127218330D01*
X170417849Y-127236315D01*
X170417852Y-127236315D01*
X170417854Y-127236316D01*
X170417855Y-127236316D01*
X170561775Y-127236316D01*
X170561776Y-127236316D01*
X170561778Y-127236315D01*
X170561780Y-127236315D01*
X170584610Y-127229611D01*
X170699868Y-127195769D01*
X170820943Y-127117959D01*
X170915192Y-127009189D01*
X170974980Y-126878273D01*
X170974980Y-126878271D01*
X170974981Y-126878270D01*
X170995462Y-126735818D01*
X170995462Y-126735813D01*
X170974981Y-126593361D01*
X170959408Y-126559261D01*
X170915192Y-126462443D01*
X170914645Y-126461812D01*
X170820943Y-126353673D01*
X170699868Y-126275863D01*
X170699865Y-126275862D01*
X170570917Y-126237999D01*
X175347417Y-126237999D01*
X175347417Y-126238000D01*
X175367700Y-126443934D01*
X175367700Y-126443935D01*
X175378704Y-126480209D01*
X175427768Y-126641954D01*
X175525315Y-126824450D01*
X175656590Y-126984410D01*
X175816550Y-127115685D01*
X175999046Y-127213232D01*
X176197066Y-127273300D01*
X176403000Y-127293583D01*
X176608934Y-127273300D01*
X176806954Y-127213232D01*
X176989450Y-127115685D01*
X177149410Y-126984410D01*
X177280685Y-126824450D01*
X177378232Y-126641954D01*
X177438300Y-126443934D01*
X177458583Y-126238000D01*
X177438300Y-126032066D01*
X177378232Y-125834046D01*
X177280685Y-125651550D01*
X177149410Y-125491590D01*
X176989450Y-125360315D01*
X176806954Y-125262768D01*
X176608934Y-125202700D01*
X176403000Y-125182417D01*
X176197065Y-125202700D01*
X176197064Y-125202700D01*
X175999043Y-125262769D01*
X175816548Y-125360316D01*
X175656590Y-125491590D01*
X175525316Y-125651548D01*
X175427769Y-125834043D01*
X175367700Y-126032064D01*
X175367700Y-126032065D01*
X175347417Y-126237999D01*
X170570917Y-126237999D01*
X170561780Y-126235316D01*
X170561776Y-126235316D01*
X170417854Y-126235316D01*
X170417849Y-126235316D01*
X170279764Y-126275862D01*
X170158686Y-126353673D01*
X170064440Y-126462439D01*
X170064439Y-126462441D01*
X170004648Y-126593361D01*
X169984168Y-126735813D01*
X165542033Y-126735813D01*
X165542577Y-126735185D01*
X165602365Y-126604269D01*
X165602365Y-126604267D01*
X165602366Y-126604266D01*
X165622847Y-126461814D01*
X165622847Y-126461809D01*
X165602366Y-126319357D01*
X165600382Y-126315013D01*
X165583976Y-126279091D01*
X165582638Y-126241614D01*
X165608193Y-126214165D01*
X165614740Y-126211723D01*
X165679653Y-126192664D01*
X165800728Y-126114854D01*
X165894977Y-126006084D01*
X165954765Y-125875168D01*
X165954765Y-125875166D01*
X165954766Y-125875165D01*
X165975247Y-125732713D01*
X165975247Y-125732708D01*
X165954766Y-125590256D01*
X165925762Y-125526748D01*
X165916665Y-125506829D01*
X165915327Y-125469353D01*
X165940882Y-125441904D01*
X165947434Y-125439461D01*
X166032050Y-125414616D01*
X166032050Y-125414615D01*
X166032053Y-125414615D01*
X166153128Y-125336805D01*
X166247377Y-125228035D01*
X166307165Y-125097119D01*
X166307165Y-125097117D01*
X166307166Y-125097116D01*
X166327647Y-124954663D01*
X166327647Y-124954660D01*
X166322408Y-124918224D01*
X166331682Y-124881886D01*
X166363935Y-124862749D01*
X166370909Y-124862250D01*
X166432946Y-124862250D01*
X166432947Y-124862250D01*
X166432949Y-124862249D01*
X166432951Y-124862249D01*
X166455781Y-124855545D01*
X166571039Y-124821703D01*
X166692114Y-124743893D01*
X166786363Y-124635123D01*
X166846151Y-124504207D01*
X166846151Y-124504205D01*
X166846152Y-124504204D01*
X166866633Y-124361751D01*
X166866633Y-124361748D01*
X166862493Y-124332959D01*
X166871767Y-124296621D01*
X166904020Y-124277484D01*
X166910994Y-124276985D01*
X167009146Y-124276985D01*
X167009147Y-124276985D01*
X167009149Y-124276984D01*
X167009151Y-124276984D01*
X167037510Y-124268657D01*
X167147239Y-124236438D01*
X167268314Y-124158628D01*
X167362563Y-124049858D01*
X167422351Y-123918942D01*
X167422351Y-123918940D01*
X167422352Y-123918939D01*
X167427986Y-123879750D01*
X167447122Y-123847496D01*
X167483459Y-123838221D01*
X167490280Y-123839704D01*
X167545439Y-123855900D01*
X167689360Y-123855900D01*
X167689361Y-123855900D01*
X167689363Y-123855899D01*
X167689365Y-123855899D01*
X167717983Y-123847496D01*
X167827453Y-123815353D01*
X167948528Y-123737543D01*
X167982793Y-123697999D01*
X175347417Y-123697999D01*
X175347417Y-123698000D01*
X175367700Y-123903934D01*
X175367700Y-123903935D01*
X175390655Y-123979607D01*
X175427768Y-124101954D01*
X175525315Y-124284450D01*
X175656590Y-124444410D01*
X175816550Y-124575685D01*
X175999046Y-124673232D01*
X176197066Y-124733300D01*
X176403000Y-124753583D01*
X176608934Y-124733300D01*
X176806954Y-124673232D01*
X176989450Y-124575685D01*
X177149410Y-124444410D01*
X177280685Y-124284450D01*
X177378232Y-124101954D01*
X177438300Y-123903934D01*
X177457401Y-123710000D01*
X182152000Y-123710000D01*
X182170740Y-123852349D01*
X182225683Y-123984995D01*
X182225686Y-123985000D01*
X182305009Y-124088377D01*
X182313091Y-124098909D01*
X182427000Y-124186314D01*
X182427002Y-124186314D01*
X182427004Y-124186316D01*
X182548011Y-124236438D01*
X182559650Y-124241259D01*
X182702000Y-124260000D01*
X182844350Y-124241259D01*
X182977000Y-124186314D01*
X183090909Y-124098909D01*
X183178314Y-123985000D01*
X183233259Y-123852350D01*
X183252000Y-123710000D01*
X183233259Y-123567650D01*
X183204349Y-123497854D01*
X183178316Y-123435004D01*
X183178313Y-123434999D01*
X183090909Y-123321091D01*
X183090908Y-123321090D01*
X182977000Y-123233686D01*
X182976995Y-123233683D01*
X182844349Y-123178740D01*
X182702000Y-123160000D01*
X182559650Y-123178740D01*
X182427004Y-123233683D01*
X182426999Y-123233686D01*
X182313091Y-123321090D01*
X182313090Y-123321091D01*
X182225686Y-123434999D01*
X182225683Y-123435004D01*
X182170740Y-123567650D01*
X182152000Y-123710000D01*
X177457401Y-123710000D01*
X177458583Y-123698000D01*
X177438300Y-123492066D01*
X177378232Y-123294046D01*
X177280685Y-123111550D01*
X177149410Y-122951590D01*
X176989450Y-122820315D01*
X176806954Y-122722768D01*
X176608934Y-122662700D01*
X176403000Y-122642417D01*
X176197065Y-122662700D01*
X176197064Y-122662700D01*
X175999043Y-122722769D01*
X175816548Y-122820316D01*
X175656590Y-122951590D01*
X175525316Y-123111548D01*
X175427769Y-123294043D01*
X175367700Y-123492064D01*
X175367700Y-123492065D01*
X175347417Y-123697999D01*
X167982793Y-123697999D01*
X168042777Y-123628773D01*
X168102565Y-123497857D01*
X168102565Y-123497855D01*
X168102566Y-123497854D01*
X168123047Y-123355402D01*
X168123047Y-123355397D01*
X168102566Y-123212945D01*
X168078386Y-123160000D01*
X168042777Y-123082027D01*
X167948528Y-122973257D01*
X167827453Y-122895447D01*
X167827450Y-122895446D01*
X167689365Y-122854900D01*
X167689361Y-122854900D01*
X167545439Y-122854900D01*
X167545434Y-122854900D01*
X167407349Y-122895446D01*
X167407347Y-122895446D01*
X167407347Y-122895447D01*
X167370122Y-122919369D01*
X167286271Y-122973257D01*
X167192025Y-123082023D01*
X167192024Y-123082025D01*
X167132235Y-123212941D01*
X167126599Y-123252136D01*
X167107461Y-123284388D01*
X167071123Y-123293662D01*
X167064294Y-123292176D01*
X167009153Y-123275985D01*
X167009147Y-123275985D01*
X166865225Y-123275985D01*
X166865220Y-123275985D01*
X166727135Y-123316531D01*
X166606057Y-123394342D01*
X166511811Y-123503108D01*
X166511810Y-123503110D01*
X166452019Y-123634030D01*
X166431539Y-123776482D01*
X166431539Y-123776486D01*
X166435678Y-123805277D01*
X166426403Y-123841615D01*
X166394150Y-123860751D01*
X166387177Y-123861250D01*
X166289020Y-123861250D01*
X166150935Y-123901796D01*
X166150933Y-123901796D01*
X166150933Y-123901797D01*
X166124255Y-123918942D01*
X166029857Y-123979607D01*
X165935611Y-124088373D01*
X165935610Y-124088375D01*
X165875819Y-124219295D01*
X165855339Y-124361748D01*
X165855339Y-124361751D01*
X165860578Y-124398188D01*
X165851304Y-124434526D01*
X165819051Y-124453663D01*
X165812077Y-124454162D01*
X165750034Y-124454162D01*
X165611949Y-124494708D01*
X165611947Y-124494708D01*
X165611947Y-124494709D01*
X165597168Y-124504207D01*
X165490871Y-124572519D01*
X165396625Y-124681285D01*
X165396624Y-124681287D01*
X165336833Y-124812207D01*
X165316353Y-124954659D01*
X165316353Y-124954664D01*
X165336833Y-125097116D01*
X165358429Y-125144403D01*
X165361578Y-125151299D01*
X165374933Y-125180540D01*
X165376272Y-125218019D01*
X165350717Y-125245468D01*
X165344166Y-125247911D01*
X165259549Y-125272757D01*
X165138471Y-125350568D01*
X165044225Y-125459334D01*
X165044224Y-125459336D01*
X164984433Y-125590256D01*
X164963953Y-125732708D01*
X164963953Y-125732713D01*
X164984433Y-125875165D01*
X165002821Y-125915429D01*
X165004159Y-125952908D01*
X164978604Y-125980356D01*
X164972055Y-125982799D01*
X164907149Y-126001858D01*
X164907147Y-126001858D01*
X164907147Y-126001859D01*
X164900568Y-126006087D01*
X164786071Y-126079669D01*
X164691825Y-126188435D01*
X164691824Y-126188437D01*
X164691823Y-126188438D01*
X164691823Y-126188439D01*
X164689893Y-126192665D01*
X164632033Y-126319357D01*
X164611553Y-126461809D01*
X142494570Y-126461809D01*
X142404056Y-126439500D01*
X142233944Y-126439500D01*
X142068775Y-126480209D01*
X141918156Y-126559261D01*
X141918151Y-126559264D01*
X141918148Y-126559266D01*
X141918146Y-126559268D01*
X141790816Y-126672071D01*
X141694182Y-126812068D01*
X141694181Y-126812070D01*
X141637204Y-126962311D01*
X141633860Y-126971128D01*
X141613355Y-127140000D01*
X130000000Y-127140000D01*
X130000000Y-125946197D01*
X132186753Y-125946197D01*
X132186753Y-125946202D01*
X132207233Y-126088654D01*
X132219198Y-126114853D01*
X132267023Y-126219573D01*
X132267024Y-126219574D01*
X132267025Y-126219576D01*
X132361271Y-126328342D01*
X132361272Y-126328343D01*
X132482347Y-126406153D01*
X132559185Y-126428714D01*
X132620434Y-126446699D01*
X132620437Y-126446699D01*
X132620439Y-126446700D01*
X132620440Y-126446700D01*
X132764360Y-126446700D01*
X132764361Y-126446700D01*
X132764363Y-126446699D01*
X132764365Y-126446699D01*
X132788882Y-126439500D01*
X132902453Y-126406153D01*
X133023528Y-126328343D01*
X133117777Y-126219573D01*
X133177565Y-126088657D01*
X133177565Y-126088655D01*
X133177566Y-126088654D01*
X133198047Y-125946202D01*
X133198047Y-125946197D01*
X133177566Y-125803745D01*
X133145125Y-125732711D01*
X133117777Y-125672827D01*
X133023528Y-125564057D01*
X132902453Y-125486247D01*
X132902450Y-125486246D01*
X132764365Y-125445700D01*
X132764361Y-125445700D01*
X132620439Y-125445700D01*
X132620434Y-125445700D01*
X132482349Y-125486246D01*
X132482347Y-125486246D01*
X132482347Y-125486247D01*
X132474685Y-125491171D01*
X132361271Y-125564057D01*
X132267025Y-125672823D01*
X132267024Y-125672825D01*
X132207233Y-125803745D01*
X132186753Y-125946197D01*
X130000000Y-125946197D01*
X130000000Y-124650797D01*
X132186753Y-124650797D01*
X132186753Y-124650802D01*
X132207233Y-124793254D01*
X132238743Y-124862249D01*
X132267023Y-124924173D01*
X132267024Y-124924174D01*
X132267025Y-124924176D01*
X132293443Y-124954664D01*
X132361272Y-125032943D01*
X132482347Y-125110753D01*
X132559185Y-125133314D01*
X132620434Y-125151299D01*
X132620437Y-125151299D01*
X132620439Y-125151300D01*
X132620440Y-125151300D01*
X132764360Y-125151300D01*
X132764361Y-125151300D01*
X132764363Y-125151299D01*
X132764365Y-125151299D01*
X132787195Y-125144595D01*
X132902453Y-125110753D01*
X133023528Y-125032943D01*
X133117777Y-124924173D01*
X133177565Y-124793257D01*
X133177565Y-124793255D01*
X133177566Y-124793254D01*
X133198047Y-124650802D01*
X133198047Y-124650797D01*
X133177566Y-124508345D01*
X133148367Y-124444409D01*
X133117777Y-124377427D01*
X133104191Y-124361748D01*
X133023528Y-124268657D01*
X133010056Y-124259999D01*
X132902453Y-124190847D01*
X132887022Y-124186316D01*
X132764365Y-124150300D01*
X132764361Y-124150300D01*
X132620439Y-124150300D01*
X132620434Y-124150300D01*
X132482349Y-124190846D01*
X132361271Y-124268657D01*
X132267025Y-124377423D01*
X132267024Y-124377425D01*
X132207233Y-124508345D01*
X132186753Y-124650797D01*
X130000000Y-124650797D01*
X130000000Y-123355397D01*
X132212153Y-123355397D01*
X132212153Y-123355402D01*
X132232633Y-123497854D01*
X132252572Y-123541513D01*
X132292423Y-123628773D01*
X132292424Y-123628774D01*
X132292425Y-123628776D01*
X132296976Y-123634028D01*
X132386672Y-123737543D01*
X132507747Y-123815353D01*
X132584585Y-123837914D01*
X132645834Y-123855899D01*
X132645837Y-123855899D01*
X132645839Y-123855900D01*
X132645840Y-123855900D01*
X132789760Y-123855900D01*
X132789761Y-123855900D01*
X132789763Y-123855899D01*
X132789765Y-123855899D01*
X132818383Y-123847496D01*
X132927853Y-123815353D01*
X133048928Y-123737543D01*
X133143177Y-123628773D01*
X133202965Y-123497857D01*
X133202965Y-123497855D01*
X133202966Y-123497854D01*
X133223447Y-123355402D01*
X133223447Y-123355397D01*
X133202966Y-123212945D01*
X133178786Y-123160000D01*
X133143177Y-123082027D01*
X133048928Y-122973257D01*
X132927853Y-122895447D01*
X132927850Y-122895446D01*
X132789765Y-122854900D01*
X132789761Y-122854900D01*
X132645839Y-122854900D01*
X132645834Y-122854900D01*
X132507749Y-122895446D01*
X132507747Y-122895446D01*
X132507747Y-122895447D01*
X132470522Y-122919369D01*
X132386671Y-122973257D01*
X132292425Y-123082023D01*
X132292424Y-123082025D01*
X132232633Y-123212945D01*
X132212153Y-123355397D01*
X130000000Y-123355397D01*
X130000000Y-122186997D01*
X132186753Y-122186997D01*
X132186753Y-122187002D01*
X132207233Y-122329454D01*
X132239335Y-122399746D01*
X132267023Y-122460373D01*
X132267024Y-122460374D01*
X132267025Y-122460376D01*
X132361271Y-122569142D01*
X132361272Y-122569143D01*
X132482347Y-122646953D01*
X132559185Y-122669514D01*
X132620434Y-122687499D01*
X132620437Y-122687499D01*
X132620439Y-122687500D01*
X132620440Y-122687500D01*
X132764360Y-122687500D01*
X132764361Y-122687500D01*
X132764363Y-122687499D01*
X132764365Y-122687499D01*
X132787195Y-122680795D01*
X132902453Y-122646953D01*
X133023528Y-122569143D01*
X133117777Y-122460373D01*
X133177565Y-122329457D01*
X133177565Y-122329455D01*
X133177566Y-122329454D01*
X133198047Y-122187002D01*
X133198047Y-122186997D01*
X133177566Y-122044545D01*
X133157376Y-122000336D01*
X133117777Y-121913627D01*
X133109790Y-121904410D01*
X133023528Y-121804857D01*
X132982727Y-121778636D01*
X132902453Y-121727047D01*
X132902450Y-121727046D01*
X132764365Y-121686500D01*
X132764361Y-121686500D01*
X132620439Y-121686500D01*
X132620434Y-121686500D01*
X132482349Y-121727046D01*
X132361271Y-121804857D01*
X132267025Y-121913623D01*
X132267024Y-121913625D01*
X132207233Y-122044545D01*
X132186753Y-122186997D01*
X130000000Y-122186997D01*
X130000000Y-121475800D01*
X153270318Y-121475800D01*
X153290955Y-121632561D01*
X153351461Y-121778636D01*
X153351464Y-121778641D01*
X153447718Y-121904082D01*
X153573159Y-122000336D01*
X153573161Y-122000336D01*
X153573163Y-122000338D01*
X153658494Y-122035683D01*
X153719238Y-122060844D01*
X153876000Y-122081482D01*
X154032762Y-122060844D01*
X154178841Y-122000336D01*
X154304282Y-121904082D01*
X154400536Y-121778641D01*
X154461044Y-121632562D01*
X154481682Y-121475800D01*
X154461044Y-121319038D01*
X154400536Y-121172959D01*
X154389058Y-121158000D01*
X175347417Y-121158000D01*
X175367700Y-121363934D01*
X175427768Y-121561954D01*
X175525315Y-121744450D01*
X175656590Y-121904410D01*
X175816550Y-122035685D01*
X175999046Y-122133232D01*
X176197066Y-122193300D01*
X176403000Y-122213583D01*
X176608934Y-122193300D01*
X176806954Y-122133232D01*
X176989450Y-122035685D01*
X177149410Y-121904410D01*
X177280685Y-121744450D01*
X177378232Y-121561954D01*
X177438300Y-121363934D01*
X177458583Y-121158000D01*
X177438300Y-120952066D01*
X177378232Y-120754046D01*
X177280685Y-120571550D01*
X177149410Y-120411590D01*
X176989450Y-120280315D01*
X176806954Y-120182768D01*
X176608934Y-120122700D01*
X176403000Y-120102417D01*
X176197065Y-120122700D01*
X176197064Y-120122700D01*
X175999043Y-120182769D01*
X175816548Y-120280316D01*
X175656590Y-120411590D01*
X175525316Y-120571548D01*
X175427769Y-120754043D01*
X175367700Y-120952064D01*
X175367700Y-120952065D01*
X175367700Y-120952066D01*
X175347417Y-121158000D01*
X154389058Y-121158000D01*
X154304282Y-121047518D01*
X154178841Y-120951264D01*
X154178836Y-120951261D01*
X154032761Y-120890755D01*
X153876000Y-120870118D01*
X153719238Y-120890755D01*
X153573163Y-120951261D01*
X153573158Y-120951264D01*
X153447718Y-121047517D01*
X153447717Y-121047518D01*
X153351464Y-121172958D01*
X153351461Y-121172963D01*
X153290955Y-121319038D01*
X153270318Y-121475800D01*
X130000000Y-121475800D01*
X130000000Y-119672397D01*
X158043953Y-119672397D01*
X158043953Y-119672402D01*
X158064433Y-119814854D01*
X158096535Y-119885146D01*
X158124223Y-119945773D01*
X158124224Y-119945774D01*
X158124225Y-119945776D01*
X158188973Y-120020499D01*
X158218472Y-120054543D01*
X158339547Y-120132353D01*
X158416385Y-120154914D01*
X158477634Y-120172899D01*
X158477637Y-120172899D01*
X158477639Y-120172900D01*
X158477640Y-120172900D01*
X158621560Y-120172900D01*
X158621561Y-120172900D01*
X158621563Y-120172899D01*
X158621565Y-120172899D01*
X158644395Y-120166195D01*
X158759653Y-120132353D01*
X158880728Y-120054543D01*
X158974977Y-119945773D01*
X159034765Y-119814857D01*
X159034765Y-119814855D01*
X159034766Y-119814854D01*
X159055247Y-119672402D01*
X159055247Y-119672397D01*
X159034766Y-119529945D01*
X159030223Y-119519997D01*
X164419353Y-119519997D01*
X164419353Y-119520002D01*
X164439833Y-119662454D01*
X164471935Y-119732746D01*
X164499623Y-119793373D01*
X164499624Y-119793374D01*
X164499625Y-119793376D01*
X164593871Y-119902142D01*
X164593872Y-119902143D01*
X164714947Y-119979953D01*
X164791785Y-120002514D01*
X164853034Y-120020499D01*
X164853037Y-120020499D01*
X164853039Y-120020500D01*
X164853040Y-120020500D01*
X164996960Y-120020500D01*
X164996961Y-120020500D01*
X164996963Y-120020499D01*
X164996965Y-120020499D01*
X165019795Y-120013795D01*
X165135053Y-119979953D01*
X165256128Y-119902143D01*
X165350377Y-119793373D01*
X165410165Y-119662457D01*
X165410165Y-119662455D01*
X165410166Y-119662454D01*
X165430647Y-119520002D01*
X165430647Y-119519997D01*
X165410166Y-119377545D01*
X165370302Y-119290257D01*
X165350377Y-119246627D01*
X165320759Y-119212446D01*
X165256128Y-119137857D01*
X165135053Y-119060047D01*
X165119789Y-119055565D01*
X164996965Y-119019500D01*
X164996961Y-119019500D01*
X164853039Y-119019500D01*
X164853034Y-119019500D01*
X164714949Y-119060046D01*
X164593871Y-119137857D01*
X164499625Y-119246623D01*
X164499624Y-119246625D01*
X164439833Y-119377545D01*
X164419353Y-119519997D01*
X159030223Y-119519997D01*
X159015493Y-119487744D01*
X158974977Y-119399027D01*
X158956361Y-119377543D01*
X158880728Y-119290257D01*
X158759653Y-119212447D01*
X158759650Y-119212446D01*
X158621565Y-119171900D01*
X158621561Y-119171900D01*
X158477639Y-119171900D01*
X158477634Y-119171900D01*
X158339549Y-119212446D01*
X158218471Y-119290257D01*
X158124225Y-119399023D01*
X158124224Y-119399025D01*
X158064433Y-119529945D01*
X158043953Y-119672397D01*
X130000000Y-119672397D01*
X130000000Y-116432000D01*
X131577592Y-116432000D01*
X131597201Y-116718687D01*
X131655663Y-117000024D01*
X131655666Y-117000032D01*
X131751896Y-117270797D01*
X131852333Y-117464631D01*
X131884097Y-117525932D01*
X131884101Y-117525940D01*
X131950626Y-117620184D01*
X132049811Y-117760698D01*
X132245947Y-117970708D01*
X132245952Y-117970712D01*
X132245954Y-117970715D01*
X132368904Y-118070741D01*
X132468853Y-118152055D01*
X132714375Y-118301361D01*
X132977942Y-118415844D01*
X133254642Y-118493371D01*
X133485357Y-118525082D01*
X133539321Y-118532500D01*
X133539322Y-118532500D01*
X133826679Y-118532500D01*
X133872043Y-118526264D01*
X134111358Y-118493371D01*
X134388058Y-118415844D01*
X134651625Y-118301361D01*
X134736084Y-118250000D01*
X153451435Y-118250000D01*
X153471631Y-118429249D01*
X153471633Y-118429258D01*
X153531212Y-118599526D01*
X153627182Y-118752259D01*
X153627184Y-118752262D01*
X153754738Y-118879816D01*
X153754740Y-118879817D01*
X153907473Y-118975787D01*
X153907477Y-118975788D01*
X153907478Y-118975789D01*
X154077745Y-119035368D01*
X154257000Y-119055565D01*
X154436255Y-119035368D01*
X154606522Y-118975789D01*
X154606524Y-118975787D01*
X154606526Y-118975787D01*
X154662596Y-118940555D01*
X154759262Y-118879816D01*
X154886816Y-118752262D01*
X154947555Y-118655596D01*
X154982787Y-118599526D01*
X154982787Y-118599524D01*
X154982789Y-118599522D01*
X155042368Y-118429255D01*
X155062565Y-118250000D01*
X155042368Y-118070745D01*
X154982789Y-117900478D01*
X154982788Y-117900477D01*
X154982787Y-117900473D01*
X154887139Y-117748252D01*
X175352500Y-117748252D01*
X175352500Y-119487748D01*
X175364133Y-119546231D01*
X175381882Y-119572795D01*
X175408447Y-119612552D01*
X175435012Y-119630301D01*
X175474769Y-119656867D01*
X175533252Y-119668500D01*
X175533255Y-119668500D01*
X177272745Y-119668500D01*
X177272748Y-119668500D01*
X177331231Y-119656867D01*
X177397552Y-119612552D01*
X177441867Y-119546231D01*
X177453500Y-119487748D01*
X177453500Y-117748252D01*
X177441867Y-117689769D01*
X177415301Y-117650012D01*
X177397552Y-117623447D01*
X177357795Y-117596882D01*
X177331231Y-117579133D01*
X177272748Y-117567500D01*
X175533252Y-117567500D01*
X175474769Y-117579133D01*
X175408447Y-117623447D01*
X175364133Y-117689769D01*
X175352500Y-117748252D01*
X154887139Y-117748252D01*
X154886817Y-117747740D01*
X154886816Y-117747738D01*
X154759262Y-117620184D01*
X154759259Y-117620182D01*
X154606526Y-117524212D01*
X154436258Y-117464633D01*
X154436257Y-117464632D01*
X154436255Y-117464632D01*
X154436251Y-117464631D01*
X154436249Y-117464631D01*
X154257000Y-117444435D01*
X154077750Y-117464631D01*
X154077741Y-117464633D01*
X153907473Y-117524212D01*
X153754740Y-117620182D01*
X153754736Y-117620185D01*
X153627185Y-117747736D01*
X153627182Y-117747740D01*
X153531212Y-117900473D01*
X153471633Y-118070741D01*
X153471631Y-118070750D01*
X153451435Y-118250000D01*
X134736084Y-118250000D01*
X134897147Y-118152055D01*
X135054751Y-118023834D01*
X135120045Y-117970715D01*
X135120045Y-117970713D01*
X135120053Y-117970708D01*
X135316189Y-117760698D01*
X135481901Y-117525936D01*
X135614104Y-117270797D01*
X135710334Y-117000032D01*
X135720261Y-116952263D01*
X135768798Y-116718687D01*
X135774915Y-116629255D01*
X135787177Y-116450000D01*
X153451435Y-116450000D01*
X153471631Y-116629249D01*
X153471633Y-116629258D01*
X153531212Y-116799526D01*
X153627182Y-116952259D01*
X153627184Y-116952262D01*
X153754738Y-117079816D01*
X153754740Y-117079817D01*
X153907473Y-117175787D01*
X153907477Y-117175788D01*
X153907478Y-117175789D01*
X154077745Y-117235368D01*
X154257000Y-117255565D01*
X154436255Y-117235368D01*
X154606522Y-117175789D01*
X154606524Y-117175787D01*
X154606526Y-117175787D01*
X154662596Y-117140555D01*
X154759262Y-117079816D01*
X154886816Y-116952262D01*
X154947555Y-116855596D01*
X154982787Y-116799526D01*
X154982787Y-116799524D01*
X154982789Y-116799522D01*
X155042368Y-116629255D01*
X155062565Y-116450000D01*
X155042368Y-116270745D01*
X154997247Y-116141797D01*
X180675353Y-116141797D01*
X180675353Y-116141802D01*
X180695833Y-116284254D01*
X180727935Y-116354546D01*
X180755623Y-116415173D01*
X180755624Y-116415174D01*
X180755625Y-116415176D01*
X180805853Y-116473142D01*
X180849872Y-116523943D01*
X180970947Y-116601753D01*
X181047785Y-116624314D01*
X181109034Y-116642299D01*
X181109037Y-116642299D01*
X181109039Y-116642300D01*
X181109040Y-116642300D01*
X181252960Y-116642300D01*
X181252961Y-116642300D01*
X181252963Y-116642299D01*
X181252965Y-116642299D01*
X181297378Y-116629258D01*
X181391053Y-116601753D01*
X181512128Y-116523943D01*
X181606377Y-116415173D01*
X181666165Y-116284257D01*
X181666165Y-116284255D01*
X181666166Y-116284254D01*
X181686647Y-116141802D01*
X181686647Y-116141797D01*
X181679343Y-116090997D01*
X188422353Y-116090997D01*
X188422353Y-116091002D01*
X188442833Y-116233454D01*
X188459862Y-116270741D01*
X188502623Y-116364373D01*
X188502624Y-116364374D01*
X188502625Y-116364376D01*
X188596871Y-116473142D01*
X188596872Y-116473143D01*
X188717947Y-116550953D01*
X188794785Y-116573514D01*
X188856034Y-116591499D01*
X188856037Y-116591499D01*
X188856039Y-116591500D01*
X188856040Y-116591500D01*
X188999960Y-116591500D01*
X188999961Y-116591500D01*
X188999963Y-116591499D01*
X188999965Y-116591499D01*
X189022795Y-116584795D01*
X189138053Y-116550953D01*
X189259128Y-116473143D01*
X189353377Y-116364373D01*
X189413165Y-116233457D01*
X189413165Y-116233455D01*
X189413166Y-116233454D01*
X189433647Y-116091002D01*
X189433647Y-116090997D01*
X189413166Y-115948545D01*
X189408751Y-115938879D01*
X189353377Y-115817627D01*
X189259128Y-115708857D01*
X189138053Y-115631047D01*
X189138050Y-115631046D01*
X188999965Y-115590500D01*
X188999961Y-115590500D01*
X188856039Y-115590500D01*
X188856034Y-115590500D01*
X188717949Y-115631046D01*
X188596871Y-115708857D01*
X188502625Y-115817623D01*
X188502624Y-115817625D01*
X188442833Y-115948545D01*
X188422353Y-116090997D01*
X181679343Y-116090997D01*
X181666166Y-115999345D01*
X181642598Y-115947740D01*
X181606377Y-115868427D01*
X181602519Y-115863975D01*
X181512128Y-115759657D01*
X181456974Y-115724212D01*
X181391053Y-115681847D01*
X181391050Y-115681846D01*
X181252965Y-115641300D01*
X181252961Y-115641300D01*
X181109039Y-115641300D01*
X181109034Y-115641300D01*
X180970949Y-115681846D01*
X180849871Y-115759657D01*
X180755625Y-115868423D01*
X180755624Y-115868425D01*
X180695833Y-115999345D01*
X180675353Y-116141797D01*
X154997247Y-116141797D01*
X154982789Y-116100478D01*
X154982788Y-116100477D01*
X154982787Y-116100473D01*
X154886817Y-115947740D01*
X154886816Y-115947738D01*
X154759262Y-115820184D01*
X154755193Y-115817627D01*
X154606526Y-115724212D01*
X154436258Y-115664633D01*
X154436257Y-115664632D01*
X154436255Y-115664632D01*
X154436251Y-115664631D01*
X154436249Y-115664631D01*
X154257000Y-115644435D01*
X154077750Y-115664631D01*
X154077741Y-115664633D01*
X153907473Y-115724212D01*
X153754740Y-115820182D01*
X153754736Y-115820185D01*
X153627185Y-115947736D01*
X153627182Y-115947740D01*
X153531212Y-116100473D01*
X153471633Y-116270741D01*
X153471631Y-116270750D01*
X153451435Y-116450000D01*
X135787177Y-116450000D01*
X135788408Y-116432000D01*
X135768798Y-116145314D01*
X135768797Y-116145308D01*
X135768797Y-116145305D01*
X135710336Y-115863975D01*
X135710334Y-115863968D01*
X135614104Y-115593203D01*
X135481901Y-115338064D01*
X135481899Y-115338061D01*
X135481898Y-115338059D01*
X135428637Y-115262605D01*
X135385855Y-115201997D01*
X191597353Y-115201997D01*
X191597353Y-115202002D01*
X191617833Y-115344454D01*
X191649935Y-115414746D01*
X191677623Y-115475373D01*
X191677624Y-115475374D01*
X191677625Y-115475376D01*
X191771871Y-115584142D01*
X191771872Y-115584143D01*
X191892947Y-115661953D01*
X191960697Y-115681846D01*
X192031034Y-115702499D01*
X192031037Y-115702499D01*
X192031039Y-115702500D01*
X192031040Y-115702500D01*
X192174960Y-115702500D01*
X192174961Y-115702500D01*
X192174963Y-115702499D01*
X192174965Y-115702499D01*
X192197795Y-115695795D01*
X192313053Y-115661953D01*
X192434128Y-115584143D01*
X192528377Y-115475373D01*
X192588165Y-115344457D01*
X192588165Y-115344455D01*
X192588166Y-115344454D01*
X192608647Y-115202002D01*
X192608647Y-115201997D01*
X192588166Y-115059545D01*
X192583751Y-115049879D01*
X192528377Y-114928627D01*
X192497759Y-114893292D01*
X192434128Y-114819857D01*
X192313053Y-114742047D01*
X192313050Y-114742046D01*
X192174965Y-114701500D01*
X192174961Y-114701500D01*
X192031039Y-114701500D01*
X192031034Y-114701500D01*
X191892949Y-114742046D01*
X191771871Y-114819857D01*
X191677625Y-114928623D01*
X191677624Y-114928625D01*
X191617833Y-115059545D01*
X191597353Y-115201997D01*
X135385855Y-115201997D01*
X135316189Y-115103302D01*
X135120053Y-114893292D01*
X135120047Y-114893287D01*
X135120045Y-114893284D01*
X134897148Y-114711946D01*
X134897147Y-114711945D01*
X134651625Y-114562639D01*
X134651621Y-114562637D01*
X134651619Y-114562636D01*
X134388059Y-114448156D01*
X134111360Y-114370629D01*
X133826679Y-114331500D01*
X133826678Y-114331500D01*
X133539322Y-114331500D01*
X133539321Y-114331500D01*
X133254639Y-114370629D01*
X132977940Y-114448156D01*
X132714380Y-114562636D01*
X132468851Y-114711946D01*
X132245954Y-114893284D01*
X132245952Y-114893287D01*
X132245948Y-114893290D01*
X132245947Y-114893292D01*
X132181164Y-114962657D01*
X132049815Y-115103297D01*
X132049809Y-115103305D01*
X131884101Y-115338059D01*
X131884097Y-115338067D01*
X131751900Y-115593195D01*
X131751896Y-115593203D01*
X131726510Y-115664632D01*
X131655663Y-115863975D01*
X131597203Y-116145305D01*
X131597202Y-116145308D01*
X131577592Y-116432000D01*
X130000000Y-116432000D01*
X130000000Y-110239922D01*
X131483000Y-110239922D01*
X131483000Y-111182000D01*
X132355769Y-111182000D01*
X132333000Y-111325753D01*
X132333000Y-111538247D01*
X132355769Y-111682000D01*
X131483000Y-111682000D01*
X131483000Y-112624077D01*
X131498337Y-112779796D01*
X131498337Y-112779797D01*
X131558948Y-112979604D01*
X131558951Y-112979611D01*
X131657379Y-113163755D01*
X131789840Y-113325159D01*
X131951244Y-113457620D01*
X132135388Y-113556048D01*
X132135395Y-113556051D01*
X132335203Y-113616662D01*
X132490923Y-113632000D01*
X133433000Y-113632000D01*
X133433000Y-112759231D01*
X133576753Y-112782000D01*
X133789247Y-112782000D01*
X133933000Y-112759231D01*
X133933000Y-113632000D01*
X134875077Y-113632000D01*
X135030796Y-113616662D01*
X135030797Y-113616662D01*
X135230604Y-113556051D01*
X135230611Y-113556048D01*
X135414755Y-113457620D01*
X135576159Y-113325159D01*
X135594344Y-113303000D01*
X138687357Y-113303000D01*
X138707884Y-113524532D01*
X138707885Y-113524538D01*
X138768770Y-113738526D01*
X138768773Y-113738533D01*
X138867940Y-113937686D01*
X138867943Y-113937690D01*
X139002016Y-114115233D01*
X139002019Y-114115236D01*
X139166433Y-114265120D01*
X139166434Y-114265121D01*
X139166438Y-114265124D01*
X139355599Y-114382247D01*
X139563060Y-114462618D01*
X139781757Y-114503500D01*
X139781759Y-114503500D01*
X140004241Y-114503500D01*
X140004243Y-114503500D01*
X140222940Y-114462618D01*
X140430401Y-114382247D01*
X140619562Y-114265124D01*
X140783981Y-114115236D01*
X140918058Y-113937689D01*
X141017229Y-113738528D01*
X141078115Y-113524536D01*
X141098643Y-113303000D01*
X141078115Y-113081464D01*
X141017229Y-112867472D01*
X140918058Y-112668311D01*
X140783981Y-112490764D01*
X140752124Y-112461722D01*
X140619566Y-112340879D01*
X140619563Y-112340877D01*
X140619562Y-112340876D01*
X140430401Y-112223753D01*
X140430398Y-112223752D01*
X140430397Y-112223751D01*
X140326670Y-112183567D01*
X140222940Y-112143382D01*
X140004243Y-112102500D01*
X139781757Y-112102500D01*
X139563060Y-112143382D01*
X139563055Y-112143384D01*
X139355602Y-112223751D01*
X139166433Y-112340879D01*
X139002019Y-112490763D01*
X139002016Y-112490766D01*
X138867943Y-112668309D01*
X138867940Y-112668313D01*
X138768773Y-112867466D01*
X138768770Y-112867473D01*
X138707885Y-113081461D01*
X138707884Y-113081467D01*
X138687357Y-113303000D01*
X135594344Y-113303000D01*
X135708620Y-113163755D01*
X135807048Y-112979611D01*
X135807051Y-112979604D01*
X135867662Y-112779797D01*
X135867662Y-112779796D01*
X135883000Y-112624077D01*
X135883000Y-111682000D01*
X135010231Y-111682000D01*
X135033000Y-111538247D01*
X135033000Y-111325753D01*
X135010231Y-111182000D01*
X135883000Y-111182000D01*
X135883000Y-110239922D01*
X135867662Y-110084203D01*
X135867662Y-110084202D01*
X135807051Y-109884395D01*
X135807048Y-109884388D01*
X135797720Y-109866936D01*
X162126000Y-109866936D01*
X162126000Y-110260000D01*
X162996854Y-110260000D01*
X162958370Y-110326657D01*
X162926000Y-110447465D01*
X162926000Y-110572535D01*
X162958370Y-110693343D01*
X162996854Y-110760000D01*
X162126000Y-110760000D01*
X162126000Y-111153063D01*
X162136612Y-111241440D01*
X162192080Y-111382097D01*
X162283435Y-111502564D01*
X162403902Y-111593919D01*
X162544560Y-111649387D01*
X162544559Y-111649387D01*
X162632937Y-111660000D01*
X163151000Y-111660000D01*
X163151000Y-110914145D01*
X163217657Y-110952630D01*
X163338465Y-110985000D01*
X163463535Y-110985000D01*
X163584343Y-110952630D01*
X163651000Y-110914145D01*
X163651000Y-111660000D01*
X164169063Y-111660000D01*
X164257440Y-111649387D01*
X164398097Y-111593919D01*
X164518564Y-111502564D01*
X164609919Y-111382097D01*
X164665387Y-111241440D01*
X164676000Y-111153063D01*
X164676000Y-110760000D01*
X163805146Y-110760000D01*
X163843630Y-110693343D01*
X163876000Y-110572535D01*
X163876000Y-110447465D01*
X163843630Y-110326657D01*
X163805146Y-110260000D01*
X164676000Y-110260000D01*
X164676000Y-109866936D01*
X175825000Y-109866936D01*
X175825000Y-110260000D01*
X176695854Y-110260000D01*
X176657370Y-110326657D01*
X176625000Y-110447465D01*
X176625000Y-110572535D01*
X176657370Y-110693343D01*
X176695854Y-110760000D01*
X175825000Y-110760000D01*
X175825000Y-111153063D01*
X175835612Y-111241440D01*
X175891080Y-111382097D01*
X175982435Y-111502564D01*
X176102902Y-111593919D01*
X176243560Y-111649387D01*
X176243559Y-111649387D01*
X176331937Y-111660000D01*
X176850000Y-111660000D01*
X176850000Y-110914145D01*
X176916657Y-110952630D01*
X177037465Y-110985000D01*
X177162535Y-110985000D01*
X177283343Y-110952630D01*
X177350000Y-110914145D01*
X177350000Y-111660000D01*
X177868063Y-111660000D01*
X177956440Y-111649387D01*
X178097097Y-111593919D01*
X178217564Y-111502564D01*
X178308919Y-111382097D01*
X178364387Y-111241440D01*
X178375000Y-111153063D01*
X178375000Y-110760000D01*
X177504146Y-110760000D01*
X177542630Y-110693343D01*
X177575000Y-110572535D01*
X177575000Y-110447465D01*
X177542630Y-110326657D01*
X177504146Y-110260000D01*
X178375000Y-110260000D01*
X178375000Y-109866936D01*
X178364387Y-109778559D01*
X178308919Y-109637902D01*
X178217564Y-109517435D01*
X178097097Y-109426080D01*
X177956439Y-109370612D01*
X177956440Y-109370612D01*
X177868063Y-109360000D01*
X177350000Y-109360000D01*
X177350000Y-110105854D01*
X177283343Y-110067370D01*
X177162535Y-110035000D01*
X177037465Y-110035000D01*
X176916657Y-110067370D01*
X176850000Y-110105854D01*
X176850000Y-109360000D01*
X176331937Y-109360000D01*
X176243559Y-109370612D01*
X176102902Y-109426080D01*
X175982435Y-109517435D01*
X175891080Y-109637902D01*
X175835612Y-109778559D01*
X175825000Y-109866936D01*
X164676000Y-109866936D01*
X164665387Y-109778559D01*
X164609919Y-109637902D01*
X164518564Y-109517435D01*
X164398097Y-109426080D01*
X164257439Y-109370612D01*
X164257440Y-109370612D01*
X164169063Y-109360000D01*
X163651000Y-109360000D01*
X163651000Y-110105854D01*
X163584343Y-110067370D01*
X163463535Y-110035000D01*
X163338465Y-110035000D01*
X163217657Y-110067370D01*
X163151000Y-110105854D01*
X163151000Y-109360000D01*
X162632937Y-109360000D01*
X162544559Y-109370612D01*
X162403902Y-109426080D01*
X162283435Y-109517435D01*
X162192080Y-109637902D01*
X162136612Y-109778559D01*
X162126000Y-109866936D01*
X135797720Y-109866936D01*
X135708620Y-109700244D01*
X135576159Y-109538840D01*
X135414755Y-109406379D01*
X135230611Y-109307951D01*
X135230604Y-109307948D01*
X135030796Y-109247337D01*
X134875077Y-109232000D01*
X133933000Y-109232000D01*
X133933000Y-110104768D01*
X133789247Y-110082000D01*
X133576753Y-110082000D01*
X133433000Y-110104768D01*
X133433000Y-109232000D01*
X132490923Y-109232000D01*
X132335203Y-109247337D01*
X132335202Y-109247337D01*
X132135395Y-109307948D01*
X132135388Y-109307951D01*
X131951244Y-109406379D01*
X131789840Y-109538840D01*
X131657379Y-109700244D01*
X131558951Y-109884388D01*
X131558948Y-109884395D01*
X131498337Y-110084202D01*
X131498337Y-110084203D01*
X131483000Y-110239922D01*
X130000000Y-110239922D01*
X130000000Y-109080597D01*
X159771153Y-109080597D01*
X159771153Y-109080602D01*
X159791633Y-109223054D01*
X159795719Y-109232000D01*
X159851423Y-109353973D01*
X159851424Y-109353974D01*
X159851425Y-109353976D01*
X159936759Y-109452457D01*
X159945672Y-109462743D01*
X160066747Y-109540553D01*
X160143585Y-109563114D01*
X160204834Y-109581099D01*
X160204837Y-109581099D01*
X160204839Y-109581100D01*
X160204840Y-109581100D01*
X160348760Y-109581100D01*
X160348761Y-109581100D01*
X160348763Y-109581099D01*
X160348765Y-109581099D01*
X160371595Y-109574395D01*
X160486853Y-109540553D01*
X160607928Y-109462743D01*
X160702177Y-109353973D01*
X160761965Y-109223057D01*
X160761965Y-109223055D01*
X160761966Y-109223054D01*
X160782447Y-109080602D01*
X160782447Y-109080597D01*
X160761966Y-108938145D01*
X160721732Y-108850047D01*
X160702177Y-108807227D01*
X160658155Y-108756423D01*
X160607928Y-108698457D01*
X160528881Y-108647657D01*
X160486853Y-108620647D01*
X160486850Y-108620646D01*
X160348765Y-108580100D01*
X160348761Y-108580100D01*
X160204839Y-108580100D01*
X160204834Y-108580100D01*
X160066749Y-108620646D01*
X159945671Y-108698457D01*
X159851425Y-108807223D01*
X159851424Y-108807225D01*
X159791633Y-108938145D01*
X159771153Y-109080597D01*
X130000000Y-109080597D01*
X130000000Y-107906535D01*
X162225500Y-107906535D01*
X162225500Y-108113465D01*
X162247586Y-108224500D01*
X162265869Y-108316417D01*
X162265871Y-108316423D01*
X162321873Y-108451623D01*
X162345059Y-108507598D01*
X162460023Y-108679655D01*
X162606345Y-108825977D01*
X162778402Y-108940941D01*
X162969580Y-109020130D01*
X163172535Y-109060500D01*
X163172538Y-109060500D01*
X163629462Y-109060500D01*
X163629465Y-109060500D01*
X163783820Y-109029797D01*
X173512553Y-109029797D01*
X173512553Y-109029802D01*
X173533033Y-109172254D01*
X173560319Y-109232000D01*
X173592823Y-109303173D01*
X173592824Y-109303174D01*
X173592825Y-109303176D01*
X173682251Y-109406379D01*
X173687072Y-109411943D01*
X173808147Y-109489753D01*
X173884985Y-109512314D01*
X173946234Y-109530299D01*
X173946237Y-109530299D01*
X173946239Y-109530300D01*
X173946240Y-109530300D01*
X174090160Y-109530300D01*
X174090161Y-109530300D01*
X174090163Y-109530299D01*
X174090165Y-109530299D01*
X174112995Y-109523595D01*
X174228253Y-109489753D01*
X174349328Y-109411943D01*
X174437664Y-109309997D01*
X186771353Y-109309997D01*
X186771353Y-109310002D01*
X186791833Y-109452454D01*
X186821510Y-109517435D01*
X186851623Y-109583373D01*
X186851624Y-109583374D01*
X186851625Y-109583376D01*
X186898872Y-109637902D01*
X186945872Y-109692143D01*
X187066947Y-109769953D01*
X187143785Y-109792514D01*
X187205034Y-109810499D01*
X187205037Y-109810499D01*
X187205039Y-109810500D01*
X187205040Y-109810500D01*
X187348960Y-109810500D01*
X187348961Y-109810500D01*
X187348963Y-109810499D01*
X187348965Y-109810499D01*
X187371795Y-109803795D01*
X187487053Y-109769953D01*
X187608128Y-109692143D01*
X187702377Y-109583373D01*
X187762165Y-109452457D01*
X187762165Y-109452455D01*
X187762166Y-109452454D01*
X187782647Y-109310002D01*
X187782647Y-109309997D01*
X187762166Y-109167545D01*
X187757751Y-109157879D01*
X187702377Y-109036627D01*
X187696463Y-109029802D01*
X187608128Y-108927857D01*
X187487053Y-108850047D01*
X187487050Y-108850046D01*
X187348965Y-108809500D01*
X187348961Y-108809500D01*
X187205039Y-108809500D01*
X187205034Y-108809500D01*
X187066949Y-108850046D01*
X187066947Y-108850046D01*
X187066947Y-108850047D01*
X187029722Y-108873969D01*
X186945871Y-108927857D01*
X186851625Y-109036623D01*
X186851624Y-109036625D01*
X186791833Y-109167545D01*
X186771353Y-109309997D01*
X174437664Y-109309997D01*
X174443577Y-109303173D01*
X174503365Y-109172257D01*
X174503365Y-109172255D01*
X174503366Y-109172254D01*
X174523847Y-109029802D01*
X174523847Y-109029797D01*
X174503366Y-108887345D01*
X174486332Y-108850046D01*
X174443577Y-108756427D01*
X174416347Y-108725002D01*
X174349328Y-108647657D01*
X174228253Y-108569847D01*
X174228250Y-108569846D01*
X174090165Y-108529300D01*
X174090161Y-108529300D01*
X173946239Y-108529300D01*
X173946234Y-108529300D01*
X173808149Y-108569846D01*
X173808147Y-108569846D01*
X173808147Y-108569847D01*
X173770922Y-108593769D01*
X173687071Y-108647657D01*
X173592825Y-108756423D01*
X173592824Y-108756425D01*
X173533033Y-108887345D01*
X173512553Y-109029797D01*
X163783820Y-109029797D01*
X163832420Y-109020130D01*
X164023598Y-108940941D01*
X164195655Y-108825977D01*
X164341977Y-108679655D01*
X164456941Y-108507598D01*
X164536130Y-108316420D01*
X164576500Y-108113465D01*
X164576500Y-107906535D01*
X175924500Y-107906535D01*
X175924500Y-108113465D01*
X175946586Y-108224500D01*
X175964869Y-108316417D01*
X175964871Y-108316423D01*
X176020873Y-108451623D01*
X176044059Y-108507598D01*
X176159023Y-108679655D01*
X176305345Y-108825977D01*
X176477402Y-108940941D01*
X176668580Y-109020130D01*
X176871535Y-109060500D01*
X176871538Y-109060500D01*
X177328462Y-109060500D01*
X177328465Y-109060500D01*
X177531420Y-109020130D01*
X177722598Y-108940941D01*
X177894655Y-108825977D01*
X177995635Y-108724997D01*
X190835353Y-108724997D01*
X190835353Y-108725002D01*
X190855833Y-108867454D01*
X190883419Y-108927857D01*
X190915623Y-108998373D01*
X190915624Y-108998374D01*
X190915625Y-108998376D01*
X190986874Y-109080602D01*
X191009872Y-109107143D01*
X191130947Y-109184953D01*
X191207785Y-109207514D01*
X191269034Y-109225499D01*
X191269037Y-109225499D01*
X191269039Y-109225500D01*
X191269040Y-109225500D01*
X191412960Y-109225500D01*
X191412961Y-109225500D01*
X191412963Y-109225499D01*
X191412965Y-109225499D01*
X191435795Y-109218795D01*
X191551053Y-109184953D01*
X191672128Y-109107143D01*
X191766377Y-108998373D01*
X191826165Y-108867457D01*
X191826165Y-108867455D01*
X191826166Y-108867454D01*
X191846647Y-108725002D01*
X191846647Y-108724997D01*
X191826166Y-108582545D01*
X191791937Y-108507596D01*
X191766377Y-108451627D01*
X191672128Y-108342857D01*
X191551053Y-108265047D01*
X191551050Y-108265046D01*
X191412965Y-108224500D01*
X191412961Y-108224500D01*
X191269039Y-108224500D01*
X191269034Y-108224500D01*
X191130949Y-108265046D01*
X191009871Y-108342857D01*
X190915625Y-108451623D01*
X190915624Y-108451625D01*
X190855833Y-108582545D01*
X190835353Y-108724997D01*
X177995635Y-108724997D01*
X178040977Y-108679655D01*
X178155941Y-108507598D01*
X178235130Y-108316420D01*
X178275500Y-108113465D01*
X178275500Y-107906535D01*
X178235130Y-107703580D01*
X178155941Y-107512402D01*
X178040977Y-107340345D01*
X177894655Y-107194023D01*
X177722598Y-107079059D01*
X177722596Y-107079058D01*
X177531423Y-106999871D01*
X177531417Y-106999869D01*
X177449572Y-106983589D01*
X177328465Y-106959500D01*
X176871535Y-106959500D01*
X176770520Y-106979592D01*
X176668582Y-106999869D01*
X176668576Y-106999871D01*
X176477403Y-107079058D01*
X176305345Y-107194022D01*
X176159022Y-107340345D01*
X176044058Y-107512403D01*
X175964871Y-107703576D01*
X175964869Y-107703582D01*
X175944592Y-107805520D01*
X175924500Y-107906535D01*
X164576500Y-107906535D01*
X164536130Y-107703580D01*
X164456941Y-107512402D01*
X164341977Y-107340345D01*
X164195655Y-107194023D01*
X164023598Y-107079059D01*
X164023596Y-107079058D01*
X163832423Y-106999871D01*
X163832417Y-106999869D01*
X163750572Y-106983589D01*
X163629465Y-106959500D01*
X163172535Y-106959500D01*
X163071520Y-106979592D01*
X162969582Y-106999869D01*
X162969576Y-106999871D01*
X162778403Y-107079058D01*
X162606345Y-107194022D01*
X162460022Y-107340345D01*
X162345058Y-107512403D01*
X162265871Y-107703576D01*
X162265869Y-107703582D01*
X162245592Y-107805520D01*
X162225500Y-107906535D01*
X130000000Y-107906535D01*
X130000000Y-103378712D01*
X131649500Y-103378712D01*
X131649500Y-103621288D01*
X131681162Y-103861789D01*
X131681163Y-103861793D01*
X131681164Y-103861800D01*
X131743944Y-104096095D01*
X131743946Y-104096101D01*
X131836776Y-104320213D01*
X131958062Y-104530286D01*
X131958072Y-104530301D01*
X132105730Y-104722732D01*
X132105740Y-104722744D01*
X132277255Y-104894259D01*
X132277267Y-104894269D01*
X132469698Y-105041927D01*
X132469707Y-105041933D01*
X132469711Y-105041936D01*
X132679788Y-105163224D01*
X132903900Y-105256054D01*
X132903904Y-105256055D01*
X133138199Y-105318835D01*
X133138200Y-105318835D01*
X133138211Y-105318838D01*
X133378712Y-105350500D01*
X133378716Y-105350500D01*
X133621284Y-105350500D01*
X133621288Y-105350500D01*
X133861789Y-105318838D01*
X133995537Y-105283000D01*
X139837357Y-105283000D01*
X139857884Y-105504532D01*
X139857885Y-105504538D01*
X139918770Y-105718526D01*
X139918773Y-105718533D01*
X140017940Y-105917686D01*
X140017941Y-105917688D01*
X140017942Y-105917689D01*
X140046027Y-105954880D01*
X140152016Y-106095233D01*
X140152019Y-106095236D01*
X140316433Y-106245120D01*
X140316434Y-106245121D01*
X140316438Y-106245124D01*
X140505599Y-106362247D01*
X140713060Y-106442618D01*
X140931757Y-106483500D01*
X140931759Y-106483500D01*
X141154241Y-106483500D01*
X141154243Y-106483500D01*
X141372940Y-106442618D01*
X141580401Y-106362247D01*
X141769562Y-106245124D01*
X141933981Y-106095236D01*
X142068058Y-105917689D01*
X142167229Y-105718528D01*
X142228115Y-105504536D01*
X142248643Y-105283000D01*
X142228115Y-105061464D01*
X142167229Y-104847472D01*
X142068058Y-104648311D01*
X141933981Y-104470764D01*
X141824312Y-104370787D01*
X141769566Y-104320879D01*
X141769563Y-104320877D01*
X141769562Y-104320876D01*
X141648906Y-104246169D01*
X141627004Y-104215728D01*
X141633041Y-104178714D01*
X141642206Y-104167834D01*
X141679685Y-104134632D01*
X156050500Y-104134632D01*
X156050500Y-105774128D01*
X156062133Y-105832611D01*
X156079882Y-105859175D01*
X156106447Y-105898932D01*
X156133012Y-105916681D01*
X156172769Y-105943247D01*
X156231252Y-105954880D01*
X156231255Y-105954880D01*
X157870745Y-105954880D01*
X157870748Y-105954880D01*
X157929231Y-105943247D01*
X157995552Y-105898932D01*
X158039867Y-105832611D01*
X158051500Y-105774128D01*
X158051500Y-105406535D01*
X162225500Y-105406535D01*
X162225500Y-105613465D01*
X162246398Y-105718526D01*
X162265869Y-105816417D01*
X162265871Y-105816423D01*
X162318403Y-105943246D01*
X162345059Y-106007598D01*
X162460023Y-106179655D01*
X162606345Y-106325977D01*
X162778402Y-106440941D01*
X162969580Y-106520130D01*
X163172535Y-106560500D01*
X163172538Y-106560500D01*
X163629462Y-106560500D01*
X163629465Y-106560500D01*
X163832420Y-106520130D01*
X164023598Y-106440941D01*
X164195655Y-106325977D01*
X164341977Y-106179655D01*
X164456941Y-106007598D01*
X164536130Y-105816420D01*
X164576500Y-105613465D01*
X164576500Y-105406535D01*
X164536130Y-105203580D01*
X164456941Y-105012402D01*
X164341977Y-104840345D01*
X164195655Y-104694023D01*
X164023598Y-104579059D01*
X164023596Y-104579058D01*
X163832423Y-104499871D01*
X163832417Y-104499869D01*
X163750572Y-104483589D01*
X163629465Y-104459500D01*
X163172535Y-104459500D01*
X163071520Y-104479592D01*
X162969582Y-104499869D01*
X162969576Y-104499871D01*
X162778403Y-104579058D01*
X162606345Y-104694022D01*
X162460022Y-104840345D01*
X162345058Y-105012403D01*
X162265871Y-105203576D01*
X162265869Y-105203582D01*
X162255432Y-105256054D01*
X162225500Y-105406535D01*
X158051500Y-105406535D01*
X158051500Y-104134632D01*
X169766500Y-104134632D01*
X169766500Y-105774128D01*
X169778133Y-105832611D01*
X169795882Y-105859175D01*
X169822447Y-105898932D01*
X169849012Y-105916681D01*
X169888769Y-105943247D01*
X169947252Y-105954880D01*
X169947255Y-105954880D01*
X171586745Y-105954880D01*
X171586748Y-105954880D01*
X171645231Y-105943247D01*
X171711552Y-105898932D01*
X171755867Y-105832611D01*
X171767500Y-105774128D01*
X171767500Y-105406535D01*
X175924500Y-105406535D01*
X175924500Y-105613465D01*
X175945398Y-105718526D01*
X175964869Y-105816417D01*
X175964871Y-105816423D01*
X176017403Y-105943246D01*
X176044059Y-106007598D01*
X176159023Y-106179655D01*
X176305345Y-106325977D01*
X176477402Y-106440941D01*
X176668580Y-106520130D01*
X176871535Y-106560500D01*
X176871538Y-106560500D01*
X177328462Y-106560500D01*
X177328465Y-106560500D01*
X177531420Y-106520130D01*
X177722598Y-106440941D01*
X177894655Y-106325977D01*
X178040977Y-106179655D01*
X178155941Y-106007598D01*
X178235130Y-105816420D01*
X178275500Y-105613465D01*
X178275500Y-105406535D01*
X178235130Y-105203580D01*
X178155941Y-105012402D01*
X178040977Y-104840345D01*
X177894655Y-104694023D01*
X177722598Y-104579059D01*
X177722596Y-104579058D01*
X177531423Y-104499871D01*
X177531417Y-104499869D01*
X177449572Y-104483589D01*
X177328465Y-104459500D01*
X176871535Y-104459500D01*
X176770520Y-104479592D01*
X176668582Y-104499869D01*
X176668576Y-104499871D01*
X176477403Y-104579058D01*
X176305345Y-104694022D01*
X176159022Y-104840345D01*
X176044058Y-105012403D01*
X175964871Y-105203576D01*
X175964869Y-105203582D01*
X175954432Y-105256054D01*
X175924500Y-105406535D01*
X171767500Y-105406535D01*
X171767500Y-104134632D01*
X171755867Y-104076149D01*
X171718436Y-104020130D01*
X171711552Y-104009827D01*
X171671795Y-103983262D01*
X171645231Y-103965513D01*
X171586748Y-103953880D01*
X169947252Y-103953880D01*
X169888769Y-103965513D01*
X169822447Y-104009827D01*
X169788589Y-104060500D01*
X169778133Y-104076149D01*
X169766500Y-104134632D01*
X158051500Y-104134632D01*
X158039867Y-104076149D01*
X158002436Y-104020130D01*
X157995552Y-104009827D01*
X157955795Y-103983262D01*
X157929231Y-103965513D01*
X157870748Y-103953880D01*
X156231252Y-103953880D01*
X156172769Y-103965513D01*
X156106447Y-104009827D01*
X156072589Y-104060500D01*
X156062133Y-104076149D01*
X156050500Y-104134632D01*
X141679685Y-104134632D01*
X141704183Y-104112929D01*
X141800818Y-103972930D01*
X141861140Y-103813872D01*
X141881645Y-103645000D01*
X141861140Y-103476128D01*
X141800818Y-103317070D01*
X141800371Y-103316423D01*
X141704183Y-103177071D01*
X141665429Y-103142738D01*
X141576852Y-103064266D01*
X141576844Y-103064262D01*
X141576843Y-103064261D01*
X141426224Y-102985209D01*
X141261056Y-102944500D01*
X141090944Y-102944500D01*
X140925775Y-102985209D01*
X140775156Y-103064261D01*
X140775151Y-103064264D01*
X140775148Y-103064266D01*
X140775146Y-103064268D01*
X140647816Y-103177071D01*
X140551182Y-103317068D01*
X140551181Y-103317070D01*
X140503317Y-103443280D01*
X140490860Y-103476128D01*
X140470355Y-103645000D01*
X140490860Y-103813872D01*
X140494798Y-103824255D01*
X140551181Y-103972929D01*
X140551182Y-103972931D01*
X140632004Y-104090021D01*
X140639875Y-104126688D01*
X140619513Y-104158182D01*
X140609379Y-104163547D01*
X140505602Y-104203751D01*
X140316433Y-104320879D01*
X140152019Y-104470763D01*
X140152016Y-104470766D01*
X140017943Y-104648309D01*
X140017940Y-104648313D01*
X139918773Y-104847466D01*
X139918770Y-104847473D01*
X139857885Y-105061461D01*
X139857884Y-105061467D01*
X139837357Y-105283000D01*
X133995537Y-105283000D01*
X134096100Y-105256054D01*
X134320212Y-105163224D01*
X134530289Y-105041936D01*
X134722738Y-104894265D01*
X134894265Y-104722738D01*
X135041936Y-104530289D01*
X135163224Y-104320212D01*
X135256054Y-104096100D01*
X135318838Y-103861789D01*
X135350500Y-103621288D01*
X135350500Y-103378712D01*
X135318838Y-103138211D01*
X135281708Y-102999643D01*
X135256055Y-102903904D01*
X135256053Y-102903898D01*
X135237718Y-102859632D01*
X135163224Y-102679788D01*
X135041936Y-102469711D01*
X135041933Y-102469707D01*
X135041927Y-102469698D01*
X135030173Y-102454380D01*
X155946287Y-102454380D01*
X155965096Y-102657366D01*
X155965098Y-102657375D01*
X156020883Y-102853443D01*
X156020884Y-102853444D01*
X156111752Y-103035934D01*
X156113533Y-103038292D01*
X156651000Y-102500825D01*
X156651000Y-102507041D01*
X156678259Y-102608774D01*
X156730920Y-102699986D01*
X156805394Y-102774460D01*
X156896606Y-102827121D01*
X156998339Y-102854380D01*
X157004553Y-102854380D01*
X156470311Y-103388620D01*
X156470311Y-103388621D01*
X156558590Y-103443280D01*
X156748674Y-103516918D01*
X156949072Y-103554380D01*
X157152928Y-103554380D01*
X157353325Y-103516918D01*
X157543409Y-103443280D01*
X157631687Y-103388621D01*
X157631687Y-103388620D01*
X157097447Y-102854380D01*
X157103661Y-102854380D01*
X157205394Y-102827121D01*
X157296606Y-102774460D01*
X157371080Y-102699986D01*
X157423741Y-102608774D01*
X157451000Y-102507041D01*
X157451000Y-102500827D01*
X157988465Y-103038292D01*
X157990245Y-103035935D01*
X158054679Y-102906535D01*
X162225500Y-102906535D01*
X162225500Y-103113465D01*
X162238152Y-103177071D01*
X162265869Y-103316417D01*
X162265871Y-103316423D01*
X162345058Y-103507596D01*
X162345059Y-103507598D01*
X162460023Y-103679655D01*
X162606345Y-103825977D01*
X162778402Y-103940941D01*
X162969580Y-104020130D01*
X163172535Y-104060500D01*
X163172538Y-104060500D01*
X163629462Y-104060500D01*
X163629465Y-104060500D01*
X163832420Y-104020130D01*
X164023598Y-103940941D01*
X164195655Y-103825977D01*
X164341977Y-103679655D01*
X164456941Y-103507598D01*
X164536130Y-103316420D01*
X164576500Y-103113465D01*
X164576500Y-102906535D01*
X164536130Y-102703580D01*
X164456941Y-102512402D01*
X164418172Y-102454380D01*
X169662287Y-102454380D01*
X169681096Y-102657366D01*
X169681098Y-102657375D01*
X169736883Y-102853443D01*
X169736884Y-102853444D01*
X169827752Y-103035934D01*
X169829533Y-103038292D01*
X170367000Y-102500825D01*
X170367000Y-102507041D01*
X170394259Y-102608774D01*
X170446920Y-102699986D01*
X170521394Y-102774460D01*
X170612606Y-102827121D01*
X170714339Y-102854380D01*
X170720553Y-102854380D01*
X170186311Y-103388620D01*
X170186311Y-103388621D01*
X170274590Y-103443280D01*
X170464674Y-103516918D01*
X170665072Y-103554380D01*
X170868928Y-103554380D01*
X171069325Y-103516918D01*
X171259409Y-103443280D01*
X171347687Y-103388621D01*
X171347687Y-103388620D01*
X170813447Y-102854380D01*
X170819661Y-102854380D01*
X170921394Y-102827121D01*
X171012606Y-102774460D01*
X171087080Y-102699986D01*
X171139741Y-102608774D01*
X171167000Y-102507041D01*
X171167000Y-102500827D01*
X171704465Y-103038292D01*
X171706245Y-103035935D01*
X171770679Y-102906535D01*
X175924500Y-102906535D01*
X175924500Y-103113465D01*
X175937152Y-103177071D01*
X175964869Y-103316417D01*
X175964871Y-103316423D01*
X176044058Y-103507596D01*
X176044059Y-103507598D01*
X176159023Y-103679655D01*
X176305345Y-103825977D01*
X176477402Y-103940941D01*
X176668580Y-104020130D01*
X176871535Y-104060500D01*
X176871538Y-104060500D01*
X177328462Y-104060500D01*
X177328465Y-104060500D01*
X177531420Y-104020130D01*
X177722598Y-103940941D01*
X177894655Y-103825977D01*
X178040977Y-103679655D01*
X178064133Y-103645000D01*
X182639435Y-103645000D01*
X182659631Y-103824249D01*
X182659633Y-103824258D01*
X182719212Y-103994526D01*
X182783037Y-104096101D01*
X182815184Y-104147262D01*
X182942738Y-104274816D01*
X182942740Y-104274817D01*
X183095473Y-104370787D01*
X183095477Y-104370788D01*
X183095478Y-104370789D01*
X183265745Y-104430368D01*
X183445000Y-104450565D01*
X183624255Y-104430368D01*
X183794522Y-104370789D01*
X183794524Y-104370787D01*
X183794526Y-104370787D01*
X183875013Y-104320213D01*
X183947262Y-104274816D01*
X184074816Y-104147262D01*
X184135555Y-104050596D01*
X184170787Y-103994526D01*
X184170787Y-103994524D01*
X184170789Y-103994522D01*
X184230368Y-103824255D01*
X184250565Y-103645000D01*
X184439435Y-103645000D01*
X184459631Y-103824249D01*
X184459633Y-103824258D01*
X184519212Y-103994526D01*
X184583037Y-104096101D01*
X184615184Y-104147262D01*
X184742738Y-104274816D01*
X184742740Y-104274817D01*
X184895473Y-104370787D01*
X184895477Y-104370788D01*
X184895478Y-104370789D01*
X185065745Y-104430368D01*
X185245000Y-104450565D01*
X185424255Y-104430368D01*
X185594522Y-104370789D01*
X185594524Y-104370787D01*
X185594526Y-104370787D01*
X185675013Y-104320213D01*
X185747262Y-104274816D01*
X185874816Y-104147262D01*
X185935555Y-104050596D01*
X185970787Y-103994526D01*
X185970787Y-103994524D01*
X185970789Y-103994522D01*
X186030368Y-103824255D01*
X186050565Y-103645000D01*
X186030368Y-103465745D01*
X185999914Y-103378712D01*
X188149500Y-103378712D01*
X188149500Y-103621288D01*
X188181162Y-103861789D01*
X188181163Y-103861793D01*
X188181164Y-103861800D01*
X188243944Y-104096095D01*
X188243946Y-104096101D01*
X188336776Y-104320213D01*
X188458062Y-104530286D01*
X188458072Y-104530301D01*
X188605730Y-104722732D01*
X188605740Y-104722744D01*
X188777255Y-104894259D01*
X188777267Y-104894269D01*
X188969698Y-105041927D01*
X188969707Y-105041933D01*
X188969711Y-105041936D01*
X189179788Y-105163224D01*
X189403900Y-105256054D01*
X189403904Y-105256055D01*
X189638199Y-105318835D01*
X189638200Y-105318835D01*
X189638211Y-105318838D01*
X189878712Y-105350500D01*
X189878716Y-105350500D01*
X190121284Y-105350500D01*
X190121288Y-105350500D01*
X190361789Y-105318838D01*
X190596100Y-105256054D01*
X190820212Y-105163224D01*
X191030289Y-105041936D01*
X191222738Y-104894265D01*
X191394265Y-104722738D01*
X191541936Y-104530289D01*
X191663224Y-104320212D01*
X191756054Y-104096100D01*
X191818838Y-103861789D01*
X191850500Y-103621288D01*
X191850500Y-103378712D01*
X191818838Y-103138211D01*
X191781708Y-102999643D01*
X191756055Y-102903904D01*
X191756053Y-102903898D01*
X191737718Y-102859632D01*
X191663224Y-102679788D01*
X191541936Y-102469711D01*
X191541933Y-102469707D01*
X191541927Y-102469698D01*
X191394269Y-102277267D01*
X191394259Y-102277255D01*
X191222744Y-102105740D01*
X191222732Y-102105730D01*
X191030301Y-101958072D01*
X191030286Y-101958062D01*
X190820212Y-101836776D01*
X190820213Y-101836776D01*
X190596101Y-101743946D01*
X190596095Y-101743944D01*
X190361800Y-101681164D01*
X190361793Y-101681163D01*
X190361789Y-101681162D01*
X190121288Y-101649500D01*
X189878712Y-101649500D01*
X189638211Y-101681162D01*
X189638207Y-101681162D01*
X189638199Y-101681164D01*
X189403904Y-101743944D01*
X189403898Y-101743946D01*
X189179786Y-101836776D01*
X188969713Y-101958062D01*
X188969698Y-101958072D01*
X188777267Y-102105730D01*
X188777255Y-102105740D01*
X188605740Y-102277255D01*
X188605730Y-102277267D01*
X188458072Y-102469698D01*
X188458062Y-102469713D01*
X188336776Y-102679786D01*
X188243946Y-102903898D01*
X188243944Y-102903904D01*
X188181164Y-103138199D01*
X188181162Y-103138207D01*
X188181162Y-103138211D01*
X188149500Y-103378712D01*
X185999914Y-103378712D01*
X185970789Y-103295478D01*
X185970788Y-103295477D01*
X185970787Y-103295473D01*
X185874817Y-103142740D01*
X185874816Y-103142738D01*
X185747262Y-103015184D01*
X185747259Y-103015182D01*
X185594526Y-102919212D01*
X185424258Y-102859633D01*
X185424257Y-102859632D01*
X185424255Y-102859632D01*
X185424251Y-102859631D01*
X185424249Y-102859631D01*
X185245000Y-102839435D01*
X185065750Y-102859631D01*
X185065741Y-102859633D01*
X184895473Y-102919212D01*
X184742740Y-103015182D01*
X184742736Y-103015185D01*
X184615185Y-103142736D01*
X184615182Y-103142740D01*
X184519212Y-103295473D01*
X184459633Y-103465741D01*
X184459631Y-103465750D01*
X184439435Y-103645000D01*
X184250565Y-103645000D01*
X184230368Y-103465745D01*
X184170789Y-103295478D01*
X184170788Y-103295477D01*
X184170787Y-103295473D01*
X184074817Y-103142740D01*
X184074816Y-103142738D01*
X183947262Y-103015184D01*
X183947259Y-103015182D01*
X183794526Y-102919212D01*
X183624258Y-102859633D01*
X183624257Y-102859632D01*
X183624255Y-102859632D01*
X183624251Y-102859631D01*
X183624249Y-102859631D01*
X183445000Y-102839435D01*
X183265750Y-102859631D01*
X183265741Y-102859633D01*
X183095473Y-102919212D01*
X182942740Y-103015182D01*
X182942736Y-103015185D01*
X182815185Y-103142736D01*
X182815182Y-103142740D01*
X182719212Y-103295473D01*
X182659633Y-103465741D01*
X182659631Y-103465750D01*
X182639435Y-103645000D01*
X178064133Y-103645000D01*
X178155941Y-103507598D01*
X178235130Y-103316420D01*
X178275500Y-103113465D01*
X178275500Y-102906535D01*
X178235130Y-102703580D01*
X178155941Y-102512402D01*
X178040977Y-102340345D01*
X177894655Y-102194023D01*
X177722598Y-102079059D01*
X177665278Y-102055316D01*
X177531423Y-101999871D01*
X177531417Y-101999869D01*
X177449572Y-101983589D01*
X177328465Y-101959500D01*
X176871535Y-101959500D01*
X176770520Y-101979592D01*
X176668582Y-101999869D01*
X176668576Y-101999871D01*
X176477403Y-102079058D01*
X176305345Y-102194022D01*
X176159022Y-102340345D01*
X176044058Y-102512403D01*
X175964871Y-102703576D01*
X175964869Y-102703582D01*
X175950771Y-102774460D01*
X175924500Y-102906535D01*
X171770679Y-102906535D01*
X171797115Y-102853444D01*
X171797116Y-102853443D01*
X171852901Y-102657375D01*
X171852903Y-102657366D01*
X171871712Y-102454380D01*
X171852903Y-102251393D01*
X171852901Y-102251384D01*
X171797116Y-102055316D01*
X171797115Y-102055315D01*
X171706244Y-101872820D01*
X171704465Y-101870465D01*
X171167000Y-102407931D01*
X171167000Y-102401719D01*
X171139741Y-102299986D01*
X171087080Y-102208774D01*
X171012606Y-102134300D01*
X170921394Y-102081639D01*
X170819661Y-102054380D01*
X170813445Y-102054380D01*
X171347687Y-101520138D01*
X171347687Y-101520137D01*
X171259410Y-101465479D01*
X171069325Y-101391841D01*
X170868928Y-101354380D01*
X170665072Y-101354380D01*
X170464674Y-101391841D01*
X170274589Y-101465479D01*
X170186310Y-101520138D01*
X170720553Y-102054380D01*
X170714339Y-102054380D01*
X170612606Y-102081639D01*
X170521394Y-102134300D01*
X170446920Y-102208774D01*
X170394259Y-102299986D01*
X170367000Y-102401719D01*
X170367000Y-102407933D01*
X169829533Y-101870466D01*
X169827751Y-101872829D01*
X169736884Y-102055315D01*
X169736883Y-102055316D01*
X169681098Y-102251384D01*
X169681096Y-102251393D01*
X169662287Y-102454380D01*
X164418172Y-102454380D01*
X164341977Y-102340345D01*
X164195655Y-102194023D01*
X164023598Y-102079059D01*
X163966278Y-102055316D01*
X163832423Y-101999871D01*
X163832417Y-101999869D01*
X163750572Y-101983589D01*
X163629465Y-101959500D01*
X163172535Y-101959500D01*
X163071520Y-101979592D01*
X162969582Y-101999869D01*
X162969576Y-101999871D01*
X162778403Y-102079058D01*
X162606345Y-102194022D01*
X162460022Y-102340345D01*
X162345058Y-102512403D01*
X162265871Y-102703576D01*
X162265869Y-102703582D01*
X162251771Y-102774460D01*
X162225500Y-102906535D01*
X158054679Y-102906535D01*
X158081115Y-102853444D01*
X158081116Y-102853443D01*
X158136901Y-102657375D01*
X158136903Y-102657366D01*
X158155712Y-102454380D01*
X158136903Y-102251393D01*
X158136901Y-102251384D01*
X158081116Y-102055316D01*
X158081115Y-102055315D01*
X157990244Y-101872820D01*
X157988465Y-101870465D01*
X157451000Y-102407931D01*
X157451000Y-102401719D01*
X157423741Y-102299986D01*
X157371080Y-102208774D01*
X157296606Y-102134300D01*
X157205394Y-102081639D01*
X157103661Y-102054380D01*
X157097445Y-102054380D01*
X157631687Y-101520138D01*
X157631687Y-101520137D01*
X157543410Y-101465479D01*
X157353325Y-101391841D01*
X157152928Y-101354380D01*
X156949072Y-101354380D01*
X156748674Y-101391841D01*
X156558589Y-101465479D01*
X156470310Y-101520138D01*
X157004553Y-102054380D01*
X156998339Y-102054380D01*
X156896606Y-102081639D01*
X156805394Y-102134300D01*
X156730920Y-102208774D01*
X156678259Y-102299986D01*
X156651000Y-102401719D01*
X156651000Y-102407933D01*
X156113533Y-101870466D01*
X156111751Y-101872829D01*
X156020884Y-102055315D01*
X156020883Y-102055316D01*
X155965098Y-102251384D01*
X155965096Y-102251393D01*
X155946287Y-102454380D01*
X135030173Y-102454380D01*
X134894269Y-102277267D01*
X134894259Y-102277255D01*
X134722744Y-102105740D01*
X134722732Y-102105730D01*
X134530301Y-101958072D01*
X134530286Y-101958062D01*
X134320212Y-101836776D01*
X134320213Y-101836776D01*
X134096101Y-101743946D01*
X134096095Y-101743944D01*
X133861800Y-101681164D01*
X133861793Y-101681163D01*
X133861789Y-101681162D01*
X133621288Y-101649500D01*
X133378712Y-101649500D01*
X133138211Y-101681162D01*
X133138207Y-101681162D01*
X133138199Y-101681164D01*
X132903904Y-101743944D01*
X132903898Y-101743946D01*
X132679786Y-101836776D01*
X132469713Y-101958062D01*
X132469698Y-101958072D01*
X132277267Y-102105730D01*
X132277255Y-102105740D01*
X132105740Y-102277255D01*
X132105730Y-102277267D01*
X131958072Y-102469698D01*
X131958062Y-102469713D01*
X131836776Y-102679786D01*
X131743946Y-102903898D01*
X131743944Y-102903904D01*
X131681164Y-103138199D01*
X131681162Y-103138207D01*
X131681162Y-103138211D01*
X131649500Y-103378712D01*
X130000000Y-103378712D01*
X130000000Y-103000330D01*
X130000005Y-102999643D01*
X130000778Y-102944500D01*
X130002326Y-102834060D01*
X130002629Y-102829266D01*
X130016791Y-102703576D01*
X130039750Y-102499807D01*
X130040668Y-102494405D01*
X130114366Y-102171511D01*
X130115881Y-102166253D01*
X130225274Y-101853627D01*
X130227368Y-101848573D01*
X130371070Y-101550171D01*
X130373717Y-101545382D01*
X130549930Y-101264941D01*
X130553096Y-101260477D01*
X130759605Y-101001523D01*
X130763251Y-100997444D01*
X130997444Y-100763251D01*
X131001523Y-100759605D01*
X131260477Y-100553096D01*
X131264941Y-100549930D01*
X131545382Y-100373717D01*
X131550171Y-100371070D01*
X131848573Y-100227368D01*
X131853627Y-100225274D01*
X132166253Y-100115881D01*
X132171511Y-100114366D01*
X132494405Y-100040668D01*
X132499807Y-100039750D01*
X132829271Y-100002628D01*
X132834060Y-100002326D01*
X132999643Y-100000004D01*
X133000330Y-100000000D01*
X193832000Y-100000000D01*
X193866648Y-100014352D01*
G37*
%TD.AperFunction*%
%TD*%
M02*
