%TF.GenerationSoftware,KiCad,Pcbnew,9.0.0*%
%TF.CreationDate,2025-03-30T21:06:10+09:00*%
%TF.ProjectId,GN10Mainboard,474e3130-4d61-4696-9e62-6f6172642e6b,rev?*%
%TF.SameCoordinates,Original*%
%TF.FileFunction,Paste,Top*%
%TF.FilePolarity,Positive*%
%FSLAX46Y46*%
G04 Gerber Fmt 4.6, Leading zero omitted, Abs format (unit mm)*
G04 Created by KiCad (PCBNEW 9.0.0) date 2025-03-30 21:06:10*
%MOMM*%
%LPD*%
G01*
G04 APERTURE LIST*
G04 Aperture macros list*
%AMRoundRect*
0 Rectangle with rounded corners*
0 $1 Rounding radius*
0 $2 $3 $4 $5 $6 $7 $8 $9 X,Y pos of 4 corners*
0 Add a 4 corners polygon primitive as box body*
4,1,4,$2,$3,$4,$5,$6,$7,$8,$9,$2,$3,0*
0 Add four circle primitives for the rounded corners*
1,1,$1+$1,$2,$3*
1,1,$1+$1,$4,$5*
1,1,$1+$1,$6,$7*
1,1,$1+$1,$8,$9*
0 Add four rect primitives between the rounded corners*
20,1,$1+$1,$2,$3,$4,$5,0*
20,1,$1+$1,$4,$5,$6,$7,0*
20,1,$1+$1,$6,$7,$8,$9,0*
20,1,$1+$1,$8,$9,$2,$3,0*%
G04 Aperture macros list end*
%ADD10RoundRect,0.237500X-0.250000X-0.237500X0.250000X-0.237500X0.250000X0.237500X-0.250000X0.237500X0*%
%ADD11RoundRect,0.237500X-0.287500X-0.237500X0.287500X-0.237500X0.287500X0.237500X-0.287500X0.237500X0*%
%ADD12RoundRect,0.237500X0.250000X0.237500X-0.250000X0.237500X-0.250000X-0.237500X0.250000X-0.237500X0*%
%ADD13RoundRect,0.155000X-0.212500X-0.155000X0.212500X-0.155000X0.212500X0.155000X-0.212500X0.155000X0*%
%ADD14RoundRect,0.155000X0.212500X0.155000X-0.212500X0.155000X-0.212500X-0.155000X0.212500X-0.155000X0*%
%ADD15R,1.600000X1.050000*%
%ADD16RoundRect,0.237500X0.287500X0.237500X-0.287500X0.237500X-0.287500X-0.237500X0.287500X-0.237500X0*%
%ADD17R,0.700000X1.300000*%
%ADD18R,1.300000X0.700000*%
%ADD19R,0.900000X0.900000*%
%ADD20RoundRect,0.150000X0.150000X-0.825000X0.150000X0.825000X-0.150000X0.825000X-0.150000X-0.825000X0*%
%ADD21RoundRect,0.160000X-0.160000X0.197500X-0.160000X-0.197500X0.160000X-0.197500X0.160000X0.197500X0*%
%ADD22RoundRect,0.237500X-0.237500X0.300000X-0.237500X-0.300000X0.237500X-0.300000X0.237500X0.300000X0*%
%ADD23RoundRect,0.237500X0.237500X-0.287500X0.237500X0.287500X-0.237500X0.287500X-0.237500X-0.287500X0*%
%ADD24RoundRect,0.250000X0.475000X-0.337500X0.475000X0.337500X-0.475000X0.337500X-0.475000X-0.337500X0*%
%ADD25RoundRect,0.160000X-0.197500X-0.160000X0.197500X-0.160000X0.197500X0.160000X-0.197500X0.160000X0*%
%ADD26RoundRect,0.155000X0.155000X-0.212500X0.155000X0.212500X-0.155000X0.212500X-0.155000X-0.212500X0*%
%ADD27RoundRect,0.250000X-0.475000X0.337500X-0.475000X-0.337500X0.475000X-0.337500X0.475000X0.337500X0*%
%ADD28R,1.450000X0.600000*%
%ADD29R,1.450000X0.300000*%
%ADD30R,1.200000X1.200000*%
%ADD31R,1.050000X1.600000*%
%ADD32RoundRect,0.250000X-0.337500X-0.475000X0.337500X-0.475000X0.337500X0.475000X-0.337500X0.475000X0*%
%ADD33R,1.000000X1.800000*%
%ADD34RoundRect,0.160000X0.160000X-0.197500X0.160000X0.197500X-0.160000X0.197500X-0.160000X-0.197500X0*%
%ADD35RoundRect,0.237500X-0.237500X0.250000X-0.237500X-0.250000X0.237500X-0.250000X0.237500X0.250000X0*%
%ADD36R,3.200000X0.400000*%
%ADD37RoundRect,0.237500X0.237500X-0.300000X0.237500X0.300000X-0.237500X0.300000X-0.237500X-0.300000X0*%
%ADD38RoundRect,0.160000X0.197500X0.160000X-0.197500X0.160000X-0.197500X-0.160000X0.197500X-0.160000X0*%
%ADD39RoundRect,0.375000X-0.625000X-0.375000X0.625000X-0.375000X0.625000X0.375000X-0.625000X0.375000X0*%
%ADD40RoundRect,0.500000X-0.500000X-1.400000X0.500000X-1.400000X0.500000X1.400000X-0.500000X1.400000X0*%
%ADD41R,1.000000X0.400000*%
%ADD42RoundRect,0.237500X0.237500X-0.250000X0.237500X0.250000X-0.237500X0.250000X-0.237500X-0.250000X0*%
%ADD43R,1.200000X3.000000*%
%ADD44R,1.770000X4.070000*%
%ADD45R,3.000000X1.200000*%
%ADD46R,4.070000X1.770000*%
%ADD47R,1.200000X1.500000*%
%ADD48R,1.200000X0.400000*%
%ADD49R,1.600000X0.760000*%
%ADD50RoundRect,0.155000X-0.155000X0.212500X-0.155000X-0.212500X0.155000X-0.212500X0.155000X0.212500X0*%
%ADD51RoundRect,0.075000X-0.700000X-0.075000X0.700000X-0.075000X0.700000X0.075000X-0.700000X0.075000X0*%
%ADD52RoundRect,0.075000X-0.075000X-0.700000X0.075000X-0.700000X0.075000X0.700000X-0.075000X0.700000X0*%
G04 APERTURE END LIST*
D10*
%TO.C,R25*%
X141152500Y-133490000D03*
X142977500Y-133490000D03*
%TD*%
D11*
%TO.C,D9*%
X190821600Y-141008400D03*
X192571600Y-141008400D03*
%TD*%
D12*
%TO.C,R13*%
X153137500Y-140856000D03*
X151312500Y-140856000D03*
%TD*%
D13*
%TO.C,C21*%
X139846500Y-136157000D03*
X140981500Y-136157000D03*
%TD*%
D10*
%TO.C,R1*%
X141025500Y-117234000D03*
X142850500Y-117234000D03*
%TD*%
D14*
%TO.C,C31*%
X171588500Y-115964000D03*
X170453500Y-115964000D03*
%TD*%
D13*
%TO.C,C25*%
X151276500Y-134125000D03*
X152411500Y-134125000D03*
%TD*%
D15*
%TO.C,SW3*%
X184345000Y-100770000D03*
X184345000Y-106520000D03*
%TD*%
D14*
%TO.C,C30*%
X173620500Y-107455000D03*
X172485500Y-107455000D03*
%TD*%
D16*
%TO.C,D12*%
X142051000Y-137681000D03*
X140301000Y-137681000D03*
%TD*%
%TO.C,D13*%
X145480000Y-137681000D03*
X143730000Y-137681000D03*
%TD*%
D17*
%TO.C,U6*%
X193182000Y-117600000D03*
X192182000Y-117600000D03*
X191182000Y-117600000D03*
X190182000Y-117600000D03*
X189182000Y-117600000D03*
X188182000Y-117600000D03*
X187182000Y-117600000D03*
X186182000Y-117600000D03*
X185182000Y-117600000D03*
X184182000Y-117600000D03*
X183182000Y-117600000D03*
X182182000Y-117600000D03*
X181182000Y-117600000D03*
D18*
X179532000Y-119000000D03*
X179532000Y-120000000D03*
X179532000Y-121000000D03*
X179532000Y-122000000D03*
X179532000Y-123000000D03*
X179532000Y-124000000D03*
X179532000Y-125000000D03*
X179532000Y-126000000D03*
X179532000Y-127000000D03*
X179532000Y-128000000D03*
X179532000Y-129000000D03*
X179532000Y-130000000D03*
X179532000Y-131000000D03*
D17*
X181182000Y-132400000D03*
X182182000Y-132400000D03*
X183182000Y-132400000D03*
X184182000Y-132400000D03*
X185182000Y-132400000D03*
X186182000Y-132400000D03*
X187182000Y-132400000D03*
X188182000Y-132400000D03*
X189182000Y-132400000D03*
X190182000Y-132400000D03*
X191182000Y-132400000D03*
X192182000Y-132400000D03*
X193182000Y-132400000D03*
D19*
X187382000Y-123120000D03*
X186182000Y-123120000D03*
X184982000Y-123120000D03*
X187382000Y-124320000D03*
X186182000Y-124320000D03*
X184982000Y-124320000D03*
X187382000Y-125520000D03*
X186182000Y-125520000D03*
X184982000Y-125520000D03*
%TD*%
D12*
%TO.C,C11*%
X155193000Y-130569000D03*
X153368000Y-130569000D03*
%TD*%
D20*
%TO.C,U8*%
X155781000Y-114121000D03*
X157051000Y-114121000D03*
X158321000Y-114121000D03*
X159591000Y-114121000D03*
X159591000Y-109171000D03*
X158321000Y-109171000D03*
X157051000Y-109171000D03*
X155781000Y-109171000D03*
%TD*%
D11*
%TO.C,D11*%
X190823500Y-139535200D03*
X192573500Y-139535200D03*
%TD*%
D21*
%TO.C,R5*%
X138890000Y-144068500D03*
X138890000Y-145263500D03*
%TD*%
D22*
%TO.C,C22*%
X137239000Y-140882500D03*
X137239000Y-142607500D03*
%TD*%
D23*
%TO.C,D3*%
X138839200Y-142606000D03*
X138839200Y-140856000D03*
%TD*%
D14*
%TO.C,C18*%
X180986500Y-133998000D03*
X179851500Y-133998000D03*
%TD*%
D24*
%TO.C,C4*%
X152225000Y-122335500D03*
X152225000Y-120260500D03*
%TD*%
D25*
%TO.C,R23*%
X139854000Y-132093000D03*
X141049000Y-132093000D03*
%TD*%
D14*
%TO.C,C10*%
X165552000Y-134379000D03*
X164417000Y-134379000D03*
%TD*%
D26*
%TO.C,C6*%
X155781000Y-122720400D03*
X155781000Y-121585400D03*
%TD*%
D27*
%TO.C,C3*%
X141099800Y-126966100D03*
X141099800Y-129041100D03*
%TD*%
D11*
%TO.C,D10*%
X190823500Y-138062000D03*
X192573500Y-138062000D03*
%TD*%
D28*
%TO.C,J3*%
X138030000Y-130100000D03*
X138030000Y-130900000D03*
D29*
X138030000Y-132100000D03*
X138030000Y-133100000D03*
X138030000Y-133600000D03*
X138030000Y-134600000D03*
D28*
X138030000Y-135800000D03*
X138030000Y-136600000D03*
X138030000Y-136600000D03*
X138030000Y-135800000D03*
D29*
X138030000Y-135100000D03*
X138030000Y-134100000D03*
X138030000Y-132600000D03*
X138030000Y-131600000D03*
D28*
X138030000Y-130900000D03*
X138030000Y-130100000D03*
%TD*%
D26*
%TO.C,C17*%
X183594000Y-113356500D03*
X183594000Y-112221500D03*
%TD*%
D14*
%TO.C,C23*%
X143267500Y-131966000D03*
X142132500Y-131966000D03*
%TD*%
D27*
%TO.C,C1*%
X137874000Y-116958500D03*
X137874000Y-119033500D03*
%TD*%
D14*
%TO.C,C12*%
X153427500Y-136411000D03*
X152292500Y-136411000D03*
%TD*%
D30*
%TO.C,D1*%
X141176000Y-125225000D03*
X141176000Y-122425000D03*
%TD*%
D12*
%TO.C,R11*%
X153137500Y-142380000D03*
X151312500Y-142380000D03*
%TD*%
D13*
%TO.C,C20*%
X139846500Y-130899200D03*
X140981500Y-130899200D03*
%TD*%
D12*
%TO.C,R22*%
X189180100Y-139535200D03*
X187355100Y-139535200D03*
%TD*%
D31*
%TO.C,SW1*%
X157005000Y-117361000D03*
X151255000Y-117361000D03*
%TD*%
D12*
%TO.C,R12*%
X149708500Y-140856000D03*
X147883500Y-140856000D03*
%TD*%
D26*
%TO.C,C15*%
X185753000Y-113356500D03*
X185753000Y-112221500D03*
%TD*%
D16*
%TO.C,D5*%
X173232000Y-135014000D03*
X171482000Y-135014000D03*
%TD*%
D32*
%TO.C,C2*%
X139906000Y-101867000D03*
X141981000Y-101867000D03*
%TD*%
D13*
%TO.C,C9*%
X168192900Y-133109000D03*
X169327900Y-133109000D03*
%TD*%
D12*
%TO.C,R10*%
X149708500Y-142380000D03*
X147883500Y-142380000D03*
%TD*%
D16*
%TO.C,D7*%
X173232000Y-131966000D03*
X171482000Y-131966000D03*
%TD*%
D14*
%TO.C,C7*%
X158702000Y-120409000D03*
X157567000Y-120409000D03*
%TD*%
D13*
%TO.C,C28*%
X158388500Y-115837000D03*
X159523500Y-115837000D03*
%TD*%
D20*
%TO.C,U9*%
X169624000Y-114183000D03*
X170894000Y-114183000D03*
X172164000Y-114183000D03*
X173434000Y-114183000D03*
X173434000Y-109233000D03*
X172164000Y-109233000D03*
X170894000Y-109233000D03*
X169624000Y-109233000D03*
%TD*%
D23*
%TO.C,D8*%
X192230000Y-110578500D03*
X192230000Y-108828500D03*
%TD*%
D12*
%TO.C,R17*%
X153137500Y-137808000D03*
X151312500Y-137808000D03*
%TD*%
D13*
%TO.C,C5*%
X158448000Y-117234000D03*
X159583000Y-117234000D03*
%TD*%
D25*
%TO.C,R9*%
X174629000Y-133490000D03*
X175824000Y-133490000D03*
%TD*%
D12*
%TO.C,R14*%
X149708500Y-139332000D03*
X147883500Y-139332000D03*
%TD*%
D33*
%TO.C,Y2*%
X185908000Y-115075000D03*
X183408000Y-115075000D03*
%TD*%
D34*
%TO.C,R7*%
X161242000Y-119774000D03*
X161242000Y-118579000D03*
%TD*%
D12*
%TO.C,R16*%
X149708500Y-137808000D03*
X147883500Y-137808000D03*
%TD*%
%TO.C,R20*%
X189180100Y-141008400D03*
X187355100Y-141008400D03*
%TD*%
D25*
%TO.C,R8*%
X174577000Y-135014000D03*
X175772000Y-135014000D03*
%TD*%
D35*
%TO.C,R2*%
X152860000Y-107351500D03*
X152860000Y-109176500D03*
%TD*%
D36*
%TO.C,Y1*%
X154638000Y-124486000D03*
X154638000Y-125686000D03*
X154638000Y-126886000D03*
%TD*%
D37*
%TO.C,C26*%
X142827000Y-130696000D03*
X142827000Y-128971000D03*
%TD*%
D12*
%TO.C,R15*%
X153137500Y-139332000D03*
X151312500Y-139332000D03*
%TD*%
D25*
%TO.C,R6*%
X147690500Y-101994000D03*
X148885500Y-101994000D03*
%TD*%
D38*
%TO.C,R4*%
X141773500Y-120155000D03*
X140578500Y-120155000D03*
%TD*%
D26*
%TO.C,C8*%
X169370000Y-122060000D03*
X169370000Y-120925000D03*
%TD*%
D39*
%TO.C,U2*%
X143614000Y-121665000D03*
X143614000Y-123965000D03*
D40*
X149914000Y-123965000D03*
D39*
X143614000Y-126265000D03*
%TD*%
D35*
%TO.C,R3*%
X152860000Y-110733500D03*
X152860000Y-112558500D03*
%TD*%
D41*
%TO.C,U4*%
X160132000Y-142313000D03*
X160132000Y-141663000D03*
X160132000Y-141013000D03*
X160132000Y-140363000D03*
X160132000Y-139713000D03*
X160132000Y-139063000D03*
X160132000Y-138413000D03*
X160132000Y-137763000D03*
X160132000Y-137113000D03*
X154732000Y-137113000D03*
X154732000Y-137763000D03*
X154732000Y-138413000D03*
X154732000Y-139063000D03*
X154732000Y-139713000D03*
X154732000Y-140363000D03*
X154732000Y-141013000D03*
X154732000Y-141663000D03*
X154732000Y-142313000D03*
%TD*%
D16*
%TO.C,D4*%
X146369000Y-101867000D03*
X144619000Y-101867000D03*
%TD*%
%TO.C,D2*%
X141543000Y-118885000D03*
X139793000Y-118885000D03*
%TD*%
D35*
%TO.C,R19*%
X192230000Y-112234000D03*
X192230000Y-114059000D03*
%TD*%
D16*
%TO.C,D6*%
X173218000Y-133490000D03*
X171468000Y-133490000D03*
%TD*%
D42*
%TO.C,R26*%
X151590000Y-131378000D03*
X151590000Y-129553000D03*
%TD*%
D13*
%TO.C,C14*%
X188106500Y-114694000D03*
X189241500Y-114694000D03*
%TD*%
D43*
%TO.C,U1*%
X144478000Y-115468000D03*
X139898000Y-115468000D03*
D44*
X139893000Y-113303000D03*
D45*
X138878000Y-112158000D03*
X138878000Y-109868000D03*
D44*
X139893000Y-108723000D03*
D45*
X138878000Y-107578000D03*
D46*
X141043000Y-105283000D03*
D43*
X139898000Y-104268000D03*
X144478000Y-104268000D03*
X149058000Y-104268000D03*
D45*
X150078000Y-109868000D03*
X150078000Y-112158000D03*
D43*
X149058000Y-115468000D03*
X146768000Y-115468000D03*
D47*
X146768000Y-103518000D03*
D45*
X150078000Y-107578000D03*
%TD*%
D32*
%TO.C,C13*%
X188271500Y-113170000D03*
X190346500Y-113170000D03*
%TD*%
D27*
%TO.C,C19*%
X177498000Y-132812000D03*
X177498000Y-134887000D03*
%TD*%
D48*
%TO.C,U7*%
X149872000Y-135141000D03*
X149872000Y-134506000D03*
X149872000Y-133871000D03*
X149872000Y-133236000D03*
X149872000Y-132601000D03*
X149872000Y-131966000D03*
X149872000Y-131331000D03*
X149872000Y-130696000D03*
X149872000Y-130061000D03*
X149872000Y-129426000D03*
X144672000Y-129426000D03*
X144672000Y-130061000D03*
X144672000Y-130696000D03*
X144672000Y-131331000D03*
X144672000Y-131966000D03*
X144672000Y-132601000D03*
X144672000Y-133236000D03*
X144672000Y-133871000D03*
X144672000Y-134506000D03*
X144672000Y-135141000D03*
%TD*%
D49*
%TO.C,SW2*%
X131270000Y-122060000D03*
X131270000Y-123330000D03*
X131270000Y-124600000D03*
X131270000Y-125870000D03*
X138890000Y-125870000D03*
X138890000Y-124600000D03*
X138890000Y-123330000D03*
X138890000Y-122060000D03*
%TD*%
D12*
%TO.C,R21*%
X189182000Y-138062000D03*
X187357000Y-138062000D03*
%TD*%
D25*
%TO.C,R24*%
X139854000Y-135141000D03*
X141049000Y-135141000D03*
%TD*%
D50*
%TO.C,C16*%
X181816000Y-100664500D03*
X181816000Y-101799500D03*
%TD*%
D51*
%TO.C,U3*%
X157726000Y-123263000D03*
X157726000Y-123763000D03*
X157726000Y-124263000D03*
X157726000Y-124763000D03*
X157726000Y-125263000D03*
X157726000Y-125763000D03*
X157726000Y-126263000D03*
X157726000Y-126763000D03*
X157726000Y-127263000D03*
X157726000Y-127763000D03*
X157726000Y-128263000D03*
X157726000Y-128763000D03*
X157726000Y-129263000D03*
X157726000Y-129763000D03*
X157726000Y-130263000D03*
X157726000Y-130763000D03*
D52*
X159651000Y-132688000D03*
X160151000Y-132688000D03*
X160651000Y-132688000D03*
X161151000Y-132688000D03*
X161651000Y-132688000D03*
X162151000Y-132688000D03*
X162651000Y-132688000D03*
X163151000Y-132688000D03*
X163651000Y-132688000D03*
X164151000Y-132688000D03*
X164651000Y-132688000D03*
X165151000Y-132688000D03*
X165651000Y-132688000D03*
X166151000Y-132688000D03*
X166651000Y-132688000D03*
X167151000Y-132688000D03*
D51*
X169076000Y-130763000D03*
X169076000Y-130263000D03*
X169076000Y-129763000D03*
X169076000Y-129263000D03*
X169076000Y-128763000D03*
X169076000Y-128263000D03*
X169076000Y-127763000D03*
X169076000Y-127263000D03*
X169076000Y-126763000D03*
X169076000Y-126263000D03*
X169076000Y-125763000D03*
X169076000Y-125263000D03*
X169076000Y-124763000D03*
X169076000Y-124263000D03*
X169076000Y-123763000D03*
X169076000Y-123263000D03*
D52*
X167151000Y-121338000D03*
X166651000Y-121338000D03*
X166151000Y-121338000D03*
X165651000Y-121338000D03*
X165151000Y-121338000D03*
X164651000Y-121338000D03*
X164151000Y-121338000D03*
X163651000Y-121338000D03*
X163151000Y-121338000D03*
X162651000Y-121338000D03*
X162151000Y-121338000D03*
X161651000Y-121338000D03*
X161151000Y-121338000D03*
X160651000Y-121338000D03*
X160151000Y-121338000D03*
X159651000Y-121338000D03*
%TD*%
D14*
%TO.C,C27*%
X159904500Y-107378800D03*
X158769500Y-107378800D03*
%TD*%
D25*
%TO.C,R18*%
X174539500Y-131966000D03*
X175734500Y-131966000D03*
%TD*%
M02*
