%TF.GenerationSoftware,KiCad,Pcbnew,8.0.7*%
%TF.CreationDate,2025-02-05T08:53:54+09:00*%
%TF.ProjectId,GN10Mainboard,474e3130-4d61-4696-9e62-6f6172642e6b,rev?*%
%TF.SameCoordinates,Original*%
%TF.FileFunction,Soldermask,Bot*%
%TF.FilePolarity,Negative*%
%FSLAX46Y46*%
G04 Gerber Fmt 4.6, Leading zero omitted, Abs format (unit mm)*
G04 Created by KiCad (PCBNEW 8.0.7) date 2025-02-05 08:53:54*
%MOMM*%
%LPD*%
G01*
G04 APERTURE LIST*
G04 Aperture macros list*
%AMRoundRect*
0 Rectangle with rounded corners*
0 $1 Rounding radius*
0 $2 $3 $4 $5 $6 $7 $8 $9 X,Y pos of 4 corners*
0 Add a 4 corners polygon primitive as box body*
4,1,4,$2,$3,$4,$5,$6,$7,$8,$9,$2,$3,0*
0 Add four circle primitives for the rounded corners*
1,1,$1+$1,$2,$3*
1,1,$1+$1,$4,$5*
1,1,$1+$1,$6,$7*
1,1,$1+$1,$8,$9*
0 Add four rect primitives between the rounded corners*
20,1,$1+$1,$2,$3,$4,$5,0*
20,1,$1+$1,$4,$5,$6,$7,0*
20,1,$1+$1,$6,$7,$8,$9,0*
20,1,$1+$1,$8,$9,$2,$3,0*%
G04 Aperture macros list end*
%ADD10RoundRect,0.250000X0.725000X-0.600000X0.725000X0.600000X-0.725000X0.600000X-0.725000X-0.600000X0*%
%ADD11O,1.950000X1.700000*%
%ADD12C,3.200000*%
%ADD13R,1.600000X1.600000*%
%ADD14C,1.600000*%
%ADD15C,1.200000*%
%ADD16R,1.700000X1.700000*%
%ADD17O,1.700000X1.700000*%
%ADD18C,0.650000*%
%ADD19O,2.100000X1.000000*%
%ADD20O,1.600000X1.000000*%
%ADD21RoundRect,0.760000X-1.140000X1.140000X-1.140000X-1.140000X1.140000X-1.140000X1.140000X1.140000X0*%
%ADD22C,3.800000*%
%ADD23RoundRect,0.250000X-0.600000X-0.725000X0.600000X-0.725000X0.600000X0.725000X-0.600000X0.725000X0*%
%ADD24O,1.700000X1.950000*%
G04 APERTURE END LIST*
D10*
%TO.C,J8*%
X182180000Y-147019000D03*
D11*
X182180000Y-144519000D03*
X182180000Y-142019000D03*
X182180000Y-139519000D03*
%TD*%
D12*
%TO.C,REF\u002A\u002A*%
X133500000Y-103500000D03*
%TD*%
D13*
%TO.C,C29*%
X157051000Y-104954380D03*
D14*
X157051000Y-102454380D03*
%TD*%
D15*
%TO.C,SW3*%
X185245000Y-103645000D03*
X183445000Y-103645000D03*
%TD*%
D10*
%TO.C,J5*%
X177100000Y-110510000D03*
D11*
X177100000Y-108010000D03*
X177100000Y-105510000D03*
X177100000Y-103010000D03*
%TD*%
D16*
%TO.C,J10*%
X176403000Y-118618000D03*
D17*
X176403000Y-121158000D03*
X176403000Y-123698000D03*
X176403000Y-126238000D03*
X176403000Y-128778000D03*
%TD*%
D16*
%TO.C,J2*%
X132075000Y-140589000D03*
D17*
X134615000Y-140589000D03*
%TD*%
D18*
%TO.C,J3*%
X136585000Y-130460000D03*
X136585000Y-136240000D03*
D19*
X137115000Y-129030000D03*
D20*
X132935000Y-129030000D03*
D19*
X137115000Y-137670000D03*
D20*
X132935000Y-137670000D03*
%TD*%
D13*
%TO.C,C32*%
X170767000Y-104954380D03*
D14*
X170767000Y-102454380D03*
%TD*%
D10*
%TO.C,J4*%
X163401000Y-110510000D03*
D11*
X163401000Y-108010000D03*
X163401000Y-105510000D03*
X163401000Y-103010000D03*
%TD*%
D15*
%TO.C,SW1*%
X154257000Y-118250000D03*
X154257000Y-116450000D03*
%TD*%
%TO.C,U5*%
X140895000Y-140285000D03*
X140895000Y-142285000D03*
X140895000Y-144285000D03*
X140895000Y-146285000D03*
X140895000Y-148285000D03*
X145775000Y-148285000D03*
X145775000Y-146285000D03*
X145775000Y-144285000D03*
X145775000Y-142285000D03*
X145775000Y-140285000D03*
%TD*%
D12*
%TO.C,REF\u002A\u002A*%
X190000000Y-146500000D03*
%TD*%
D21*
%TO.C,J1*%
X133683000Y-111432000D03*
D22*
X133683000Y-116432000D03*
%TD*%
D12*
%TO.C,REF\u002A\u002A*%
X190000000Y-103500000D03*
%TD*%
%TO.C,REF\u002A\u002A*%
X133500000Y-146500000D03*
%TD*%
D10*
%TO.C,J6*%
X168481000Y-147039000D03*
D11*
X168481000Y-144539000D03*
X168481000Y-142039000D03*
X168481000Y-139539000D03*
%TD*%
D10*
%TO.C,J7*%
X175339000Y-147039000D03*
D11*
X175339000Y-144539000D03*
X175339000Y-142039000D03*
X175339000Y-139539000D03*
%TD*%
D23*
%TO.C,J9*%
X150106000Y-146063000D03*
D24*
X152606000Y-146063000D03*
X155106000Y-146063000D03*
X157606000Y-146063000D03*
X160106000Y-146063000D03*
X162606000Y-146063000D03*
%TD*%
M02*
