%TF.GenerationSoftware,KiCad,Pcbnew,8.0.7*%
%TF.CreationDate,2025-02-05T20:20:25+09:00*%
%TF.ProjectId,GN10Mainboard,474e3130-4d61-4696-9e62-6f6172642e6b,rev?*%
%TF.SameCoordinates,Original*%
%TF.FileFunction,Drillmap*%
%TF.FilePolarity,Positive*%
%FSLAX45Y45*%
G04 Gerber Fmt 4.5, Leading zero omitted, Abs format (unit mm)*
G04 Created by KiCad (PCBNEW 8.0.7) date 2025-02-05 20:20:25*
%MOMM*%
%LPD*%
G01*
G04 APERTURE LIST*
%ADD10C,0.100000*%
%ADD11C,0.200000*%
%ADD12C,0.320000*%
G04 APERTURE END LIST*
D10*
X13000000Y-14700000D02*
X13000000Y-10300000D01*
X20000000Y-10300000D02*
X20000000Y-11700000D01*
X13300000Y-10000000D02*
X19700000Y-10000000D01*
X19400000Y-13300000D02*
X20000000Y-13300000D01*
X13000000Y-10300000D02*
G75*
G02*
X13300000Y-10000000I300000J0D01*
G01*
X20000000Y-11700000D02*
X19400000Y-11700000D01*
X13300000Y-15000000D02*
G75*
G02*
X13000000Y-14700000I0J300000D01*
G01*
X19700000Y-10000000D02*
G75*
G02*
X20000000Y-10300000I0J-300000D01*
G01*
X19700000Y-15000000D02*
X13300000Y-15000000D01*
X20000000Y-13300000D02*
X20000000Y-14700000D01*
X20000000Y-14700000D02*
G75*
G02*
X19700000Y-15000000I-300000J0D01*
G01*
X19400000Y-11700000D02*
X19400000Y-13300000D01*
D11*
D10*
X13626000Y-13013500D02*
X13691000Y-13078500D01*
X13691000Y-13013500D02*
X13626000Y-13078500D01*
X13626000Y-13591500D02*
X13691000Y-13656500D01*
X13691000Y-13591500D02*
X13626000Y-13656500D01*
D12*
X13510000Y-10350000D02*
G75*
G02*
X13190000Y-10350000I-160000J0D01*
G01*
X13190000Y-10350000D02*
G75*
G02*
X13510000Y-10350000I160000J0D01*
G01*
X13510000Y-14650000D02*
G75*
G02*
X13190000Y-14650000I-160000J0D01*
G01*
X13190000Y-14650000D02*
G75*
G02*
X13510000Y-14650000I160000J0D01*
G01*
X19160000Y-10350000D02*
G75*
G02*
X18840000Y-10350000I-160000J0D01*
G01*
X18840000Y-10350000D02*
G75*
G02*
X19160000Y-10350000I160000J0D01*
G01*
X19160000Y-14650000D02*
G75*
G02*
X18840000Y-14650000I-160000J0D01*
G01*
X18840000Y-14650000D02*
G75*
G02*
X19160000Y-14650000I160000J0D01*
G01*
D11*
X13255777Y-15316484D02*
X13255777Y-15116484D01*
X13255777Y-15116484D02*
X13303396Y-15116484D01*
X13303396Y-15116484D02*
X13331967Y-15126008D01*
X13331967Y-15126008D02*
X13351015Y-15145055D01*
X13351015Y-15145055D02*
X13360539Y-15164103D01*
X13360539Y-15164103D02*
X13370062Y-15202198D01*
X13370062Y-15202198D02*
X13370062Y-15230769D01*
X13370062Y-15230769D02*
X13360539Y-15268865D01*
X13360539Y-15268865D02*
X13351015Y-15287912D01*
X13351015Y-15287912D02*
X13331967Y-15306960D01*
X13331967Y-15306960D02*
X13303396Y-15316484D01*
X13303396Y-15316484D02*
X13255777Y-15316484D01*
X13455777Y-15316484D02*
X13455777Y-15183150D01*
X13455777Y-15221246D02*
X13465301Y-15202198D01*
X13465301Y-15202198D02*
X13474824Y-15192674D01*
X13474824Y-15192674D02*
X13493872Y-15183150D01*
X13493872Y-15183150D02*
X13512920Y-15183150D01*
X13579586Y-15316484D02*
X13579586Y-15183150D01*
X13579586Y-15116484D02*
X13570062Y-15126008D01*
X13570062Y-15126008D02*
X13579586Y-15135531D01*
X13579586Y-15135531D02*
X13589110Y-15126008D01*
X13589110Y-15126008D02*
X13579586Y-15116484D01*
X13579586Y-15116484D02*
X13579586Y-15135531D01*
X13703396Y-15316484D02*
X13684348Y-15306960D01*
X13684348Y-15306960D02*
X13674824Y-15287912D01*
X13674824Y-15287912D02*
X13674824Y-15116484D01*
X13808158Y-15316484D02*
X13789110Y-15306960D01*
X13789110Y-15306960D02*
X13779586Y-15287912D01*
X13779586Y-15287912D02*
X13779586Y-15116484D01*
X14036729Y-15316484D02*
X14036729Y-15116484D01*
X14036729Y-15116484D02*
X14103396Y-15259341D01*
X14103396Y-15259341D02*
X14170062Y-15116484D01*
X14170062Y-15116484D02*
X14170062Y-15316484D01*
X14351015Y-15316484D02*
X14351015Y-15211722D01*
X14351015Y-15211722D02*
X14341491Y-15192674D01*
X14341491Y-15192674D02*
X14322443Y-15183150D01*
X14322443Y-15183150D02*
X14284348Y-15183150D01*
X14284348Y-15183150D02*
X14265301Y-15192674D01*
X14351015Y-15306960D02*
X14331967Y-15316484D01*
X14331967Y-15316484D02*
X14284348Y-15316484D01*
X14284348Y-15316484D02*
X14265301Y-15306960D01*
X14265301Y-15306960D02*
X14255777Y-15287912D01*
X14255777Y-15287912D02*
X14255777Y-15268865D01*
X14255777Y-15268865D02*
X14265301Y-15249817D01*
X14265301Y-15249817D02*
X14284348Y-15240293D01*
X14284348Y-15240293D02*
X14331967Y-15240293D01*
X14331967Y-15240293D02*
X14351015Y-15230769D01*
X14446253Y-15183150D02*
X14446253Y-15383150D01*
X14446253Y-15192674D02*
X14465301Y-15183150D01*
X14465301Y-15183150D02*
X14503396Y-15183150D01*
X14503396Y-15183150D02*
X14522443Y-15192674D01*
X14522443Y-15192674D02*
X14531967Y-15202198D01*
X14531967Y-15202198D02*
X14541491Y-15221246D01*
X14541491Y-15221246D02*
X14541491Y-15278388D01*
X14541491Y-15278388D02*
X14531967Y-15297436D01*
X14531967Y-15297436D02*
X14522443Y-15306960D01*
X14522443Y-15306960D02*
X14503396Y-15316484D01*
X14503396Y-15316484D02*
X14465301Y-15316484D01*
X14465301Y-15316484D02*
X14446253Y-15306960D01*
X14627205Y-15297436D02*
X14636729Y-15306960D01*
X14636729Y-15306960D02*
X14627205Y-15316484D01*
X14627205Y-15316484D02*
X14617682Y-15306960D01*
X14617682Y-15306960D02*
X14627205Y-15297436D01*
X14627205Y-15297436D02*
X14627205Y-15316484D01*
X14627205Y-15192674D02*
X14636729Y-15202198D01*
X14636729Y-15202198D02*
X14627205Y-15211722D01*
X14627205Y-15211722D02*
X14617682Y-15202198D01*
X14617682Y-15202198D02*
X14627205Y-15192674D01*
X14627205Y-15192674D02*
X14627205Y-15211722D01*
D10*
X12930000Y-15612500D02*
X12995000Y-15677500D01*
X12995000Y-15612500D02*
X12930000Y-15677500D01*
D11*
X13293872Y-15536484D02*
X13312920Y-15536484D01*
X13312920Y-15536484D02*
X13331967Y-15546008D01*
X13331967Y-15546008D02*
X13341491Y-15555531D01*
X13341491Y-15555531D02*
X13351015Y-15574579D01*
X13351015Y-15574579D02*
X13360539Y-15612674D01*
X13360539Y-15612674D02*
X13360539Y-15660293D01*
X13360539Y-15660293D02*
X13351015Y-15698388D01*
X13351015Y-15698388D02*
X13341491Y-15717436D01*
X13341491Y-15717436D02*
X13331967Y-15726960D01*
X13331967Y-15726960D02*
X13312920Y-15736484D01*
X13312920Y-15736484D02*
X13293872Y-15736484D01*
X13293872Y-15736484D02*
X13274824Y-15726960D01*
X13274824Y-15726960D02*
X13265301Y-15717436D01*
X13265301Y-15717436D02*
X13255777Y-15698388D01*
X13255777Y-15698388D02*
X13246253Y-15660293D01*
X13246253Y-15660293D02*
X13246253Y-15612674D01*
X13246253Y-15612674D02*
X13255777Y-15574579D01*
X13255777Y-15574579D02*
X13265301Y-15555531D01*
X13265301Y-15555531D02*
X13274824Y-15546008D01*
X13274824Y-15546008D02*
X13293872Y-15536484D01*
X13446253Y-15717436D02*
X13455777Y-15726960D01*
X13455777Y-15726960D02*
X13446253Y-15736484D01*
X13446253Y-15736484D02*
X13436729Y-15726960D01*
X13436729Y-15726960D02*
X13446253Y-15717436D01*
X13446253Y-15717436D02*
X13446253Y-15736484D01*
X13627205Y-15536484D02*
X13589110Y-15536484D01*
X13589110Y-15536484D02*
X13570062Y-15546008D01*
X13570062Y-15546008D02*
X13560539Y-15555531D01*
X13560539Y-15555531D02*
X13541491Y-15584103D01*
X13541491Y-15584103D02*
X13531967Y-15622198D01*
X13531967Y-15622198D02*
X13531967Y-15698388D01*
X13531967Y-15698388D02*
X13541491Y-15717436D01*
X13541491Y-15717436D02*
X13551015Y-15726960D01*
X13551015Y-15726960D02*
X13570062Y-15736484D01*
X13570062Y-15736484D02*
X13608158Y-15736484D01*
X13608158Y-15736484D02*
X13627205Y-15726960D01*
X13627205Y-15726960D02*
X13636729Y-15717436D01*
X13636729Y-15717436D02*
X13646253Y-15698388D01*
X13646253Y-15698388D02*
X13646253Y-15650769D01*
X13646253Y-15650769D02*
X13636729Y-15631722D01*
X13636729Y-15631722D02*
X13627205Y-15622198D01*
X13627205Y-15622198D02*
X13608158Y-15612674D01*
X13608158Y-15612674D02*
X13570062Y-15612674D01*
X13570062Y-15612674D02*
X13551015Y-15622198D01*
X13551015Y-15622198D02*
X13541491Y-15631722D01*
X13541491Y-15631722D02*
X13531967Y-15650769D01*
X13827205Y-15536484D02*
X13731967Y-15536484D01*
X13731967Y-15536484D02*
X13722443Y-15631722D01*
X13722443Y-15631722D02*
X13731967Y-15622198D01*
X13731967Y-15622198D02*
X13751015Y-15612674D01*
X13751015Y-15612674D02*
X13798634Y-15612674D01*
X13798634Y-15612674D02*
X13817682Y-15622198D01*
X13817682Y-15622198D02*
X13827205Y-15631722D01*
X13827205Y-15631722D02*
X13836729Y-15650769D01*
X13836729Y-15650769D02*
X13836729Y-15698388D01*
X13836729Y-15698388D02*
X13827205Y-15717436D01*
X13827205Y-15717436D02*
X13817682Y-15726960D01*
X13817682Y-15726960D02*
X13798634Y-15736484D01*
X13798634Y-15736484D02*
X13751015Y-15736484D01*
X13751015Y-15736484D02*
X13731967Y-15726960D01*
X13731967Y-15726960D02*
X13722443Y-15717436D01*
X13960539Y-15536484D02*
X13979586Y-15536484D01*
X13979586Y-15536484D02*
X13998634Y-15546008D01*
X13998634Y-15546008D02*
X14008158Y-15555531D01*
X14008158Y-15555531D02*
X14017682Y-15574579D01*
X14017682Y-15574579D02*
X14027205Y-15612674D01*
X14027205Y-15612674D02*
X14027205Y-15660293D01*
X14027205Y-15660293D02*
X14017682Y-15698388D01*
X14017682Y-15698388D02*
X14008158Y-15717436D01*
X14008158Y-15717436D02*
X13998634Y-15726960D01*
X13998634Y-15726960D02*
X13979586Y-15736484D01*
X13979586Y-15736484D02*
X13960539Y-15736484D01*
X13960539Y-15736484D02*
X13941491Y-15726960D01*
X13941491Y-15726960D02*
X13931967Y-15717436D01*
X13931967Y-15717436D02*
X13922443Y-15698388D01*
X13922443Y-15698388D02*
X13912920Y-15660293D01*
X13912920Y-15660293D02*
X13912920Y-15612674D01*
X13912920Y-15612674D02*
X13922443Y-15574579D01*
X13922443Y-15574579D02*
X13931967Y-15555531D01*
X13931967Y-15555531D02*
X13941491Y-15546008D01*
X13941491Y-15546008D02*
X13960539Y-15536484D01*
X14112920Y-15736484D02*
X14112920Y-15603150D01*
X14112920Y-15622198D02*
X14122443Y-15612674D01*
X14122443Y-15612674D02*
X14141491Y-15603150D01*
X14141491Y-15603150D02*
X14170063Y-15603150D01*
X14170063Y-15603150D02*
X14189110Y-15612674D01*
X14189110Y-15612674D02*
X14198634Y-15631722D01*
X14198634Y-15631722D02*
X14198634Y-15736484D01*
X14198634Y-15631722D02*
X14208158Y-15612674D01*
X14208158Y-15612674D02*
X14227205Y-15603150D01*
X14227205Y-15603150D02*
X14255777Y-15603150D01*
X14255777Y-15603150D02*
X14274824Y-15612674D01*
X14274824Y-15612674D02*
X14284348Y-15631722D01*
X14284348Y-15631722D02*
X14284348Y-15736484D01*
X14379586Y-15736484D02*
X14379586Y-15603150D01*
X14379586Y-15622198D02*
X14389110Y-15612674D01*
X14389110Y-15612674D02*
X14408158Y-15603150D01*
X14408158Y-15603150D02*
X14436729Y-15603150D01*
X14436729Y-15603150D02*
X14455777Y-15612674D01*
X14455777Y-15612674D02*
X14465301Y-15631722D01*
X14465301Y-15631722D02*
X14465301Y-15736484D01*
X14465301Y-15631722D02*
X14474824Y-15612674D01*
X14474824Y-15612674D02*
X14493872Y-15603150D01*
X14493872Y-15603150D02*
X14522443Y-15603150D01*
X14522443Y-15603150D02*
X14541491Y-15612674D01*
X14541491Y-15612674D02*
X14551015Y-15631722D01*
X14551015Y-15631722D02*
X14551015Y-15736484D01*
X14941491Y-15526960D02*
X14770063Y-15784103D01*
X15198634Y-15536484D02*
X15217682Y-15536484D01*
X15217682Y-15536484D02*
X15236729Y-15546008D01*
X15236729Y-15546008D02*
X15246253Y-15555531D01*
X15246253Y-15555531D02*
X15255777Y-15574579D01*
X15255777Y-15574579D02*
X15265301Y-15612674D01*
X15265301Y-15612674D02*
X15265301Y-15660293D01*
X15265301Y-15660293D02*
X15255777Y-15698388D01*
X15255777Y-15698388D02*
X15246253Y-15717436D01*
X15246253Y-15717436D02*
X15236729Y-15726960D01*
X15236729Y-15726960D02*
X15217682Y-15736484D01*
X15217682Y-15736484D02*
X15198634Y-15736484D01*
X15198634Y-15736484D02*
X15179586Y-15726960D01*
X15179586Y-15726960D02*
X15170063Y-15717436D01*
X15170063Y-15717436D02*
X15160539Y-15698388D01*
X15160539Y-15698388D02*
X15151015Y-15660293D01*
X15151015Y-15660293D02*
X15151015Y-15612674D01*
X15151015Y-15612674D02*
X15160539Y-15574579D01*
X15160539Y-15574579D02*
X15170063Y-15555531D01*
X15170063Y-15555531D02*
X15179586Y-15546008D01*
X15179586Y-15546008D02*
X15198634Y-15536484D01*
X15351015Y-15717436D02*
X15360539Y-15726960D01*
X15360539Y-15726960D02*
X15351015Y-15736484D01*
X15351015Y-15736484D02*
X15341491Y-15726960D01*
X15341491Y-15726960D02*
X15351015Y-15717436D01*
X15351015Y-15717436D02*
X15351015Y-15736484D01*
X15484348Y-15536484D02*
X15503396Y-15536484D01*
X15503396Y-15536484D02*
X15522444Y-15546008D01*
X15522444Y-15546008D02*
X15531967Y-15555531D01*
X15531967Y-15555531D02*
X15541491Y-15574579D01*
X15541491Y-15574579D02*
X15551015Y-15612674D01*
X15551015Y-15612674D02*
X15551015Y-15660293D01*
X15551015Y-15660293D02*
X15541491Y-15698388D01*
X15541491Y-15698388D02*
X15531967Y-15717436D01*
X15531967Y-15717436D02*
X15522444Y-15726960D01*
X15522444Y-15726960D02*
X15503396Y-15736484D01*
X15503396Y-15736484D02*
X15484348Y-15736484D01*
X15484348Y-15736484D02*
X15465301Y-15726960D01*
X15465301Y-15726960D02*
X15455777Y-15717436D01*
X15455777Y-15717436D02*
X15446253Y-15698388D01*
X15446253Y-15698388D02*
X15436729Y-15660293D01*
X15436729Y-15660293D02*
X15436729Y-15612674D01*
X15436729Y-15612674D02*
X15446253Y-15574579D01*
X15446253Y-15574579D02*
X15455777Y-15555531D01*
X15455777Y-15555531D02*
X15465301Y-15546008D01*
X15465301Y-15546008D02*
X15484348Y-15536484D01*
X15627206Y-15555531D02*
X15636729Y-15546008D01*
X15636729Y-15546008D02*
X15655777Y-15536484D01*
X15655777Y-15536484D02*
X15703396Y-15536484D01*
X15703396Y-15536484D02*
X15722444Y-15546008D01*
X15722444Y-15546008D02*
X15731967Y-15555531D01*
X15731967Y-15555531D02*
X15741491Y-15574579D01*
X15741491Y-15574579D02*
X15741491Y-15593627D01*
X15741491Y-15593627D02*
X15731967Y-15622198D01*
X15731967Y-15622198D02*
X15617682Y-15736484D01*
X15617682Y-15736484D02*
X15741491Y-15736484D01*
X15922444Y-15536484D02*
X15827206Y-15536484D01*
X15827206Y-15536484D02*
X15817682Y-15631722D01*
X15817682Y-15631722D02*
X15827206Y-15622198D01*
X15827206Y-15622198D02*
X15846253Y-15612674D01*
X15846253Y-15612674D02*
X15893872Y-15612674D01*
X15893872Y-15612674D02*
X15912920Y-15622198D01*
X15912920Y-15622198D02*
X15922444Y-15631722D01*
X15922444Y-15631722D02*
X15931967Y-15650769D01*
X15931967Y-15650769D02*
X15931967Y-15698388D01*
X15931967Y-15698388D02*
X15922444Y-15717436D01*
X15922444Y-15717436D02*
X15912920Y-15726960D01*
X15912920Y-15726960D02*
X15893872Y-15736484D01*
X15893872Y-15736484D02*
X15846253Y-15736484D01*
X15846253Y-15736484D02*
X15827206Y-15726960D01*
X15827206Y-15726960D02*
X15817682Y-15717436D01*
X16103396Y-15536484D02*
X16065301Y-15536484D01*
X16065301Y-15536484D02*
X16046253Y-15546008D01*
X16046253Y-15546008D02*
X16036729Y-15555531D01*
X16036729Y-15555531D02*
X16017682Y-15584103D01*
X16017682Y-15584103D02*
X16008158Y-15622198D01*
X16008158Y-15622198D02*
X16008158Y-15698388D01*
X16008158Y-15698388D02*
X16017682Y-15717436D01*
X16017682Y-15717436D02*
X16027206Y-15726960D01*
X16027206Y-15726960D02*
X16046253Y-15736484D01*
X16046253Y-15736484D02*
X16084348Y-15736484D01*
X16084348Y-15736484D02*
X16103396Y-15726960D01*
X16103396Y-15726960D02*
X16112920Y-15717436D01*
X16112920Y-15717436D02*
X16122444Y-15698388D01*
X16122444Y-15698388D02*
X16122444Y-15650769D01*
X16122444Y-15650769D02*
X16112920Y-15631722D01*
X16112920Y-15631722D02*
X16103396Y-15622198D01*
X16103396Y-15622198D02*
X16084348Y-15612674D01*
X16084348Y-15612674D02*
X16046253Y-15612674D01*
X16046253Y-15612674D02*
X16027206Y-15622198D01*
X16027206Y-15622198D02*
X16017682Y-15631722D01*
X16017682Y-15631722D02*
X16008158Y-15650769D01*
X16198634Y-15536484D02*
X16198634Y-15574579D01*
X16274825Y-15536484D02*
X16274825Y-15574579D01*
X16570063Y-15812674D02*
X16560539Y-15803150D01*
X16560539Y-15803150D02*
X16541491Y-15774579D01*
X16541491Y-15774579D02*
X16531968Y-15755531D01*
X16531968Y-15755531D02*
X16522444Y-15726960D01*
X16522444Y-15726960D02*
X16512920Y-15679341D01*
X16512920Y-15679341D02*
X16512920Y-15641246D01*
X16512920Y-15641246D02*
X16522444Y-15593627D01*
X16522444Y-15593627D02*
X16531968Y-15565055D01*
X16531968Y-15565055D02*
X16541491Y-15546008D01*
X16541491Y-15546008D02*
X16560539Y-15517436D01*
X16560539Y-15517436D02*
X16570063Y-15507912D01*
X16636729Y-15555531D02*
X16646253Y-15546008D01*
X16646253Y-15546008D02*
X16665301Y-15536484D01*
X16665301Y-15536484D02*
X16712920Y-15536484D01*
X16712920Y-15536484D02*
X16731968Y-15546008D01*
X16731968Y-15546008D02*
X16741491Y-15555531D01*
X16741491Y-15555531D02*
X16751015Y-15574579D01*
X16751015Y-15574579D02*
X16751015Y-15593627D01*
X16751015Y-15593627D02*
X16741491Y-15622198D01*
X16741491Y-15622198D02*
X16627206Y-15736484D01*
X16627206Y-15736484D02*
X16751015Y-15736484D01*
X16989111Y-15736484D02*
X16989111Y-15536484D01*
X17074825Y-15736484D02*
X17074825Y-15631722D01*
X17074825Y-15631722D02*
X17065301Y-15612674D01*
X17065301Y-15612674D02*
X17046253Y-15603150D01*
X17046253Y-15603150D02*
X17017682Y-15603150D01*
X17017682Y-15603150D02*
X16998634Y-15612674D01*
X16998634Y-15612674D02*
X16989111Y-15622198D01*
X17198634Y-15736484D02*
X17179587Y-15726960D01*
X17179587Y-15726960D02*
X17170063Y-15717436D01*
X17170063Y-15717436D02*
X17160539Y-15698388D01*
X17160539Y-15698388D02*
X17160539Y-15641246D01*
X17160539Y-15641246D02*
X17170063Y-15622198D01*
X17170063Y-15622198D02*
X17179587Y-15612674D01*
X17179587Y-15612674D02*
X17198634Y-15603150D01*
X17198634Y-15603150D02*
X17227206Y-15603150D01*
X17227206Y-15603150D02*
X17246253Y-15612674D01*
X17246253Y-15612674D02*
X17255777Y-15622198D01*
X17255777Y-15622198D02*
X17265301Y-15641246D01*
X17265301Y-15641246D02*
X17265301Y-15698388D01*
X17265301Y-15698388D02*
X17255777Y-15717436D01*
X17255777Y-15717436D02*
X17246253Y-15726960D01*
X17246253Y-15726960D02*
X17227206Y-15736484D01*
X17227206Y-15736484D02*
X17198634Y-15736484D01*
X17379587Y-15736484D02*
X17360539Y-15726960D01*
X17360539Y-15726960D02*
X17351015Y-15707912D01*
X17351015Y-15707912D02*
X17351015Y-15536484D01*
X17531968Y-15726960D02*
X17512920Y-15736484D01*
X17512920Y-15736484D02*
X17474825Y-15736484D01*
X17474825Y-15736484D02*
X17455777Y-15726960D01*
X17455777Y-15726960D02*
X17446253Y-15707912D01*
X17446253Y-15707912D02*
X17446253Y-15631722D01*
X17446253Y-15631722D02*
X17455777Y-15612674D01*
X17455777Y-15612674D02*
X17474825Y-15603150D01*
X17474825Y-15603150D02*
X17512920Y-15603150D01*
X17512920Y-15603150D02*
X17531968Y-15612674D01*
X17531968Y-15612674D02*
X17541492Y-15631722D01*
X17541492Y-15631722D02*
X17541492Y-15650769D01*
X17541492Y-15650769D02*
X17446253Y-15669817D01*
X17617682Y-15726960D02*
X17636730Y-15736484D01*
X17636730Y-15736484D02*
X17674825Y-15736484D01*
X17674825Y-15736484D02*
X17693873Y-15726960D01*
X17693873Y-15726960D02*
X17703396Y-15707912D01*
X17703396Y-15707912D02*
X17703396Y-15698388D01*
X17703396Y-15698388D02*
X17693873Y-15679341D01*
X17693873Y-15679341D02*
X17674825Y-15669817D01*
X17674825Y-15669817D02*
X17646253Y-15669817D01*
X17646253Y-15669817D02*
X17627206Y-15660293D01*
X17627206Y-15660293D02*
X17617682Y-15641246D01*
X17617682Y-15641246D02*
X17617682Y-15631722D01*
X17617682Y-15631722D02*
X17627206Y-15612674D01*
X17627206Y-15612674D02*
X17646253Y-15603150D01*
X17646253Y-15603150D02*
X17674825Y-15603150D01*
X17674825Y-15603150D02*
X17693873Y-15612674D01*
X17770063Y-15812674D02*
X17779587Y-15803150D01*
X17779587Y-15803150D02*
X17798634Y-15774579D01*
X17798634Y-15774579D02*
X17808158Y-15755531D01*
X17808158Y-15755531D02*
X17817682Y-15726960D01*
X17817682Y-15726960D02*
X17827206Y-15679341D01*
X17827206Y-15679341D02*
X17827206Y-15641246D01*
X17827206Y-15641246D02*
X17817682Y-15593627D01*
X17817682Y-15593627D02*
X17808158Y-15565055D01*
X17808158Y-15565055D02*
X17798634Y-15546008D01*
X17798634Y-15546008D02*
X17779587Y-15517436D01*
X17779587Y-15517436D02*
X17770063Y-15507912D01*
X18131968Y-15812674D02*
X18122444Y-15803150D01*
X18122444Y-15803150D02*
X18103396Y-15774579D01*
X18103396Y-15774579D02*
X18093873Y-15755531D01*
X18093873Y-15755531D02*
X18084349Y-15726960D01*
X18084349Y-15726960D02*
X18074825Y-15679341D01*
X18074825Y-15679341D02*
X18074825Y-15641246D01*
X18074825Y-15641246D02*
X18084349Y-15593627D01*
X18084349Y-15593627D02*
X18093873Y-15565055D01*
X18093873Y-15565055D02*
X18103396Y-15546008D01*
X18103396Y-15546008D02*
X18122444Y-15517436D01*
X18122444Y-15517436D02*
X18131968Y-15507912D01*
X18208158Y-15603150D02*
X18208158Y-15736484D01*
X18208158Y-15622198D02*
X18217682Y-15612674D01*
X18217682Y-15612674D02*
X18236730Y-15603150D01*
X18236730Y-15603150D02*
X18265301Y-15603150D01*
X18265301Y-15603150D02*
X18284349Y-15612674D01*
X18284349Y-15612674D02*
X18293873Y-15631722D01*
X18293873Y-15631722D02*
X18293873Y-15736484D01*
X18417682Y-15736484D02*
X18398634Y-15726960D01*
X18398634Y-15726960D02*
X18389111Y-15717436D01*
X18389111Y-15717436D02*
X18379587Y-15698388D01*
X18379587Y-15698388D02*
X18379587Y-15641246D01*
X18379587Y-15641246D02*
X18389111Y-15622198D01*
X18389111Y-15622198D02*
X18398634Y-15612674D01*
X18398634Y-15612674D02*
X18417682Y-15603150D01*
X18417682Y-15603150D02*
X18446254Y-15603150D01*
X18446254Y-15603150D02*
X18465301Y-15612674D01*
X18465301Y-15612674D02*
X18474825Y-15622198D01*
X18474825Y-15622198D02*
X18484349Y-15641246D01*
X18484349Y-15641246D02*
X18484349Y-15698388D01*
X18484349Y-15698388D02*
X18474825Y-15717436D01*
X18474825Y-15717436D02*
X18465301Y-15726960D01*
X18465301Y-15726960D02*
X18446254Y-15736484D01*
X18446254Y-15736484D02*
X18417682Y-15736484D01*
X18541492Y-15603150D02*
X18617682Y-15603150D01*
X18570063Y-15536484D02*
X18570063Y-15707912D01*
X18570063Y-15707912D02*
X18579587Y-15726960D01*
X18579587Y-15726960D02*
X18598634Y-15736484D01*
X18598634Y-15736484D02*
X18617682Y-15736484D01*
X18836730Y-15603150D02*
X18836730Y-15803150D01*
X18836730Y-15612674D02*
X18855777Y-15603150D01*
X18855777Y-15603150D02*
X18893873Y-15603150D01*
X18893873Y-15603150D02*
X18912920Y-15612674D01*
X18912920Y-15612674D02*
X18922444Y-15622198D01*
X18922444Y-15622198D02*
X18931968Y-15641246D01*
X18931968Y-15641246D02*
X18931968Y-15698388D01*
X18931968Y-15698388D02*
X18922444Y-15717436D01*
X18922444Y-15717436D02*
X18912920Y-15726960D01*
X18912920Y-15726960D02*
X18893873Y-15736484D01*
X18893873Y-15736484D02*
X18855777Y-15736484D01*
X18855777Y-15736484D02*
X18836730Y-15726960D01*
X19046254Y-15736484D02*
X19027206Y-15726960D01*
X19027206Y-15726960D02*
X19017682Y-15707912D01*
X19017682Y-15707912D02*
X19017682Y-15536484D01*
X19208158Y-15736484D02*
X19208158Y-15631722D01*
X19208158Y-15631722D02*
X19198635Y-15612674D01*
X19198635Y-15612674D02*
X19179587Y-15603150D01*
X19179587Y-15603150D02*
X19141492Y-15603150D01*
X19141492Y-15603150D02*
X19122444Y-15612674D01*
X19208158Y-15726960D02*
X19189111Y-15736484D01*
X19189111Y-15736484D02*
X19141492Y-15736484D01*
X19141492Y-15736484D02*
X19122444Y-15726960D01*
X19122444Y-15726960D02*
X19112920Y-15707912D01*
X19112920Y-15707912D02*
X19112920Y-15688865D01*
X19112920Y-15688865D02*
X19122444Y-15669817D01*
X19122444Y-15669817D02*
X19141492Y-15660293D01*
X19141492Y-15660293D02*
X19189111Y-15660293D01*
X19189111Y-15660293D02*
X19208158Y-15650769D01*
X19274825Y-15603150D02*
X19351015Y-15603150D01*
X19303396Y-15536484D02*
X19303396Y-15707912D01*
X19303396Y-15707912D02*
X19312920Y-15726960D01*
X19312920Y-15726960D02*
X19331968Y-15736484D01*
X19331968Y-15736484D02*
X19351015Y-15736484D01*
X19493873Y-15726960D02*
X19474825Y-15736484D01*
X19474825Y-15736484D02*
X19436730Y-15736484D01*
X19436730Y-15736484D02*
X19417682Y-15726960D01*
X19417682Y-15726960D02*
X19408158Y-15707912D01*
X19408158Y-15707912D02*
X19408158Y-15631722D01*
X19408158Y-15631722D02*
X19417682Y-15612674D01*
X19417682Y-15612674D02*
X19436730Y-15603150D01*
X19436730Y-15603150D02*
X19474825Y-15603150D01*
X19474825Y-15603150D02*
X19493873Y-15612674D01*
X19493873Y-15612674D02*
X19503396Y-15631722D01*
X19503396Y-15631722D02*
X19503396Y-15650769D01*
X19503396Y-15650769D02*
X19408158Y-15669817D01*
X19674825Y-15736484D02*
X19674825Y-15536484D01*
X19674825Y-15726960D02*
X19655777Y-15736484D01*
X19655777Y-15736484D02*
X19617682Y-15736484D01*
X19617682Y-15736484D02*
X19598635Y-15726960D01*
X19598635Y-15726960D02*
X19589111Y-15717436D01*
X19589111Y-15717436D02*
X19579587Y-15698388D01*
X19579587Y-15698388D02*
X19579587Y-15641246D01*
X19579587Y-15641246D02*
X19589111Y-15622198D01*
X19589111Y-15622198D02*
X19598635Y-15612674D01*
X19598635Y-15612674D02*
X19617682Y-15603150D01*
X19617682Y-15603150D02*
X19655777Y-15603150D01*
X19655777Y-15603150D02*
X19674825Y-15612674D01*
X19751016Y-15812674D02*
X19760539Y-15803150D01*
X19760539Y-15803150D02*
X19779587Y-15774579D01*
X19779587Y-15774579D02*
X19789111Y-15755531D01*
X19789111Y-15755531D02*
X19798635Y-15726960D01*
X19798635Y-15726960D02*
X19808158Y-15679341D01*
X19808158Y-15679341D02*
X19808158Y-15641246D01*
X19808158Y-15641246D02*
X19798635Y-15593627D01*
X19798635Y-15593627D02*
X19789111Y-15565055D01*
X19789111Y-15565055D02*
X19779587Y-15546008D01*
X19779587Y-15546008D02*
X19760539Y-15517436D01*
X19760539Y-15517436D02*
X19751016Y-15507912D01*
X12995000Y-15909000D02*
G75*
G02*
X12795000Y-15909000I-100000J0D01*
G01*
X12795000Y-15909000D02*
G75*
G02*
X12995000Y-15909000I100000J0D01*
G01*
X13236729Y-15800484D02*
X13360539Y-15800484D01*
X13360539Y-15800484D02*
X13293872Y-15876674D01*
X13293872Y-15876674D02*
X13322443Y-15876674D01*
X13322443Y-15876674D02*
X13341491Y-15886198D01*
X13341491Y-15886198D02*
X13351015Y-15895722D01*
X13351015Y-15895722D02*
X13360539Y-15914769D01*
X13360539Y-15914769D02*
X13360539Y-15962388D01*
X13360539Y-15962388D02*
X13351015Y-15981436D01*
X13351015Y-15981436D02*
X13341491Y-15990960D01*
X13341491Y-15990960D02*
X13322443Y-16000484D01*
X13322443Y-16000484D02*
X13265301Y-16000484D01*
X13265301Y-16000484D02*
X13246253Y-15990960D01*
X13246253Y-15990960D02*
X13236729Y-15981436D01*
X13446253Y-15981436D02*
X13455777Y-15990960D01*
X13455777Y-15990960D02*
X13446253Y-16000484D01*
X13446253Y-16000484D02*
X13436729Y-15990960D01*
X13436729Y-15990960D02*
X13446253Y-15981436D01*
X13446253Y-15981436D02*
X13446253Y-16000484D01*
X13531967Y-15819531D02*
X13541491Y-15810008D01*
X13541491Y-15810008D02*
X13560539Y-15800484D01*
X13560539Y-15800484D02*
X13608158Y-15800484D01*
X13608158Y-15800484D02*
X13627205Y-15810008D01*
X13627205Y-15810008D02*
X13636729Y-15819531D01*
X13636729Y-15819531D02*
X13646253Y-15838579D01*
X13646253Y-15838579D02*
X13646253Y-15857627D01*
X13646253Y-15857627D02*
X13636729Y-15886198D01*
X13636729Y-15886198D02*
X13522443Y-16000484D01*
X13522443Y-16000484D02*
X13646253Y-16000484D01*
X13770062Y-15800484D02*
X13789110Y-15800484D01*
X13789110Y-15800484D02*
X13808158Y-15810008D01*
X13808158Y-15810008D02*
X13817682Y-15819531D01*
X13817682Y-15819531D02*
X13827205Y-15838579D01*
X13827205Y-15838579D02*
X13836729Y-15876674D01*
X13836729Y-15876674D02*
X13836729Y-15924293D01*
X13836729Y-15924293D02*
X13827205Y-15962388D01*
X13827205Y-15962388D02*
X13817682Y-15981436D01*
X13817682Y-15981436D02*
X13808158Y-15990960D01*
X13808158Y-15990960D02*
X13789110Y-16000484D01*
X13789110Y-16000484D02*
X13770062Y-16000484D01*
X13770062Y-16000484D02*
X13751015Y-15990960D01*
X13751015Y-15990960D02*
X13741491Y-15981436D01*
X13741491Y-15981436D02*
X13731967Y-15962388D01*
X13731967Y-15962388D02*
X13722443Y-15924293D01*
X13722443Y-15924293D02*
X13722443Y-15876674D01*
X13722443Y-15876674D02*
X13731967Y-15838579D01*
X13731967Y-15838579D02*
X13741491Y-15819531D01*
X13741491Y-15819531D02*
X13751015Y-15810008D01*
X13751015Y-15810008D02*
X13770062Y-15800484D01*
X13960539Y-15800484D02*
X13979586Y-15800484D01*
X13979586Y-15800484D02*
X13998634Y-15810008D01*
X13998634Y-15810008D02*
X14008158Y-15819531D01*
X14008158Y-15819531D02*
X14017682Y-15838579D01*
X14017682Y-15838579D02*
X14027205Y-15876674D01*
X14027205Y-15876674D02*
X14027205Y-15924293D01*
X14027205Y-15924293D02*
X14017682Y-15962388D01*
X14017682Y-15962388D02*
X14008158Y-15981436D01*
X14008158Y-15981436D02*
X13998634Y-15990960D01*
X13998634Y-15990960D02*
X13979586Y-16000484D01*
X13979586Y-16000484D02*
X13960539Y-16000484D01*
X13960539Y-16000484D02*
X13941491Y-15990960D01*
X13941491Y-15990960D02*
X13931967Y-15981436D01*
X13931967Y-15981436D02*
X13922443Y-15962388D01*
X13922443Y-15962388D02*
X13912920Y-15924293D01*
X13912920Y-15924293D02*
X13912920Y-15876674D01*
X13912920Y-15876674D02*
X13922443Y-15838579D01*
X13922443Y-15838579D02*
X13931967Y-15819531D01*
X13931967Y-15819531D02*
X13941491Y-15810008D01*
X13941491Y-15810008D02*
X13960539Y-15800484D01*
X14112920Y-16000484D02*
X14112920Y-15867150D01*
X14112920Y-15886198D02*
X14122443Y-15876674D01*
X14122443Y-15876674D02*
X14141491Y-15867150D01*
X14141491Y-15867150D02*
X14170063Y-15867150D01*
X14170063Y-15867150D02*
X14189110Y-15876674D01*
X14189110Y-15876674D02*
X14198634Y-15895722D01*
X14198634Y-15895722D02*
X14198634Y-16000484D01*
X14198634Y-15895722D02*
X14208158Y-15876674D01*
X14208158Y-15876674D02*
X14227205Y-15867150D01*
X14227205Y-15867150D02*
X14255777Y-15867150D01*
X14255777Y-15867150D02*
X14274824Y-15876674D01*
X14274824Y-15876674D02*
X14284348Y-15895722D01*
X14284348Y-15895722D02*
X14284348Y-16000484D01*
X14379586Y-16000484D02*
X14379586Y-15867150D01*
X14379586Y-15886198D02*
X14389110Y-15876674D01*
X14389110Y-15876674D02*
X14408158Y-15867150D01*
X14408158Y-15867150D02*
X14436729Y-15867150D01*
X14436729Y-15867150D02*
X14455777Y-15876674D01*
X14455777Y-15876674D02*
X14465301Y-15895722D01*
X14465301Y-15895722D02*
X14465301Y-16000484D01*
X14465301Y-15895722D02*
X14474824Y-15876674D01*
X14474824Y-15876674D02*
X14493872Y-15867150D01*
X14493872Y-15867150D02*
X14522443Y-15867150D01*
X14522443Y-15867150D02*
X14541491Y-15876674D01*
X14541491Y-15876674D02*
X14551015Y-15895722D01*
X14551015Y-15895722D02*
X14551015Y-16000484D01*
X14941491Y-15790960D02*
X14770063Y-16048103D01*
X15198634Y-15800484D02*
X15217682Y-15800484D01*
X15217682Y-15800484D02*
X15236729Y-15810008D01*
X15236729Y-15810008D02*
X15246253Y-15819531D01*
X15246253Y-15819531D02*
X15255777Y-15838579D01*
X15255777Y-15838579D02*
X15265301Y-15876674D01*
X15265301Y-15876674D02*
X15265301Y-15924293D01*
X15265301Y-15924293D02*
X15255777Y-15962388D01*
X15255777Y-15962388D02*
X15246253Y-15981436D01*
X15246253Y-15981436D02*
X15236729Y-15990960D01*
X15236729Y-15990960D02*
X15217682Y-16000484D01*
X15217682Y-16000484D02*
X15198634Y-16000484D01*
X15198634Y-16000484D02*
X15179586Y-15990960D01*
X15179586Y-15990960D02*
X15170063Y-15981436D01*
X15170063Y-15981436D02*
X15160539Y-15962388D01*
X15160539Y-15962388D02*
X15151015Y-15924293D01*
X15151015Y-15924293D02*
X15151015Y-15876674D01*
X15151015Y-15876674D02*
X15160539Y-15838579D01*
X15160539Y-15838579D02*
X15170063Y-15819531D01*
X15170063Y-15819531D02*
X15179586Y-15810008D01*
X15179586Y-15810008D02*
X15198634Y-15800484D01*
X15351015Y-15981436D02*
X15360539Y-15990960D01*
X15360539Y-15990960D02*
X15351015Y-16000484D01*
X15351015Y-16000484D02*
X15341491Y-15990960D01*
X15341491Y-15990960D02*
X15351015Y-15981436D01*
X15351015Y-15981436D02*
X15351015Y-16000484D01*
X15551015Y-16000484D02*
X15436729Y-16000484D01*
X15493872Y-16000484D02*
X15493872Y-15800484D01*
X15493872Y-15800484D02*
X15474825Y-15829055D01*
X15474825Y-15829055D02*
X15455777Y-15848103D01*
X15455777Y-15848103D02*
X15436729Y-15857627D01*
X15627206Y-15819531D02*
X15636729Y-15810008D01*
X15636729Y-15810008D02*
X15655777Y-15800484D01*
X15655777Y-15800484D02*
X15703396Y-15800484D01*
X15703396Y-15800484D02*
X15722444Y-15810008D01*
X15722444Y-15810008D02*
X15731967Y-15819531D01*
X15731967Y-15819531D02*
X15741491Y-15838579D01*
X15741491Y-15838579D02*
X15741491Y-15857627D01*
X15741491Y-15857627D02*
X15731967Y-15886198D01*
X15731967Y-15886198D02*
X15617682Y-16000484D01*
X15617682Y-16000484D02*
X15741491Y-16000484D01*
X15912920Y-15800484D02*
X15874825Y-15800484D01*
X15874825Y-15800484D02*
X15855777Y-15810008D01*
X15855777Y-15810008D02*
X15846253Y-15819531D01*
X15846253Y-15819531D02*
X15827206Y-15848103D01*
X15827206Y-15848103D02*
X15817682Y-15886198D01*
X15817682Y-15886198D02*
X15817682Y-15962388D01*
X15817682Y-15962388D02*
X15827206Y-15981436D01*
X15827206Y-15981436D02*
X15836729Y-15990960D01*
X15836729Y-15990960D02*
X15855777Y-16000484D01*
X15855777Y-16000484D02*
X15893872Y-16000484D01*
X15893872Y-16000484D02*
X15912920Y-15990960D01*
X15912920Y-15990960D02*
X15922444Y-15981436D01*
X15922444Y-15981436D02*
X15931967Y-15962388D01*
X15931967Y-15962388D02*
X15931967Y-15914769D01*
X15931967Y-15914769D02*
X15922444Y-15895722D01*
X15922444Y-15895722D02*
X15912920Y-15886198D01*
X15912920Y-15886198D02*
X15893872Y-15876674D01*
X15893872Y-15876674D02*
X15855777Y-15876674D01*
X15855777Y-15876674D02*
X15836729Y-15886198D01*
X15836729Y-15886198D02*
X15827206Y-15895722D01*
X15827206Y-15895722D02*
X15817682Y-15914769D01*
X16055777Y-15800484D02*
X16074825Y-15800484D01*
X16074825Y-15800484D02*
X16093872Y-15810008D01*
X16093872Y-15810008D02*
X16103396Y-15819531D01*
X16103396Y-15819531D02*
X16112920Y-15838579D01*
X16112920Y-15838579D02*
X16122444Y-15876674D01*
X16122444Y-15876674D02*
X16122444Y-15924293D01*
X16122444Y-15924293D02*
X16112920Y-15962388D01*
X16112920Y-15962388D02*
X16103396Y-15981436D01*
X16103396Y-15981436D02*
X16093872Y-15990960D01*
X16093872Y-15990960D02*
X16074825Y-16000484D01*
X16074825Y-16000484D02*
X16055777Y-16000484D01*
X16055777Y-16000484D02*
X16036729Y-15990960D01*
X16036729Y-15990960D02*
X16027206Y-15981436D01*
X16027206Y-15981436D02*
X16017682Y-15962388D01*
X16017682Y-15962388D02*
X16008158Y-15924293D01*
X16008158Y-15924293D02*
X16008158Y-15876674D01*
X16008158Y-15876674D02*
X16017682Y-15838579D01*
X16017682Y-15838579D02*
X16027206Y-15819531D01*
X16027206Y-15819531D02*
X16036729Y-15810008D01*
X16036729Y-15810008D02*
X16055777Y-15800484D01*
X16198634Y-15800484D02*
X16198634Y-15838579D01*
X16274825Y-15800484D02*
X16274825Y-15838579D01*
X16570063Y-16076674D02*
X16560539Y-16067150D01*
X16560539Y-16067150D02*
X16541491Y-16038579D01*
X16541491Y-16038579D02*
X16531968Y-16019531D01*
X16531968Y-16019531D02*
X16522444Y-15990960D01*
X16522444Y-15990960D02*
X16512920Y-15943341D01*
X16512920Y-15943341D02*
X16512920Y-15905246D01*
X16512920Y-15905246D02*
X16522444Y-15857627D01*
X16522444Y-15857627D02*
X16531968Y-15829055D01*
X16531968Y-15829055D02*
X16541491Y-15810008D01*
X16541491Y-15810008D02*
X16560539Y-15781436D01*
X16560539Y-15781436D02*
X16570063Y-15771912D01*
X16731968Y-15867150D02*
X16731968Y-16000484D01*
X16684348Y-15790960D02*
X16636729Y-15933817D01*
X16636729Y-15933817D02*
X16760539Y-15933817D01*
X16989111Y-16000484D02*
X16989111Y-15800484D01*
X17074825Y-16000484D02*
X17074825Y-15895722D01*
X17074825Y-15895722D02*
X17065301Y-15876674D01*
X17065301Y-15876674D02*
X17046253Y-15867150D01*
X17046253Y-15867150D02*
X17017682Y-15867150D01*
X17017682Y-15867150D02*
X16998634Y-15876674D01*
X16998634Y-15876674D02*
X16989111Y-15886198D01*
X17198634Y-16000484D02*
X17179587Y-15990960D01*
X17179587Y-15990960D02*
X17170063Y-15981436D01*
X17170063Y-15981436D02*
X17160539Y-15962388D01*
X17160539Y-15962388D02*
X17160539Y-15905246D01*
X17160539Y-15905246D02*
X17170063Y-15886198D01*
X17170063Y-15886198D02*
X17179587Y-15876674D01*
X17179587Y-15876674D02*
X17198634Y-15867150D01*
X17198634Y-15867150D02*
X17227206Y-15867150D01*
X17227206Y-15867150D02*
X17246253Y-15876674D01*
X17246253Y-15876674D02*
X17255777Y-15886198D01*
X17255777Y-15886198D02*
X17265301Y-15905246D01*
X17265301Y-15905246D02*
X17265301Y-15962388D01*
X17265301Y-15962388D02*
X17255777Y-15981436D01*
X17255777Y-15981436D02*
X17246253Y-15990960D01*
X17246253Y-15990960D02*
X17227206Y-16000484D01*
X17227206Y-16000484D02*
X17198634Y-16000484D01*
X17379587Y-16000484D02*
X17360539Y-15990960D01*
X17360539Y-15990960D02*
X17351015Y-15971912D01*
X17351015Y-15971912D02*
X17351015Y-15800484D01*
X17531968Y-15990960D02*
X17512920Y-16000484D01*
X17512920Y-16000484D02*
X17474825Y-16000484D01*
X17474825Y-16000484D02*
X17455777Y-15990960D01*
X17455777Y-15990960D02*
X17446253Y-15971912D01*
X17446253Y-15971912D02*
X17446253Y-15895722D01*
X17446253Y-15895722D02*
X17455777Y-15876674D01*
X17455777Y-15876674D02*
X17474825Y-15867150D01*
X17474825Y-15867150D02*
X17512920Y-15867150D01*
X17512920Y-15867150D02*
X17531968Y-15876674D01*
X17531968Y-15876674D02*
X17541492Y-15895722D01*
X17541492Y-15895722D02*
X17541492Y-15914769D01*
X17541492Y-15914769D02*
X17446253Y-15933817D01*
X17617682Y-15990960D02*
X17636730Y-16000484D01*
X17636730Y-16000484D02*
X17674825Y-16000484D01*
X17674825Y-16000484D02*
X17693873Y-15990960D01*
X17693873Y-15990960D02*
X17703396Y-15971912D01*
X17703396Y-15971912D02*
X17703396Y-15962388D01*
X17703396Y-15962388D02*
X17693873Y-15943341D01*
X17693873Y-15943341D02*
X17674825Y-15933817D01*
X17674825Y-15933817D02*
X17646253Y-15933817D01*
X17646253Y-15933817D02*
X17627206Y-15924293D01*
X17627206Y-15924293D02*
X17617682Y-15905246D01*
X17617682Y-15905246D02*
X17617682Y-15895722D01*
X17617682Y-15895722D02*
X17627206Y-15876674D01*
X17627206Y-15876674D02*
X17646253Y-15867150D01*
X17646253Y-15867150D02*
X17674825Y-15867150D01*
X17674825Y-15867150D02*
X17693873Y-15876674D01*
X17770063Y-16076674D02*
X17779587Y-16067150D01*
X17779587Y-16067150D02*
X17798634Y-16038579D01*
X17798634Y-16038579D02*
X17808158Y-16019531D01*
X17808158Y-16019531D02*
X17817682Y-15990960D01*
X17817682Y-15990960D02*
X17827206Y-15943341D01*
X17827206Y-15943341D02*
X17827206Y-15905246D01*
X17827206Y-15905246D02*
X17817682Y-15857627D01*
X17817682Y-15857627D02*
X17808158Y-15829055D01*
X17808158Y-15829055D02*
X17798634Y-15810008D01*
X17798634Y-15810008D02*
X17779587Y-15781436D01*
X17779587Y-15781436D02*
X17770063Y-15771912D01*
X18131968Y-16076674D02*
X18122444Y-16067150D01*
X18122444Y-16067150D02*
X18103396Y-16038579D01*
X18103396Y-16038579D02*
X18093873Y-16019531D01*
X18093873Y-16019531D02*
X18084349Y-15990960D01*
X18084349Y-15990960D02*
X18074825Y-15943341D01*
X18074825Y-15943341D02*
X18074825Y-15905246D01*
X18074825Y-15905246D02*
X18084349Y-15857627D01*
X18084349Y-15857627D02*
X18093873Y-15829055D01*
X18093873Y-15829055D02*
X18103396Y-15810008D01*
X18103396Y-15810008D02*
X18122444Y-15781436D01*
X18122444Y-15781436D02*
X18131968Y-15771912D01*
X18208158Y-15867150D02*
X18208158Y-16000484D01*
X18208158Y-15886198D02*
X18217682Y-15876674D01*
X18217682Y-15876674D02*
X18236730Y-15867150D01*
X18236730Y-15867150D02*
X18265301Y-15867150D01*
X18265301Y-15867150D02*
X18284349Y-15876674D01*
X18284349Y-15876674D02*
X18293873Y-15895722D01*
X18293873Y-15895722D02*
X18293873Y-16000484D01*
X18417682Y-16000484D02*
X18398634Y-15990960D01*
X18398634Y-15990960D02*
X18389111Y-15981436D01*
X18389111Y-15981436D02*
X18379587Y-15962388D01*
X18379587Y-15962388D02*
X18379587Y-15905246D01*
X18379587Y-15905246D02*
X18389111Y-15886198D01*
X18389111Y-15886198D02*
X18398634Y-15876674D01*
X18398634Y-15876674D02*
X18417682Y-15867150D01*
X18417682Y-15867150D02*
X18446254Y-15867150D01*
X18446254Y-15867150D02*
X18465301Y-15876674D01*
X18465301Y-15876674D02*
X18474825Y-15886198D01*
X18474825Y-15886198D02*
X18484349Y-15905246D01*
X18484349Y-15905246D02*
X18484349Y-15962388D01*
X18484349Y-15962388D02*
X18474825Y-15981436D01*
X18474825Y-15981436D02*
X18465301Y-15990960D01*
X18465301Y-15990960D02*
X18446254Y-16000484D01*
X18446254Y-16000484D02*
X18417682Y-16000484D01*
X18541492Y-15867150D02*
X18617682Y-15867150D01*
X18570063Y-15800484D02*
X18570063Y-15971912D01*
X18570063Y-15971912D02*
X18579587Y-15990960D01*
X18579587Y-15990960D02*
X18598634Y-16000484D01*
X18598634Y-16000484D02*
X18617682Y-16000484D01*
X18836730Y-15867150D02*
X18836730Y-16067150D01*
X18836730Y-15876674D02*
X18855777Y-15867150D01*
X18855777Y-15867150D02*
X18893873Y-15867150D01*
X18893873Y-15867150D02*
X18912920Y-15876674D01*
X18912920Y-15876674D02*
X18922444Y-15886198D01*
X18922444Y-15886198D02*
X18931968Y-15905246D01*
X18931968Y-15905246D02*
X18931968Y-15962388D01*
X18931968Y-15962388D02*
X18922444Y-15981436D01*
X18922444Y-15981436D02*
X18912920Y-15990960D01*
X18912920Y-15990960D02*
X18893873Y-16000484D01*
X18893873Y-16000484D02*
X18855777Y-16000484D01*
X18855777Y-16000484D02*
X18836730Y-15990960D01*
X19046254Y-16000484D02*
X19027206Y-15990960D01*
X19027206Y-15990960D02*
X19017682Y-15971912D01*
X19017682Y-15971912D02*
X19017682Y-15800484D01*
X19208158Y-16000484D02*
X19208158Y-15895722D01*
X19208158Y-15895722D02*
X19198635Y-15876674D01*
X19198635Y-15876674D02*
X19179587Y-15867150D01*
X19179587Y-15867150D02*
X19141492Y-15867150D01*
X19141492Y-15867150D02*
X19122444Y-15876674D01*
X19208158Y-15990960D02*
X19189111Y-16000484D01*
X19189111Y-16000484D02*
X19141492Y-16000484D01*
X19141492Y-16000484D02*
X19122444Y-15990960D01*
X19122444Y-15990960D02*
X19112920Y-15971912D01*
X19112920Y-15971912D02*
X19112920Y-15952865D01*
X19112920Y-15952865D02*
X19122444Y-15933817D01*
X19122444Y-15933817D02*
X19141492Y-15924293D01*
X19141492Y-15924293D02*
X19189111Y-15924293D01*
X19189111Y-15924293D02*
X19208158Y-15914769D01*
X19274825Y-15867150D02*
X19351015Y-15867150D01*
X19303396Y-15800484D02*
X19303396Y-15971912D01*
X19303396Y-15971912D02*
X19312920Y-15990960D01*
X19312920Y-15990960D02*
X19331968Y-16000484D01*
X19331968Y-16000484D02*
X19351015Y-16000484D01*
X19493873Y-15990960D02*
X19474825Y-16000484D01*
X19474825Y-16000484D02*
X19436730Y-16000484D01*
X19436730Y-16000484D02*
X19417682Y-15990960D01*
X19417682Y-15990960D02*
X19408158Y-15971912D01*
X19408158Y-15971912D02*
X19408158Y-15895722D01*
X19408158Y-15895722D02*
X19417682Y-15876674D01*
X19417682Y-15876674D02*
X19436730Y-15867150D01*
X19436730Y-15867150D02*
X19474825Y-15867150D01*
X19474825Y-15867150D02*
X19493873Y-15876674D01*
X19493873Y-15876674D02*
X19503396Y-15895722D01*
X19503396Y-15895722D02*
X19503396Y-15914769D01*
X19503396Y-15914769D02*
X19408158Y-15933817D01*
X19674825Y-16000484D02*
X19674825Y-15800484D01*
X19674825Y-15990960D02*
X19655777Y-16000484D01*
X19655777Y-16000484D02*
X19617682Y-16000484D01*
X19617682Y-16000484D02*
X19598635Y-15990960D01*
X19598635Y-15990960D02*
X19589111Y-15981436D01*
X19589111Y-15981436D02*
X19579587Y-15962388D01*
X19579587Y-15962388D02*
X19579587Y-15905246D01*
X19579587Y-15905246D02*
X19589111Y-15886198D01*
X19589111Y-15886198D02*
X19598635Y-15876674D01*
X19598635Y-15876674D02*
X19617682Y-15867150D01*
X19617682Y-15867150D02*
X19655777Y-15867150D01*
X19655777Y-15867150D02*
X19674825Y-15876674D01*
X19751016Y-16076674D02*
X19760539Y-16067150D01*
X19760539Y-16067150D02*
X19779587Y-16038579D01*
X19779587Y-16038579D02*
X19789111Y-16019531D01*
X19789111Y-16019531D02*
X19798635Y-15990960D01*
X19798635Y-15990960D02*
X19808158Y-15943341D01*
X19808158Y-15943341D02*
X19808158Y-15905246D01*
X19808158Y-15905246D02*
X19798635Y-15857627D01*
X19798635Y-15857627D02*
X19789111Y-15829055D01*
X19789111Y-15829055D02*
X19779587Y-15810008D01*
X19779587Y-15810008D02*
X19760539Y-15781436D01*
X19760539Y-15781436D02*
X19751016Y-15771912D01*
M02*
