M48
; DRILL file {KiCad 8.0.7} date 2025-02-05T20:20:24+0900
; FORMAT={-:-/ absolute / inch / decimal}
; #@! TF.CreationDate,2025-02-05T20:20:24+09:00
; #@! TF.GenerationSoftware,Kicad,Pcbnew,8.0.7
; #@! TF.FileFunction,Plated,1,2,PTH
FMAT,2
INCH
; #@! TA.AperFunction,Plated,PTH,ViaDrill
T1C0.0118
; #@! TA.AperFunction,Plated,PTH,ViaDrill
T2C0.0157
; #@! TA.AperFunction,Plated,PTH,ViaDrill
T3C0.0197
; #@! TA.AperFunction,Plated,PTH,ComponentDrill
T4C0.0236
; #@! TA.AperFunction,Plated,PTH,ViaDrill
T5C0.0276
; #@! TA.AperFunction,Plated,PTH,ComponentDrill
T6C0.0315
; #@! TA.AperFunction,Plated,PTH,ComponentDrill
T7C0.0354
; #@! TA.AperFunction,Plated,PTH,ComponentDrill
T8C0.0374
; #@! TA.AperFunction,Plated,PTH,ComponentDrill
T9C0.0394
; #@! TA.AperFunction,Plated,PTH,ViaDrill
T10C0.0669
; #@! TA.AperFunction,Plated,PTH,ViaDrill
T11C0.0866
; #@! TA.AperFunction,Plated,PTH,ComponentDrill
T12C0.1063
%
G90
G05
T1
X5.1521Y-5.6465
X5.1681Y-4.2555
X5.1681Y-4.7055
X5.1681Y-5.0055
X5.1681Y-5.1055
X5.1681Y-5.2055
X5.1681Y-5.3055
X5.1681Y-5.4055
X5.2241Y-4.8105
X5.2241Y-4.9075
X5.2241Y-4.9585
X5.2251Y-4.8565
X5.3124Y-5.1115
X5.3181Y-5.2055
X5.3181Y-5.3555
X5.3341Y-4.9835
X5.3611Y-5.6495
X5.3681Y-4.5055
X5.3681Y-4.7555
X5.3681Y-4.8555
X5.3681Y-5.5055
X5.386Y-5.2555
X5.3931Y-5.8555
X5.3981Y-4.2055
X5.3981Y-4.2955
X5.4181Y-3.9655
X5.4181Y-4.0555
X5.4681Y-5.7555
X5.4681Y-5.8555
X5.4794Y-5.1229
X5.4825Y-5.2415
X5.4881Y-4.7575
X5.4951Y-5.2845
X5.5601Y-5.3855
X5.5681Y-3.9655
X5.5831Y-5.1585
X5.5981Y-5.5055
X5.5981Y-5.6855
X5.6181Y-4.6555
X5.6181Y-4.7055
X5.6181Y-5.3055
X5.6181Y-5.6055
X5.6251Y-5.3895
X5.6581Y-5.3845
X5.6681Y-3.9655
X5.6681Y-5.7555
X5.6681Y-5.8555
X5.6831Y-5.0305
X5.6881Y-5.5155
X5.7181Y-4.7055
X5.736Y-5.3701
X5.7391Y-5.1621
X5.7481Y-5.2705
X5.7637Y-5.1327
X5.7681Y-3.9655
X5.7681Y-5.0055
X5.7681Y-5.4055
X5.7781Y-5.7275
X5.7931Y-5.2755
X5.8131Y-5.2355
X5.8181Y-4.7055
X5.8181Y-5.8555
X5.8281Y-5.6805
X5.8381Y-5.1355
X5.8431Y-5.3205
X5.8581Y-3.9655
X5.9181Y-5.0355
X5.9181Y-5.8555
X5.9321Y-5.6845
X5.9329Y-5.5474
X5.9329Y-5.6046
X5.9333Y-5.4924
X5.9334Y-5.4328
X5.9341Y-4.7135
X5.9601Y-5.3835
X5.9671Y-5.2105
X5.9681Y-3.9655
X5.9681Y-4.0555
X5.9681Y-4.5055
X5.9831Y-4.3255
X5.9881Y-4.9405
X5.9941Y-4.9955
X5.9981Y-4.8805
X6.0181Y-5.8555
X6.0341Y-5.0385
X6.0431Y-5.2855
X6.0581Y-5.2155
X6.0631Y-4.8655
X6.0631Y-5.7015
X6.0681Y-3.9655
X6.0681Y-4.0555
X6.0681Y-4.2455
X6.0681Y-4.3855
X6.0681Y-4.5055
X6.0739Y-5.0591
X6.0841Y-5.3725
X6.0881Y-4.8055
X6.1027Y-5.0722
X6.1181Y-5.8555
X6.1307Y-5.0868
X6.1431Y-4.3805
X6.1461Y-4.2245
X6.1461Y-4.7455
X6.1481Y-5.0235
X6.1501Y-4.8695
X6.1541Y-5.1355
X6.1581Y-5.1022
X6.1681Y-5.2895
X6.1741Y-4.8045
X6.2041Y-4.6735
X6.208Y-4.4434
X6.2161Y-4.2375
X6.2181Y-5.4055
X6.2181Y-5.6055
X6.2181Y-5.8555
X6.2221Y-4.7755
X6.2421Y-4.7115
X6.2881Y-4.6755
X6.2921Y-5.2915
X6.2981Y-4.3955
X6.3101Y-4.2945
X6.3181Y-3.9655
X6.3181Y-4.6055
X6.3181Y-4.8555
X6.3181Y-4.9555
X6.3181Y-5.0555
X6.3181Y-5.1555
X6.3181Y-5.8555
X6.3281Y-4.5355
X6.3481Y-4.2655
X6.4181Y-4.4555
X6.4181Y-4.8555
X6.4181Y-4.9555
X6.4181Y-5.0555
X6.4181Y-5.1555
X6.4181Y-5.5555
X6.4181Y-5.8555
X6.4601Y-5.3455
X6.4681Y-3.9655
X6.4861Y-5.4135
X6.4861Y-5.4935
X6.4931Y-4.6705
X6.4931Y-4.7055
X6.5007Y-4.9788
X6.5146Y-4.9501
X6.5181Y-5.7055
X6.5181Y-5.8555
X6.5284Y-4.9195
X6.5496Y-4.8961
X6.5621Y-4.4035
X6.5681Y-4.2555
X6.5723Y-4.8731
X6.5881Y-4.9705
X6.5881Y-5.0605
X6.5881Y-5.1405
X6.5991Y-4.8565
X6.6081Y-4.8195
X6.6121Y-5.4115
X6.6181Y-3.9655
X6.6181Y-4.0555
X6.6181Y-5.2805
X6.6181Y-5.8805
X6.6581Y-5.1955
X6.6621Y-5.6395
X6.6641Y-4.7195
X6.6681Y-4.4055
X6.6761Y-4.5675
X6.7001Y-5.7955
X6.7021Y-4.8195
X6.7122Y-4.9896
X6.7181Y-5.3555
X6.7403Y-4.9754
X6.7431Y-5.8805
X6.7501Y-4.3615
X6.7561Y-5.1484
X6.7681Y-3.9655
X6.7877Y-5.1489
X6.7901Y-5.7935
X6.8041Y-5.5295
X6.8181Y-5.3555
X6.8511Y-4.2925
X6.8681Y-4.5155
X6.8681Y-5.0055
X6.8681Y-5.8805
X6.8721Y-4.7415
X6.8721Y-4.8415
X6.8741Y-4.9435
X6.8761Y-4.6435
X6.8781Y-4.2255
X6.8932Y-5.2252
X6.9181Y-3.9655
X6.9701Y-5.7435
X6.9821Y-5.4075
X6.9931Y-5.8805
X7.0031Y-5.1175
X7.0181Y-4.5575
X7.0201Y-5.0215
X7.0221Y-4.9535
X7.0229Y-4.7255
X7.0229Y-4.8035
X7.0231Y-4.6555
X7.0231Y-4.8805
X7.0431Y-5.2855
X7.0681Y-3.9655
X7.0681Y-4.0555
X7.0681Y-4.1555
X7.0681Y-4.2555
X7.0681Y-4.3405
X7.0681Y-4.4255
X7.0681Y-4.6055
X7.0681Y-5.3555
X7.0681Y-5.5305
X7.0921Y-5.1975
X7.1231Y-4.4705
X7.1241Y-5.7355
X7.1281Y-4.2555
X7.1331Y-4.5725
X7.1641Y-5.2915
X7.1681Y-4.7055
X7.1681Y-4.8055
X7.1681Y-4.9055
X7.1681Y-5.0055
X7.1681Y-5.1055
X7.1681Y-5.8555
X7.1781Y-4.4505
X7.1781Y-4.5005
X7.1781Y-4.5505
X7.1831Y-4.4005
X7.1831Y-4.5755
X7.1831Y-5.4255
X7.2281Y-4.3805
X7.2581Y-5.2855
X7.2581Y-5.6455
X7.2641Y-5.5555
X7.2681Y-4.7055
X7.2681Y-4.8055
X7.2681Y-5.0055
X7.2681Y-5.3555
X7.2681Y-5.4855
X7.2681Y-5.8555
X7.3031Y-4.3805
X7.3331Y-4.3355
X7.3381Y-5.3555
X7.3506Y-4.393
X7.3521Y-5.8795
X7.3631Y-4.4405
X7.3631Y-4.4905
X7.3631Y-4.5405
X7.3631Y-4.5655
X7.3631Y-5.2855
X7.3681Y-3.9655
X7.3681Y-4.7055
X7.3681Y-4.8055
X7.3681Y-5.0055
X7.3681Y-5.1055
X7.3731Y-4.3035
X7.4081Y-4.2355
X7.4361Y-5.3555
X7.4381Y-4.5705
X7.4431Y-4.3305
X7.4581Y-4.2355
X7.4681Y-4.7055
X7.4681Y-4.7555
X7.4681Y-4.8055
X7.4681Y-4.8555
X7.4681Y-4.9055
X7.4681Y-4.9555
X7.4681Y-5.0055
X7.4681Y-5.0555
X7.4681Y-5.1055
X7.4681Y-5.1555
X7.4781Y-5.2955
X7.4981Y-4.3355
X7.4981Y-4.3955
X7.4981Y-5.3905
X7.5041Y-4.5085
X7.5041Y-4.5435
X7.5071Y-5.2605
X7.5081Y-4.2405
X7.5161Y-5.1055
X7.5161Y-5.1555
X7.5181Y-4.9555
X7.5181Y-5.0055
X7.5181Y-5.0555
X7.5201Y-4.7535
X7.5201Y-4.8055
X7.5221Y-4.7055
X7.5331Y-4.2805
X7.5631Y-4.5355
X7.5681Y-4.7055
X7.5681Y-4.7555
X7.5681Y-4.8055
X7.5681Y-5.0055
X7.5681Y-5.0555
X7.5681Y-5.1055
X7.5681Y-5.1555
X7.5681Y-5.6055
X7.5731Y-4.5755
X7.6081Y-3.9655
X7.6081Y-4.1555
X7.6081Y-4.2055
X7.6081Y-4.2555
X7.6081Y-4.3055
X7.6081Y-4.3555
X7.6081Y-4.4055
X7.6081Y-4.4555
X7.6081Y-4.4905
X7.6081Y-4.5255
X7.6081Y-4.5605
X7.6081Y-5.3155
X7.6081Y-5.3605
X7.6081Y-5.6555
X7.6121Y-5.2695
X7.6121Y-5.8815
X7.6181Y-4.7055
X7.6181Y-4.7555
X7.6181Y-4.8055
X7.6181Y-5.0055
X7.6181Y-5.0555
X7.6181Y-5.1055
X7.6181Y-5.1555
X7.6181Y-5.4055
X7.6181Y-5.4655
X7.6181Y-5.5255
X7.6181Y-5.5805
T2
X5.5381Y-4.8755
X7.3371Y-5.4695
X7.5701Y-5.2765
T3
X6.0581Y-4.7825
X6.1331Y-5.2165
X6.4605Y-5.3851
T4
X5.547Y-5.523
X5.547Y-5.6018
X5.547Y-5.6805
X5.547Y-5.7593
X5.547Y-5.838
X5.7392Y-5.523
X5.7392Y-5.6018
X5.7392Y-5.6805
X5.7392Y-5.7593
X5.7392Y-5.838
T5
X5.5581Y-4.0805
X5.6031Y-5.0055
T6
X6.1831Y-4.0336
X6.1831Y-4.1321
X6.7231Y-4.0336
X6.7231Y-4.1321
T7
X6.0731Y-4.5846
X6.0731Y-4.6555
X7.2222Y-4.0805
X7.2931Y-4.0805
T8
X5.9097Y-5.7505
X6.0081Y-5.7505
X6.1065Y-5.7505
X6.205Y-5.7505
X6.3034Y-5.7505
X6.4018Y-5.7505
X6.4331Y-4.0555
X6.4331Y-4.1539
X6.4331Y-4.2524
X6.4331Y-4.3508
X6.6331Y-5.4937
X6.6331Y-5.5921
X6.6331Y-5.6905
X6.6331Y-5.7889
X6.9031Y-5.4937
X6.9031Y-5.5921
X6.9031Y-5.6905
X6.9031Y-5.7889
X6.9724Y-4.0555
X6.9724Y-4.1539
X6.9724Y-4.2524
X6.9724Y-4.3508
X7.1724Y-5.4929
X7.1724Y-5.5913
X7.1724Y-5.6897
X7.1724Y-5.7881
T9
X5.1998Y-5.535
X5.2998Y-5.535
X6.945Y-4.67
X6.945Y-4.77
X6.945Y-4.87
X6.945Y-4.97
X6.945Y-5.07
T10
X5.5076Y-4.2804
X5.5076Y-4.4607
X5.5529Y-4.145
T11
X7.33Y-4.8945
T12
X5.2631Y-4.3871
X5.2631Y-4.5839
T4
G00X5.2455Y-5.0799
M15
G01X5.2219Y-5.0799
M16
G05
G00X5.2455Y-5.4201
M15
G01X5.2219Y-5.4201
M16
G05
G00X5.4199Y-5.0799
M15
G01X5.3766Y-5.0799
M16
G05
G00X5.4199Y-5.4201
M15
G01X5.3766Y-5.4201
M16
G05
M30
